<?xml version="1.0" encoding="UTF-8"?>
<svg id="g-transit-access-single-Artboard_1-wards-img" xmlns="http://www.w3.org/2000/svg" baseProfile="tiny" version="1.2" viewBox="0 0 640 640">
  <!-- Generator: Adobe Illustrator 29.7.1, SVG Export Plug-In . SVG Version: 2.1.1 Build 8)  -->
  <g id="wards">
    <path id="riverheights" d="M289.774,284.745l.9.041,1.14.18,2.347.226,1.01-.043.689-.096.645-.156.535-.197.701-.379,1.013-.463,3.702-1.334.854-.228.9-.17.662-.055.674.036.909.154.744.228.773.358.669.417.585.487,1.963,1.876.77.698.996.809.883.54.873.353.89.259.888.187,1.699.067,1.022-.038.929-.11,1.413-.384.41-.185.835-.465,1.627-1.041,2.565-1.74.696-.417.821-.417.782-.331.693-.182.326-.01.511.079.641.19.653.235.576.317.583.451.552.485.425.581.343.667.801,1.776.465.825,1.075,1.675.641.821.674.609.777.432.226.086-.307.499-.696,1.121-.17.276,1.629.643-.408.223-2.8,1.512-2.762,1.519-2.781,1.5,2.174,4,.434.801.437.799,6.13,11.121,6.147,11.076-.871,2.433-.036.573.079.665.209.537.401.806.631,3.124.113.561-.902,4.6-.134,4.069-.187,5.636-.199,6.001-.048,1.483-.022.605,3.006,5.49,1.66,8.933-1.864,10.181-.115.638-.168,2.239.329-.185,1.243-.689.204-.113,1.399-.777,1.449-.804v.319l.182.924.341,1.094.547,1.298,1.286,2.107,1.809,2.699,1.9,2.678.871,1.279.545.986.343.83.175.609-1.461.425-3.856,1.118-5.461,1.797-2.323.581-5.104,2.563-6.997.708-7.983,4.444-11.445,6.373-.969-1.658-1.564-2.591-.518-1.332-.168-2.284-.254-10.493-.811-12.772-1.001-2.231-3.381,4.648-.732.406-16.462,9.288-6.296,3.709-4.089-7.395-1.104-1.708-2.814-2.901.314-1.025,9.302-30.432,2.224-7.282.3-1.281.053-.271.055-.281.125-.984.067-.993.034-1.233-3.525.6-10.665,1.802.47-12.642.254-6.951.525-14.094.408-11.006.247-6.68,3.518-6.142-.665-1.466-.262-.578.981-.269,1.276-.394,1.181-.379.938-.345.641-.336.581-.456,1.02-.518,1.077-.353,1.293-.338.729-.084,1.615.101" vector-effect="none" fill="none" stroke="#333" stroke-linecap="square" stroke-linejoin="bevel" stroke-width=".5"/>
    <path id="stboniface" d="M401.159,232.53l1.384.089,1.219.078.631-.046-1.502,6.123.276.774.197-.024,5.041-.607.578-.034,1.013-.016,1.051.043,1.013.099.797.119,37.894,9.448-.876,6.561-.307,3.547.262,6.674.173,6.08.017.603-.019,1.464.353,10.645.019.662.017.655.077,4.926.852-.024.137,4.962.305.35,12.083,13.976,7.832,7.46,4.72.895.813.331.917.528.893.607,1.005.905.528.883.322.929.192,2.09.065,1.073-.276.007.454,16.206.36,12.796-.108,1.761.007.463.809,31.72-1.094-.29-.185-.05-.554-.146-.571-.151-.343-.091-.216-.058-.216-.058-.216-.058-.214-.058-.264-.07-.384-.101-1.404.681-.29-.674-.283-.533-.005-.007-.002-.007-.005-.007-.005-.007-.005-.01-.005-.007-.005-.007-.005-.007-.005-.007-.005-.01-.005-.007-.007-.007-.005-.007-.005-.007-.005-.01-.005-.007-.005-.007-.005-.007-.005-.007-.005-.007-.005-.01-.005-.007-.005-.007-.005-.007-.005-.007-.005-.007-.005-.007-.007-.01-.005-.007-.005-.007-.005-.007-.005-.007-.005-.007-.005-.01-.005-.007-.007-.007-.005-.007-.005-.007-.005-.007-.005-.007-.005-.007-.007-.01-.005-.007-.005-.007-.005-.007-.005-.007-.007-.007-.005-.007-.005-.007-.005-.007-.005-.007-.007-.007-.005-.01-.005-.007-.005-.007-.005-.007-.007-.007-.005-.007-.005-.007-.005-.007-.007-.007-.005-.007-.005-.007-.007-.007-.005-.007-.005-.007-.005-.007-.007-.007-.005-.007-.005-.007-.007-.007-.005-.007-.005-.007-.007-.007-.005-.01-.005-.007-.007-.007-.005-.007-.005-.007-.007-.007-.005-.007-.005-.007-.007-.007-.005-.007-.007-.007-.005-.007-.005-.007-.007-.007-.005-.007-.007-.007-.005-.007-.005-.005-.007-.007-.005-.007-.007-.007-.005-.007-.005-.007-.007-.007-.005-.007-.007-.007-.005-.007-.007-.007-.005-.007-.007-.007-.005-.007-.005-.007-.007-.005-.005-.007-.007-.007-.005-.007-.007-.007-.005-.007-.007-.007-.005-.007-.007-.005-.005-.007-.007-.007-.005-.007-.007-.007-.005-.007-.007-.007-.005-.005-.007-.007-.005-.007-.007-.007-.005-.007-.007-.007-.007-.005-.005-.007-.007-.007-.005-.007-.007-.007-.005-.005-.007-.007-.007-.007-.005-.007-.007-.007-.005-.005-.007-.007-.005-.007-.007-.007-.007-.005-.005-.007-.007-.007-.007-.007-.005-.007-.007-.005-.005-.007-.007-.007-.007-.005-.005-.007-.007-.007-.007-.007-.005-.005-.007-.007-.005-.007-.007-.005-.007-.007-.005-.007-.007-.005-.007-.007-.005-.007-.007-.005-.007-.007-.005-.007-.007-.005-.007-.007-.005-.007-.007-.005-.007-.007-.005-.007-.007-.005-.007-.007-.007-.005-.005-.007-.007-.007-.007-.005-.005-.007-.007-.005-.007-.007-.007-.007-.005-.005-.007-.007-.007-.005-.007-.007-.005-.007-.007-.005-.007-.007-.007-.005-.005-.007-.007-.005-.007-.007-.007-.007-.007-.005-.005-.007-.007-.005-.007-.007-.007-.005-.007-.007-.005-.005-.007-.007-.007-.005-.007-.007-.007-.005-.005-.007-.007-.005-.182-.132-.789.643-1.368-1.37-.242.23-.154.163-.204.228-.211.252-.17.214-.101-.026-.333-.089-.312-.082-.286-.077-.269-.072-.247-.065-.216-.058-.226-.06-.216-.058-.204-.053-.216-.058-.226-.06-.216-.058-.204-.055-.216-.055-.226-.06-.216-.058-.204-.055-.216-.058-.242-.062-.449-.12-.415-.11-.422-.113-.417-.11-.417-.11-.422-.113-.741-.197-.389-.103-.741-.197-.463-.122-.439-.115-.226-.062-.216-.055-.216-.058-.226-.06-.226-.06-.216-.058-.216-.058-.204-.053-.204-.055-.216-.058-.216-.058-.226-.06-.226-.06-.216-.058-.216-.055-.216-.058-.226-.06-.216-.058-.214-.058-.228-.06-.226-.06-.216-.058-.214-.058-.206-.053-.204-.055-.216-.058-.192-.05-.329-.086-.314-.084-1.85-5.147-6.625-18.408-11.095.463-5.132,2.57.149-.948.19-.749.569-.955.096-.221-.082-.434-.118-.166-.077-.247-.727-.849-.022-.228.053-.173.245-.264.341-.091.506.043.667.209.108.007.113-.043.228-.286.103-.417.12-.281.168-.247.175-.106.089.031.175.151.168.381v.13l.048.19.149.077.101-.048.072-.108.055-.401v-.583l-.161-.482-.163-1.056-.185-.389-.089-.286-.142-.17-.173-.012-.943.329-.202.144-.439.6-.324.168-.206.007-.221-.091-.228-.235-.163-.43.002-.12.055-.185.453-.681.182-.429.17-.883-.038-.312-.134-.185-.209-.154-.163-.014-.206.077-.444.379-.302.362-.166.266-.192.194-.178.118-.309.072h-.134l-.266-.094-.321-.386-.086-.326.058-.288.211-.278.415-.638.055-.228-.029-.11-.199-.158-.134-.053-.466-.31-.257-.204-.062-.127v-.322l.098-.125.158-.086.091-.151v-.086l-.038-.077-.24-.058-.326.017-.094.034-.204.125-.35.331-.216.122-.098-.022-.221-.269-.197-.372-.065-.062-.062-.274.163-.324.221-.209.302-.204.158-.199-.062-.156-.132-.007-.298.098-.602.322-.194.178-.288.154-.113-.017-.333-.276-.614-.305-.276-.228-.674-.828-.014-.156.024-.173.216-.386.482-.252.631-.209.18-.13.017-.139-.146-.238-.329-.173-.398-.142-.708.115-.302-.134-.127-.118-.749-.47-.199-.065-.353-.022-.377.214-.11-.012-.197-.17-.038-.106-.084-1.612.058-.444-.002-.041-.026-.283-.173-.494-.156-.638-.146-.799-.362-.569-.449-.509-.403-.717-.233-.108-.194.05-.295.417-.257.593-.158.288-.367.305-.53.216-.355.055-.192-.086-.101-.154-.002-.206-.142-.837.034-.6.144-.257.492-.413.777-.744.3-.192.403-.154.156-.038.146.017.43.168.23.187.223.127.11.002.103-.043.074-.079.259-.758-.142-.561-.113-.24.074-.221.098-.062.597.01.204-.108.031-.091-.091-.118-.597-.326-.216-.149-.235-.286-.091-.036-.178.053-.672.739-.082.161-.209.204-.187.082-.108-.017-.101-.098-.161-.252-.086-.283-.031-.343.05-.247-.005-.518.125-1.063.058-.166.379-.549.444-.264.578-.197.269-.199.214-.23.086-.178.05-.338-.101-.3-.098-.125-.096-.122-.25-.525-.13-.144-.233-.372-.058-.252-.132-.122-.046-.043-.312-.405-.245-.382.01-.355.118-.067.609-.067.727.074.6.151.374-.038.348-.221.202-.245.108-.274-.202-.648-.214-.314-.314-.118-.552.029-.348-.194-.422-.166-.417-.058-.139.031-.288-.022-.13-.091-.07-.134.024-.286.588-.504.199-.101.835-.278.679-.509.269-.391.014-.161-.065-.125-.194-.134-.317-.043-.497-.247-.449-.18-.386-.077-.545-.01-.23-.055-.137-.178-.074-.29-.074-.11-.065-.35.144-.552.122-.158.321-.194.341-.103.245-.24.182-.799.161-.274.134-.101.317-.115.439-.091.113-.082.199-.588-.007-.23-.166-.489-.132-.18-.737-.091-.597.091-1.027-.007-.345-.084-.192-.146-.199-.293.007-.175.245-.444.3-.146.384-.245.972-.406.607-.108.713-.077.206-.199-.046-.322-.146-.146-.278-.096-1.082-.178h-.866l-.797.146-.276-.06-.091-.108.046-.3.295-.386.269-.269.29-.122.206-.014.178-.07.29-.053.362.029.444-.084.518-.245.261-.37-.014-.266-.077-.13-.259-.132-.269-.014-.422.046-.482-.046-.559.168-.233.101-.283.046-.13-.062-.276-.338-.06-.29.029-.091.062-.792-.007-.427.161-.924-.017-.31-.046-.094-.158-.101-.122-.012-1.094.386-.384.235-.142.017-.504-.274-.043-.333.13-.374-.005-.074-.019-.365.053-.446.216-.362.077-.293-.077-.345-.127-.247-.182-.197-.252-.17-.134-.036-.187.019-.142.127-.521.334-.305.271-.046.204.103.322.19.235.029.252-.041.115-.358.146-.221-.041-.365-.163-.216-.211-.05-.25.077-.566-.252-.773-.242-1.473.01-.765-.024-.355-.065-.118-.082-.058-.434-.055-1.289.012-.139-.07-.089-.329.154-.492.139-.95.173-.609.007-.216-.185-.799.122-.264.13-.094.977-.386.24-.005.345.209.146.211.264.732.118.13.156.065.293-.142.089-.134.048-.182-.146-.66-.024-.37-.173-.657-.118-.751-.211-.134-1.495-.254-.257.012-.166.101-.127.245-.127.082-.166-.005-.158-.118-.082-.146-.036-.394.036-.451-.017-.122-.13-.204-.204-.048-.223.118-.223.293-.691.638-.209.065-.228-.106-.106-.216.031-.214.374-1.073.223-.293.305-.156.648-.226,1.058-.106.118-.06.038-.13-.022-.127-.35-.346-.6-.468-.693-.427-.106.06-1.209.657-.883.477-1.756.955-.223-.077-8.643,4.693-2.044,1.137-1.975,1.056-.358-.118-1.447-.322-1.447-.221-1.459-.101-1.536-.029-1.097.072-1.416.161-1.315.19-3.227.6-1.476.307-1.576.394-1.504.425-1.272.204-1.416.118-.996-.058-.643-.118-1.154-.468-.876-.425-.801-.511-.581-.451-.314-.398-.465-.773-.465-1.111-.425-1.375-.161-1.308.029-1.339.161-1.812.278-1.504.422-1.329.468-1.274.444-1.039.242-.566.643-1.214.797-1.207,1.744-2.299.717-1.029.729-1.224.365-.554,1.838-2.484,1.843-2.486,2.191-3.18.384-.606.413-.653.413-.775.276-.773.194-.985.118-1.249-.072-1.517-.238-1.159-.358-1.121-.559-1.205-.583-.807-.53-.805-.115-.175-1.888-3.582-.787-1.358-.789-1.081-.864-1.278-.168-.366-.381-.836-.374-1.219-.098-1.122-.017-1.211.019-.98.06-.254.065-.279.199-.522.473-.834.581-.708.674-.673.78-.654.259-.172.322-.211,1.879-.834,1.91-.768,1.003-.363.583-.177.581-.108.453-.038,3.268.328,1.869.09,4.684.328.89.036,2.577-.092,1.075-.071,1.087-.17.969-.264.669-.238.525-.307.446-.41.367-.41.398-.527.362-.727.235-.709.19-.963" vector-effect="none" fill="none" stroke="#333" stroke-linecap="square" stroke-linejoin="bevel" stroke-width=".5"/>
    <path id="elmwood" d="M405.893,181.786l6.169-10.718.262-.32,9.965,4.808.353-.728.166.08,5.953,2.876-.693,1.434.166.08.324.156.127.062.226.109.271.131.281.136.276.133.324.157.178.086.149.072.3.145.302.145.3.145.302.145.3.145.302.145.3.145.3.145.302.145.3.145.302.145.307.148.305.148.3.145.302.145.3.145.302.145.3.145.302.145.3.145.302.145.3.145.3.145.302.145.3.145.302.145.3.145.302.145.098.048.276.133.276.133.276.133.276.133.276.133.276.133.276.133.276.133.427.206.336.163.259.124,6.961-8.983,12.004,5.801,12.367,5.976,6.862-11.727.902.375-.497,1.505-.398,1.138-.326,1.236-.238,1.341-.094.999-.036.936.094,7.841-.101,1.342-.218,1.328-.333,1.304-.449,1.269-.557,1.225-.665,1.171-.763,1.108-.859,1.037-.945.957-1.027.87-2.315,4.837-2.481,5.281-.103.22-.156.336-.132.324-1.641,4.003-1.085,1.465-3.172,1.77-2.198,2.057-3.709,6.963-1.183,2.219-.552,1.214-.552,1.325-.384,1.518-.739,2.421-.108.358-.353,1.404-.734,2.295-.991,2.347-.499,2.148-37.894-9.448-.797-.119-1.013-.099-1.051-.043-1.013.016-.578.034-5.041.607-.197.024-.276-.774,1.502-6.123-.631.046-1.219-.078-1.384-.089.046-.326-.034-.635-.144-.491-.566-.89-.307-.361-.326-.309-.434-.291-.456-.255-1.396-.727-.564-.253-.653-.236-1.526-.437-.89-.31-.744-.345-1.742-.853-.648-.378-.605-.404-3.613-2.69-1.089-.777-1.192-.852-3.87-3.164-2.054-2.09-.343-.508-.509-1.072-.379-1.181-.547-2.09-.07-.529.029-2.028.103-1.098.118-.579.072-.208.137-.399.444-1.034.504-.933.545-.933.801-1.183.857-.829,1.228-.919.945-.503,1.303-.458,1.329-.401,1.552-.382,1.399-.286,1.994.963,2.107,1.017.05.024.3.146.05.024.252.121.25.121.127.061.125.06.25.121.252.121.252.121.25.121.252.121.3.145.25.12,1.375-2.776,2.558-4.465,7.033-12.285" vector-effect="none" fill="none" stroke="#333" stroke-linecap="square" stroke-linejoin="bevel" stroke-width=".5"/>
    <path id="mynarski" d="M351.549,166.509l22.825-23.049.103-.105,6.274-6.334,6.627-6.692,14.284,6.715,1.473-1.792,2.642-2.769.852-.9,5.672,2.572,1.276.579-.854,1.849-.257.886-.118.888v1.471l.163,1.429.211.725.302.789.631,1.24.701,1.521.583,1.379.281,1.074.163,1.308.026.85-.014.475-.31,1.228-.326.652-.576.725-1.435,1.316-1.169.739-1.951,1.082-.151.068-1.61.73-2.824.978-1.315.548-2.678,1.197-.902.607-.977.77-.842.874-.725.961-.679,1.242-.326.739-.341,1.155-.235,1.11-.146,1.613v1.554l.413,2.914.19.888.607,2.175.578,1.925.384,1.658.118,1.051.031,1.641-.103,1.807-.235,1.387-.046.271-.223,1.051-.521,1.521-1.447,3.034-.537.947-.734,1.079-.667.725-.974.846-1.524,1.11-.705.397-.686.387-.576.236-.504.163-.849.188-1.399.286-1.552.382-1.329.401-1.303.458-.945.503-1.228.919-.857.829-.801,1.183-.545.933-.504.933-.444,1.034-.137.399-.072.208-.118.579-.103,1.098-.029,2.028.07.529.547,2.09.379,1.181.509,1.072.343.508,2.054,2.09,3.87,3.164,1.192.852,1.089.777,3.613,2.69.605.404.648.378,1.742.853.744.345.89.31,1.526.437.653.236.564.253,1.396.727.456.255.434.291.326.309.307.361.566.89.144.491.034.635-.046.326-1.269-.115-7.081-.422-3.47-.182-1.512-.292-4.197-.892-.269-.057-4.806-1.015-.264-.056-.262-.055-3.057-.645-3.258-.629-.355-.125-1.442-.305-.36-.077v-.011l-1.826-.262-.365-.051-.365-.051-.914-.128-.914-.128.029-.214-.362-.052-.631-.293-.334-.155-.669-.312-6.025-2.808-4.163-1.884-20.858-9.677,2.757-5.918-3.335-1.555-.079.166-.166-.077-2.116-.987-.441-.206-2.102-.98-1.264-.589-1.262-.589-.861-.402-1.01-.471-1.884-.879-.247-.114-.269-.126.079-1.916,3.978-3.057,13.547,6.279.326-.704,4.427-9.425,1.797-3.829.238-.783-20.892-9.77-.175.327-5.12-2.378,8.7-18.64.377.177.127.059-.07.15-.019.042,4.825,2.26.022-.047.017-.039.05-.107.545.255.252.118.086-.165.25.119.605.283-.043.081,17.739,8.308" vector-effect="none" fill="none" stroke="#333" stroke-linecap="square" stroke-linejoin="bevel" stroke-width=".5"/>
    <path id="stvital" d="M392.246,297.951l1.975-1.056,2.044-1.137,8.643-4.693.223.077,1.756-.955.883-.477,1.209-.657.106-.06.693.427.6.468.35.346.022.127-.038.13-.118.06-1.058.106-.648.226-.305.156-.223.293-.374,1.073-.031.214.106.216.228.106.209-.065.691-.638.223-.293.223-.118.204.048.13.204.017.122-.036.451.036.394.082.146.158.118.166.005.127-.082.127-.245.166-.101.257-.012,1.495.254.211.134.118.751.173.657.024.37.146.66-.048.182-.089.134-.293.142-.156-.065-.118-.13-.264-.732-.146-.211-.345-.209-.24.005-.977.386-.13.094-.122.264.185.799-.007.216-.173.609-.139.95-.154.492.089.329.139.07,1.289-.012.434.055.082.058.065.118.024.355-.01.765.242,1.473.252.773-.077.566.05.25.216.211.365.163.221.041.358-.146.041-.115-.029-.252-.19-.235-.103-.322.046-.204.305-.271.521-.334.142-.127.187-.019.134.036.252.17.182.197.127.247.077.345-.077.293-.216.362-.053.446.019.365.005.074-.13.374.043.333.504.274.142-.017.384-.235,1.094-.386.122.012.158.101.046.094.017.31-.161.924.007.427-.062.792-.029.091.06.29.276.338.13.062.283-.046.233-.101.559-.168.482.046.422-.046.269.014.259.132.077.13.014.266-.261.37-.518.245-.444.084-.362-.029-.29.053-.178.07-.206.014-.29.122-.269.269-.295.386-.046.3.091.108.276.06.797-.146h.866l1.082.178.278.096.146.146.046.322-.206.199-.713.077-.607.108-.972.406-.384.245-.3.146-.245.444-.007.175.199.293.192.146.345.084,1.027.007.597-.091.737.091.132.18.166.489.007.23-.199.588-.113.082-.439.091-.317.115-.134.101-.161.274-.182.799-.245.24-.341.103-.321.194-.122.158-.144.552.065.35.074.11.074.29.137.178.23.055.545.01.386.077.449.18.497.247.317.043.194.134.065.125-.014.161-.269.391-.679.509-.835.278-.199.101-.588.504-.024.286.07.134.13.091.288.022.139-.031.417.058.422.166.348.194.552-.029.314.118.214.314.202.648-.108.274-.202.245-.348.221-.374.038-.6-.151-.727-.074-.609.067-.118.067-.01.355.245.382.312.405.046.043.132.122.058.252.233.372.13.144.25.525.096.122.098.125.101.3-.05.338-.086.178-.214.23-.269.199-.578.197-.444.264-.379.549-.058.166-.125,1.063.005.518-.05.247.031.343.086.283.161.252.101.098.108.017.187-.082.209-.204.082-.161.672-.739.178-.053.091.036.235.286.216.149.597.326.091.118-.031.091-.204.108-.597-.01-.098.062-.074.221.113.24.142.561-.259.758-.074.079-.103.043-.11-.002-.223-.127-.23-.187-.43-.168-.146-.017-.156.038-.403.154-.3.192-.777.744-.492.413-.144.257-.034.6.142.837.002.206.101.154.192.086.355-.055.53-.216.367-.305.158-.288.257-.593.295-.417.194-.05.233.108.403.717.449.509.362.569.146.799.156.638.173.494.026.283.002.041-.058.444.084,1.612.038.106.197.17.11.012.377-.214.353.022.199.065.749.47.127.118.302.134.708-.115.398.142.329.173.146.238-.017.139-.18.13-.631.209-.482.252-.216.386-.024.173.014.156.674.828.276.228.614.305.333.276.113.017.288-.154.194-.178.602-.322.298-.098.132.007.062.156-.158.199-.302.204-.221.209-.163.324.062.274.065.062.197.372.221.269.098.022.216-.122.35-.331.204-.125.094-.034.326-.017.24.058.038.077v.086l-.091.151-.158.086-.098.125v.322l.062.127.257.204.466.31.134.053.199.158.029.11-.055.228-.415.638-.211.278-.058.288.086.326.321.386.266.094h.134l.309-.072.178-.118.192-.194.166-.266.302-.362.444-.379.206-.077.163.014.209.154.134.185.038.312-.17.883-.182.429-.453.681-.055.185-.002.12.163.43.228.235.221.091.206-.007.324-.168.439-.6.202-.144.943-.329.173.012.142.17.089.286.185.389.163,1.056.161.482v.583l-.055.401-.072.108-.101.048-.149-.077-.048-.19v-.13l-.168-.381-.175-.151-.089-.031-.175.106-.168.247-.12.281-.103.417-.228.286-.113.043-.108-.007-.667-.209-.506-.043-.341.091-.245.264-.053.173.022.228.727.849.077.247.118.166.082.434-.096.221-.569.955-.19.749-.149.948,5.132-2.57,11.095-.463,6.625,18.408,1.85,5.147.314.084.329.086.192.05.216.058.204.055.206.053.214.058.216.058.226.06.228.06.214.058.216.058.226.06.216.058.216.055.216.058.226.06.226.06.216.058.216.058.204.055.204.053.216.058.216.058.226.06.226.06.216.058.216.055.226.062.439.115.463.122.741.197.389.103.741.197.422.113.417.11.417.11.422.113.415.11.449.12.242.062.216.058.204.055.216.058.226.06.216.055.204.055.216.058.226.06.216.058.204.053.216.058.226.06.216.058.247.065.269.072.286.077.312.082.333.089.101.026.17-.214.211-.252.204-.228.154-.163.242-.23,1.368,1.37.789-.643.182.132.007.005.005.007.007.005.007.007.007.005.007.007.005.005.007.007.007.005.007.007.007.005.005.007.007.005.007.007.007.007.007.005.005.007.007.005.007.007.007.005.005.007.007.007.007.005.007.007.005.005.007.007.007.007.007.005.005.007.007.005.007.007.005.007.007.005.007.007.007.005.005.007.007.007.007.005.005.007.007.007.007.005.005.007.007.007.007.005.005.007.007.007.007.005.005.007.007.007.007.005.005.007.007.007.005.005.007.007.007.007.005.007.007.005.007.007.005.007.007.005.005.007.007.007.007.007.005.007.007.005.007.007.005.007.007.007.005.005.007.007.005.007.007.007.007.007.005.005.007.007.005.007.007.007.005.007.007.005.007.007.005.007.007.007.005.007.007.007.005.005.007.007.005.007.007.007.005.007.007.007.005.007.007.005.005.007.007.007.005.007.007.007.005.007.007.007.005.007.007.005.005.007.005.007.007.007.005.007.007.007.005.007.007.007.005.007.007.007.005.007.005.007.007.007.005.007.007.007.005.005.005.007.007.007.005.007.007.007.005.007.005.007.007.007.005.007.007.007.005.007.005.007.007.007.005.007.005.007.007.007.005.007.005.01.007.007.005.007.005.007.007.007.005.007.005.007.007.007.005.007.005.007.005.007.007.007.005.007.005.007.007.007.005.007.005.007.005.007.007.007.005.007.005.007.005.007.005.01.007.007.005.007.005.007.005.007.005.007.007.007.005.007.005.007.005.007.005.007.007.01.005.007.005.007.005.007.005.007.005.007.007.007.005.007.005.01.005.007.005.007.005.007.005.007.005.007.007.01.005.007.005.007.005.007.005.007.005.007.005.007.005.01.005.007.005.007.005.007.005.007.005.007.005.01.005.007.005.007.007.007.005.007.005.01.005.007.005.007.005.007.005.007.005.01.005.007.005.007.002.007.005.007.283.533.29.674,1.404-.681.384.101.264.07.214.058.216.058.216.058.216.058.343.091.571.151.554.146.185.05,1.094.29-.809-31.72-.007-.463.619-.017,3.234-.084,4.115-.108,4.844-.125,2.505-.067,7.352-.192,7.349-.192.367-.01.801,28.457.223,8.05.379.101,1.118.295-.139.597-1.833.499-3.465,1.538-22.418,12.666-17.885,10.26-.245.142-.242.139-6.21,3.563-.362-1.154-.005-.094-.132-.221-.137-.192-.398-.42-.202-.12-.11-.113-.05-.12-.017-.206.096-.264-.005-.175-.134-.24-.139-.154-.122-.11-.142-.115-.113-.084-.082-.154-.065-.146-.014-.137-.012-.103-.002-.029-.005-.06-.058-.118-.108-.103-.137-.077-.175-.065-.106-.019-.07-.012-.142.017-.168.13-.163.187-.146.149-.149.091-.156.05-.122-.058-.118-.122-.046-.168-.012-.175.065-.166.031-.046.084-.118.082-.115.084-.118.082-.115.098-.115.084-.096.082-.058.142-.065.182-.11.096-.07.072-.091.05-.108.022-.149-.022-.122-.089-.084-.142-.142-.144-.118-.161-.084-.173-.005h-.098l-.13.05-.214.156-.206.127-.194.077-.146.007-.022-.007-.11-.043-.062-.096v-.091l.055-.096.079-.072.103-.07.175-.098.149-.077.134-.142.091-.122.077-.142.06-.134.019-.13v-.154l-.034-.144-.046-.161-.065-.18-.031-.098-.026-.096-.048-.274.031-.238.173-.151.348-.113.254-.12.086-.166-.031-.202-.146-.151-.271-.154-.66-.11-.281-.094-.216.007-.18.089-.235.202-.602.334-.835.564-.626.264-.739.458-.254.113-.437.084-.197-.022-.079-.079-.089-.269-.098-.535-.084-.381.022-.391.214-.564.25-.453.144-.108.18-.002.35.022.326.142.218.25.161.005.151-.084.048-.19-.151-.945-.362-.597-.038-.42.156-.619-.05-.206-.295-.278-.415-.48-.497-.394-.367-.681-.377-.542-.18-.185-.154-.062-.144.031-.18.202-.233.29-.058.242.065.53.072.206.202.331.062.175-.031.115-.074.091-.154.079h-.161l-.288-.106-.47-.086-.413-.13-.521-.348-.245-.214-.18-.187-.197-.25v-.163l.444-.509.137-.396-.065-.787-.036-.122-.096-.106-.115-.048-.271.031-.216.079-.202.228-.12.29-.091.756-.115.379-.132.362-.17.269-.137.096-.264.043-.175-.108-.12-.242-.07-.245.038-.283-.017-.307.005-.254.058-.333.271-.518.058-.379-.053-.492-.096-.295-.115-.209-.317-.132-.18-.168-.048-.374.029-.098.079-.096.211-.106h.343l.254-.074.07-.11-.084-.223-.549-.278-.293-.065-.18.079-.29.211-.238.017-.11-.058-.07-.122.026-.36.139-.281.19-.19.115-.053.302-.031.137.026.122-.017.07-.084.014-.127-.031-.12-.146-.158-.23-.175-.264-.106-.259-.038-.168.048-.089.074-.235.444-.094.518-.233.206-.142.022-.228-.206-.149-.355-.041-.422.058-.59.055-.125.271-.19.602-.175.463-.082.307-.187.062-.106-.005-.12-.058-.163-.48-.48-.54-.446-.048-.125.055-.276.295-.521.094-.331-.055-.202-.202-.264-.238-.137-.338-.07-.322.07-1.157.103-.35.007-.785.125-1.353.463-.156-.012-.175-.07-.101-.094-.05-.182.031-.214.089-.149.046-.166.091-.319.144-.362.094-.571.578-1.135.307-.42.245-.252.187-.264.012-.156-.05-.125-.098-.089-.293-.091-.331-.019-.271.096-.238.18-1.233.653-.202.05-.182-.036-.137-.089-.182-.276-.101-.37.103-.557.077-.144.343-.444.54-1.123.089-.245.3-.427.249-.533.139-.47.194-.358.106-.326.283-.444.074-.206.041-.367-.038-.158-.389-.525-.149-.132-.206-.062-.221.017-.312.108-.473.314-.274.106-.113-.031-.108-.326.151-.439.573-.442.144-.218.026-.146-.026-.156-.05-.106-.194-.19-.214-.106-.055-.12-.005-.122-.158.091-.317.18-.089.05-.098.055-.861.489-.71.403-.36.206-.984.559-.259.146-.132-.36-13.828,7.851-1.056.329-3.352.295-.773.18-1.281.727-8.758,4.981-.542.254-.684.122-.677-.002-.449-.082-.216-.06-2.104-.578-.542-.05-.516.074-.638.317-1.336.765-8.019,4.564-.669.228-1.332-.252-.938-.089-1.065.017-2.951.274.022.23.031.333.05.549.012.118.3.537.597,1.07-.629.345-1.466,1.01-2.433,1.934-2.445,2.066-1.38.953-1.785.878-1.267.501-.885.235-.972.077-1.605-.048-1.483-.103-.432-.082-1.915-.557-1.372-.578-1.2-1.041-.828-.849-.458-.818-.518-1.281-.322-1.327-.146-1.19-.166-3.146-.108-1.37-.18-1.533-.269-1.464-.59-2.207-.175-.609-.343-.83-.545-.986-.871-1.279-1.9-2.678-1.809-2.699-1.286-2.107-.547-1.298-.341-1.094-.182-.924v-.991l.046-.933.25-1.195.293-.912.437-.809.477-.65.547-.456.593-.341,1.046-.389,1.257-.262,1.255-.103.996.067,1.01.218,2.039.513,1.466.477.981.262,1.49.269,1.538.178,1.159.022,1.262-.262,1.13-.523,1.147-.777.957-.967.477-.667.372-.686.288-.902.161-1.389-.067-.991-.286-.991-.559-1.252-.226-.422-.535-1.001-.741-1.106-.66-.797-.989-1.049-2.678-2.62-.965-.984-.609-.849-.348-.9-.216-1.14-.007-.6.041-.653.329-1.046.408-.801.595-.71.42-.307.331-.245,1.531-.638.547-.137.813-.101,1.252.012,1.32.125,1.274.228,1.113.377.914.408,1.216.741,1.399.751.801.394,1.001.396.974.31.924.166.739.103,1.082-.012.797-.125.809-.307.672-.422.569-.501.602-.729.477-.66.401-.854.281-.981.084-.933-.055-.989-.242-.95-.475-1.082-.485-.895-.475-.787-.43-.648-.485-.595-.485-.535-.547-.492-2.951-2.438-1.732-1.502-2.985-2.392-1.209-.924-1.293-.866-1.092-.588-1.013-.391-.895-.247-.811-.137-.756-.07-.763-.012-.811.046-.806.118-.893.262-.962.442-1.212.741-3.661,2.452-.669.37-.684.3-.9.293-1.171.235-.425.007-.358-.048-.158-.022-.513-.12-.811-.394-.636-.509-.413-.624-.235-.753-.079-.801.134-.857.326-.89.446-.825.098-.108.506-.569,1.334-1.005.729-.396.741-.345,1.212-.413,1.279-.386.425-.103,1.156-.281,1.305-.204,1.293-.154,1.363-.084,1.5-.026,1.348.012,1.72-.055,1.209-.082,1.073-.122,1.017-.223,1.073-.3,1.401-.441,1.514-.552.324-.134,3.561-1.476,1.272-.657,1.238-.792,2.133-1.454.965-.773,1.812-1.744.758-.854.576-.77.552-.825,1.814-3.246.461-.984.42-1.137.655-2.018.938-2.644.29-1.034.137-.674.06-.667.024-2.205-.187-1.288-.382-1.243-.461-.996-.629-1.037-.804-.809-.629-.485-1.14-.578-1.101-.365" vector-effect="none" fill="none" stroke="#333" stroke-linecap="square" stroke-linejoin="bevel" stroke-width=".5"/>
    <path id="transcona" d="M481.249,177.465l2.445-4.375,26.029-.143.007.343.067,4.055.012.724.024,1.471.007.368.05,2.941.005.368.05,2.942.005.368.029,1.607.012.694.005.364.002.197.022,1.187.053,3.203.036,2.024.029,1.746.005.279.034,2.042.05,2.939.415-.007,2.222-.038,12.064-.209.655-.011.653-.011.655-.011.655-.011,6.591-.113,3.897-.067,1.591-.027.554-.01.454-.008,1.214-.023,3.052-.057.278-.005,1.526-.029.6-.011.369-.007.278-.005.278-.005.278-.005.278-.005.278-.005.278-.005.278-.005.278-.005.278-.005.278-.005.278-.005.278-.005.278-.005.281-.005.278-.005.278-.005.278-.005.278-.005.278-.005.278-.005.367-.007,1.281-.024.142-.003.377-.007,14.185-.261.549-.008,2.872-.042,11.937-.176,2.181-.033,5.679,15.136,5.483,14.609.206.548.422,1.13,1.245,3.319.617,1.644.883,22.427.05,1.282-15.008.402-.274.007-.276.007-16.678.44.115,4.194.298,10.887.413,15.176-15.26.398-15.191.394-29.63.797.408,14.538.259,9.274.091,3.254.005.199.019.655.084,3.042.053,1.723.758,26.892.01.365.029,1.113-.367.01-7.349.192-7.352.192-2.505.067-4.844.125-4.115.108-3.234.084-.619.017.108-1.761-.36-12.796-.454-16.206.276-.007-.065-1.073-.192-2.09-.322-.929-.528-.883-1.005-.905-.893-.607-.917-.528-.813-.331-4.72-.895-7.832-7.46-12.083-13.976-.305-.35-.137-4.962-.852.024-.077-4.926-.017-.655-.019-.662-.353-10.645.019-1.464-.017-.603-.173-6.08-.262-6.674.307-3.547.876-6.561.499-2.148.991-2.347.734-2.295.353-1.404.108-.358.739-2.421.384-1.518.552-1.325.552-1.214,1.183-2.219,3.709-6.963,2.198-2.057,3.172-1.77,1.085-1.465,1.641-4.003.132-.324.156-.336.103-.22,2.481-5.281,2.315-4.837,1.027-.87.945-.957.859-1.037.763-1.108.665-1.171.557-1.225.449-1.269.333-1.304.218-1.328.101-1.342-.094-7.841.036-.936.094-.999.238-1.341.326-1.236.398-1.138.497-1.505" vector-effect="none" fill="none" stroke="#333" stroke-linecap="square" stroke-linejoin="bevel" stroke-width=".5"/>
    <path id="northkildonan" d="M419.198,98.223l.238.156.01-.011.12.078,7.846,5.168,5.053,3.316.317.207.317.207,4.177,2.742,6.205,4.073,1.399.918.516-.824.552-1.049,1.063-1.882,1.291-2.138,1.461.953,1.336.872.139.09.35.228,1.274.828.233.154.233.154.614.401.274.178.326.213.47.307.47.306.653.426,27.401,17.869.23.151.233.151.312.203,1.276.834,1.37.893,1.37.893.094.062.458.298.298.194.487.319.031.02.437.285.468.304.465.304,1.37.893,1.37.893,1.37.893,1.368.893,1.298.846.897.585.895.585,1.284.836,1.168.76,8.559,5.575.525.343.542.352.535.35.537.35.542.353.54.353.537.35.537.35.537.351.54.351.537.351.465.304.468.304.681.444.537.351.54.351.537.351.537.35.537.35.54.353,1.615,1.052,7.678,5,.931.607,1.015.662,1.125.732,1.843,1.2,4.499,2.93,4.652,3.031,1.032.672-1.219.02-1.25.02-3.642.06-.552.009-3.899.06-6.018.092-4.78.073-.185.003-.19.003-.139.002-.139.002-.139.002-.139.002-.139.002-.139.002-.139.002-.139.002-.139.002-.139.002-.139.002-.142.002-.139.002-.139.002-.139.002-.367.006-.139.002-.139.002-.139.002-.139.002-.139.002-.139.002-.139.002-.139.002-.139.002-.139.002-.139.002-.139.002-.139.002-.139.002-.139.002-.139.002-.139.002-.139.002-.142.002-.139.002-.139.002-.139.002-.139.002-.139.002-.139.002-.139.002-.139.002-.139.002-.139.002-.139.002-.122.002-.35.005-.185.003-.182.003-.185.003-.185.003-.182.003-.185.003-.185.003-.182.003-.197.003-2.954.047-1.022.016-1.576.025-.007-.343-26.029.143-2.445,4.375-.902-.375-6.862,11.727-12.367-5.976-12.004-5.801-6.961,8.983-.259-.124-.336-.163-.427-.206-.276-.133-.276-.133-.276-.133-.276-.133-.276-.133-.276-.133-.276-.133-.276-.133-.098-.048-.302-.145-.3-.145-.302-.145-.3-.145-.302-.145-.3-.145-.3-.145-.302-.145-.3-.145-.302-.145-.3-.145-.302-.145-.3-.145-.302-.145-.3-.145-.305-.148-.307-.148-.302-.145-.3-.145-.302-.145-.3-.145-.3-.145-.302-.145-.3-.145-.302-.145-.3-.145-.302-.145-.3-.145-.149-.072-.178-.086-.324-.157-.276-.133-.281-.136-.271-.131-.226-.109-.127-.062-.324-.156-.166-.08.693-1.434-5.953-2.876-.166-.08-.353.728-9.965-4.808-.262.32-6.169,10.718-7.033,12.285-2.558,4.465-1.375,2.776-.25-.12-.3-.145-.252-.121-.25-.121-.252-.121-.252-.121-.25-.121-.125-.06-.127-.061-.25-.121-.252-.121-.05-.024-.3-.146-.05-.024-2.107-1.017-1.994-.963.849-.188.504-.163.576-.236.686-.387.705-.397,1.524-1.11.974-.846.667-.725.734-1.079.537-.947,1.447-3.034.521-1.521.223-1.051.046-.271.235-1.387.103-1.807-.031-1.641-.118-1.051-.384-1.658-.578-1.925-.607-2.175-.19-.888-.413-2.914v-1.554l.146-1.613.235-1.11.341-1.155.326-.739.679-1.242.725-.961.842-.874.977-.77.902-.607,2.678-1.197,1.315-.548,2.824-.978,1.61-.73.151-.068,1.951-1.082,1.169-.739,1.435-1.316.576-.725.326-.652.31-1.228.014-.475-.026-.85-.163-1.308-.281-1.074-.583-1.379-.701-1.521-.631-1.24-.302-.789-.211-.725-.163-1.429v-1.471l.118-.888.257-.886.854-1.849-1.276-.579-5.672-2.572-.852.9-.386-.182-.053-.025-.552-.26-5.562-2.616-.331-.156-.989-.464-.708-.334-5.144-2.42-.269-.126,6.538-6.622,20.875-21.054" vector-effect="none" fill="none" stroke="#333" stroke-linecap="square" stroke-linejoin="bevel" stroke-width=".5"/>
    <path id="charleswood" d="M115.959,279.934l.5,4.595,12.462-2.596,7.769-1.629,10.576-2.104,5.955,1.298,6.63,1.449,17.856,3.889.645.218-.019.377-.362,7.186.859.043,1.641.082.139.007-.041.348-.074.355-.084.334-.036.307-.355,7.066-.139-.007-.127-.007-.014.278-2.203-.106-.209,4.105.984.389.427-.626.545-.501.298-.139.497-.228.859-.142.667.022.78.089,1.761.549,1.109.218,1.145-.024.741-.137,1.396-.47,1.248-.626.955-.705,1.25-1.003,1.36-.837,1.456-.763.914-.377.542-.134.322-.079.425-.024.497-.029,1.488-.012.283.024,1.238.101,1.567.221,1.497.101.744-.091.777-.286,2.769-1.329,1.533-.595,1.324-.401,1.142-.453,1.238-.633.453-.19,2.212-.518,1.2-.358.595-.101.396.017.703.029,1.269.127,1.075.07.765-.082.631-.202.022-.007.422-.298.823-.969.482-.681.194-.166.262-.127.31-.058.629.012,2.462.31.353.012,1.145-.242,1.233-.353,2.462-.866,1.178-.266,1.348-.07,1.572.031,1.672.084,1.476-.029.981-.096.984.07.756.185.046.012,1.432.547,1.49.633.897.338.972.504,1.377.787,1.516.789.969.547.446.125,1.166.115,1.169-.014.897-.127,1.236-.394.108-.041.869-.324,3.172-1.097,1.576-.381,1.053-.209.715-.014,1.082.182.842.185,2.267.789.696.134.59-.038.593-.185.602-.31.394-.406.252-.437.142-.449-.043-1.015-.194-1.939.084-.535.336-.59.561-.521.643-.305.638-.158.629-.014.943.072,1.25.211.885.026.715-.07.257-.07.262.578.665,1.466-3.518,6.142-.247,6.68-.408,11.006-.525,14.094-.254,6.951-.47,12.642,10.665-1.802,3.525-.6-.034,1.233-.067.993-.125.984-.055.281-.053.271-.3,1.281-2.224,7.282-9.302,30.432-.314,1.025,2.814,2.901,1.104,1.708,4.089,7.395-7.69,4.285-3.275,1.783-1.711.948-11.208,6.207-2.008,1.358-1.228.026-1.188.024-1.732.034-.506.012-.83.017-2.003.041-.163.002-.346.007-.331.007-1.185.024-2.38.048-.974.019-4.612.094-25.422.506.101,4.146-30.04.569.089,3.678-30.048.581.103,3.664-18.178.358-20.004.374-27.309.492.019-.552.17-4.852.64-18.281.64-18.281.536-15.315,1.092-.098.982-.089,1.227-.11,2.026-.182.185-.017.185-.017,2.026-.182,2.214-.199,2.214-.202,2.214-.199,2.214-.199,2.208-.199,1.569-.142.64-.058,2.207-.199,1.134-.101.966-.086,2.637-.238.082-1.816.012-.278.012-.278.745-16.534.012-.278.013-.278.657-14.521.01-1.051-.064-1.049-.138-1.039-3.291-19.498-.011-.067-.775-4.59-.137-.811-1.682.689-1.006.509-1.417.557-2.22.677-1.242.453-1.407.569-1.256.557-1.235.643-1.119.626-1.133.516-1.084.372-1.387.408.032-.773.058-1.399.023-.545.029-.701.061-1.464.037-.893.006-.146.014-.329.011-.274.028-.674.012-.3.011-.266.011-.266.018-.432.018-.444.037-.902.037-.902.037-.902.053-1.267.012-.278.037-.902.037-.902.037-.902.037-.9.037-.902.037-.902.053-1.269.012-.278.037-.902.037-.9.037-.902.037-.902.037-.902.037-.9.025-.609.004-.094.035-.835.032-.763-7.739,1.624,1.692-40.418,8.987-.509,4.492-.253,2.249-.127.989-.056,8.034-.453-.015.857-.021.5-.727,17.321v.009s0,.009,0,.009v.009s0,.009,0,.009v.009s0,.009,0,.009v.009s0,.009,0,.009v.009s0,.009,0,.009v.009s0,.009,0,.009v.009s0,.009,0,.009v.009s-.001.009-.001.009v.009s0,.009,0,.009v.009s-.001.009-.001.009v.009s-.001.009-.001.009v.009s-.001.009-.001.009v.009s-.001.009-.001.009v.009s-.001.009-.001.009v.009s-.001.009-.001.009v.009s-.001.009-.001.009v.009s-.001.009-.001.009v.009s-.001.009-.001.009v.009s-.001.009-.001.009v.009s-.001.009-.001.009v.009s-.001.009-.001.009v.009s-.002.009-.002.009v.009s-.002.009-.002.009v.009s-.001.009-.001.009v.009s-.002.009-.002.009v.009s-.002.009-.002.009v.009s-.002.009-.002.009v.009s-.002.009-.002.009v.009s-.002.009-.002.009v.009s-.002.009-.002.009v.009s-.002.009-.002.009v.009s-.002.009-.002.009v.009s-.002.009-.002.009v.009s-.002.009-.002.009v.009s-.002.009-.002.009v.009s-.002.009-.002.009v.009s-.002.009-.002.009v.009s-.002.009-.002.009v.009s-.002.009-.002.009v.009s-.002.009-.002.009v.009s-.002.009-.002.009v.009s-.002.009-.002.009v.009s-.002.009-.002.009v.009s-.002.009-.002.009v.009s-.002.009-.002.009v.009s-.002.009-.002.009v.009s-.002.009-.002.009v.009s-.002.009-.002.009v.009s-.003.009-.003.009v.009s-.003.009-.003.009v.009s-.002.009-.002.009v.009s-.003.009-.003.009v.009s-.003.009-.003.009v.009s-.003.009-.003.009v.009s-.003.009-.003.009v.009s-.003.009-.003.009v.009s-.003.009-.003.009v.009s-.003.009-.003.009v.009s-.003.009-.003.009v.009s-.003.009-.003.009v.009s-.003.009-.003.009v.009s-.003.009-.003.009v.009s-.003.009-.003.009l-.002.009v.009s-.003.009-.003.009l-.002.009v.009s-.003.009-.003.009l-.002.009v.009s-.003.009-.003.009l-.002.009v.009s-.003.009-.003.009l-.002.009-.002.009-.002.009-.002.009-.002.009-.002.009-.002.009-.002.009-.002.009-.002.009-.002.009-.002.009-.002.009-.002.009-.002.009-.002.009-.002.009-.002.009-.002.009-.002.009-.002.009-.002.009-.002.009-.002.009-.002.009-.002.009-.002.009-.002.009-.002.009-.002.009-.002.009-.002.009-.002.009-.002.009-.002.009-.002.009-.002.009-.002.009-.002.009-.002.009-.002.009-.002.009-.002.009-.002.009-.002.009-.002.009-.002.009-.002.009-.002.009-.002.009-.002.009-.002.009-.002.009-.002.009-.002.009-.002.009-.002.009-.002.009-.002.009-.002.009-.002.009-.002.009-.002.009-.002.009-.002.009-.002.009-.002.009-.002.009-.002.009-.002.009-.002.009-.002.009-.002.009-.002.009-.002.009-.002.009-.002.009-.002.009-.002.009-.002.009-.002.009-.002.009-.002.009-.002.009-.002.009-.002.009-.002.009-.002.009-.002.009-.002.009-.002.009-.002.009-.002.009-.003.009-.002.009-.002.009-.002.009-.003.009-.002.009-.003.009-.002.009-.003.009-.002.009-.003.009-.003.009-.002.009-.003.009-.003.009-.003.009-.002.009-.003.009-.003.009-.003.009-.003.009-.003.009-.003.009-.003.009-.003.009-.003.009-.003.009-.003.009-.003.009-.003.009-.003.009-.003.009-.003.009-.003.009-.003.009-.003.009-.003.009-.003.009-.003.009-.003.009-.003.009-.003.009-.003.009-.003.009-.003.009-.003.009-.003.009-.003.009-.003.009-.003.009-.003.009-.003.009-.003.009-.003.009-.003.009-.003.009-.003.009-.003.009-.003.009-.003.009-.003.009-.003.009-.003.009-.003.009-.003.009-.003.009-.003.009-.003.009-.003.009-.003.009-.003.009-.003.009-.003.009-.003.009-.003.009-.003.009-.003.009-.003.009-.003.009-.003.009-.003.009-.003.009-.003.009-.003.009-.003.009-.003.009-.003.009-.003.009-.003.009-.003.009-.003.009-.003.009-.003.009-.003.009-.003.009-.003.009-.003.009-.003.009-.003.009-.003.009-.003.009-.003.009-.003.009-.003.009-.003.009-.003.009-.003.009-.004.009-.003.009-.003.009-.003.009-.003.009-.003.009-.004.009-.003.009-.003.009-.004.009-.003.009-.004.009-.003.009-.004.008-.003.009-.004.009-.004.009-.003.009-.004.009-.004.009-.003.009-1.144,2.77v.003s-.002.003-.002.003v.003s-.003.003-.003.003v.003s-.002.003-.002.003v.003s-.002.003-.002.003v.003s-.003.003-.003.003v.003s-.002.003-.002.003v.003s-.003.003-.003.003v.003s-.002.003-.002.003v.003s-.002.003-.002.003v.003s-.003.003-.003.003v.003s-.002.003-.002.003v.003s-.002.003-.002.003v.003s-.002.003-.002.003v.003s-.003.003-.003.003v.003s-.002.003-.002.003v.003s-.002.003-.002.003v.003s-.002.003-.002.003v.003s-.003.003-.003.003v.003s-.002.003-.002.003v.003s-.002.003-.002.003v.003s-.002.003-.002.003v.003s-.002.003-.002.003v.003s-.003.003-.003.003v.003s-.002.003-.002.003v.003s-.002.003-.002.003v.003s-.002.003-.002.003v.003s-.002.003-.002.003v.003s-.002.003-.002.003v.003s-.002.003-.002.003v.003s-.002.003-.002.003v.003s-.002.003-.002.003v.003s-.002.003-.002.003v.003s-.002.003-.002.003v.003s-.002.003-.002.003v.003s-.002.003-.002.003v.003s-.002.003-.002.003v.003s-.002.003-.002.003v.003s-.002.003-.002.003v.003s-.002.003-.002.003v.003s-.002.003-.002.003v.003s-.002.003-.002.003v.003s-.002.003-.002.003v.003s-.002.003-.002.003v.003s-.002.003-.002.003v.003s-.002.003-.002.003v.003s-.002.003-.002.003v.003s-.002.003-.002.003v.003s-.002.003-.002.003v.003s-.002.003-.002.003v.003s-.002.003-.002.003v.003s-.002.003-.002.003v.003s-.002.003-.002.003v.003s-.002.003-.002.003v.003s-.002.003-.002.003v.003s-.002.003-.002.003v.003s-.002.003-.002.003v.003s-.002.003-.002.003v.003s-.002.003-.002.003v.003s-.002.003-.002.003v.003s-.002.003-.002.003v.003s-.002.003-.002.003v.003s-.002.003-.002.003v.003s-.002.003-.002.003v.003s-.002.003-.002.003v.003s-.002.003-.002.003v.003s-.002.003-.002.003v.003s-.002.003-.002.003v.003s-.002.003-.002.003v.003s-.002.003-.002.003v.003s-.002.003-.002.003v.003s-.002.003-.002.003v.003s-.002.003-.002.003v.003s-.002.003-.002.003v.003s-.002.003-.002.003v.003s-.002.003-.002.003v.003s-.002.003-.002.003v.003s-.002.003-.002.003v.003s-.002.003-.002.003v.003s-.002.003-.002.003v.003s-.002.003-.002.003v.003s-.002.003-.002.003v.003s-.002.003-.002.003v.003s-.002.003-.002.003v.003s-.002.003-.002.003v.003s-.002.003-.002.003v.003s-.002.003-.002.003v.003s-.002.003-.002.003v.003s-.002.003-.002.003v.003s-.002.003-.002.003v.003s-.002.003-.002.003v.003s-.002.003-.002.003v.003s-.002.003-.002.003v.003s-.002.003-.002.003v.003s-.002.003-.002.003v.003s-.002.003-.002.003v.003s-.002.003-.002.003v.003s-.002.003-.002.003v.003s-.002.003-.002.003v.003s-.002.003-.002.003v.003s-.002.003-.002.003v.003s-.002.003-.002.003v.003s-.002.003-.002.003v.003s-.002.003-.002.003v.003s-.002.003-.002.003v.003s-.002.003-.002.003v.003s-.002.003-.002.003v.003s-.002.003-.002.003v.003s-.002.003-.002.003v.003s-.002.003-.002.003v.003s-.002.003-.002.003v.003s-.002.003-.002.003v.003s-.002.003-.002.003v.003s-.002.003-.002.003v.003s-.002.003-.002.003v.003s-.002.003-.002.003v.003s-.002.003-.002.003v.003s-.002.003-.002.003v.003s-.002.003-.002.003v.003s-.002.003-.002.003v.003s-.002.003-.002.003v.003s-.002.003-.002.003v.003s-.002.003-.002.003v.003s-.002.003-.002.003v.003s-.002.003-.002.003v.003s-.002.003-.002.003v.003s-.002.003-.002.003v.003s-.002.003-.002.003v.003s-.002.003-.002.003v.003s-.002.003-.002.003v.003s-.002.003-.002.003v.003s-.002.003-.002.003v.003s-.002.003-.002.003v.003s-.002.003-.002.003v.003s-.002.003-.002.003v.003s-.002.003-.002.003v.003s-.002.003-.002.003v.003s-.002.003-.002.003v.003s-.002.003-.002.003v.003s-.002.003-.002.003v.003s-.002.003-.002.003v.003s-.002.003-.002.003v.003s-.002.003-.002.003v.003s-.002.003-.002.003v.003s-.002.003-.002.003v.003s-.002.003-.002.003v.003s-.002.003-.002.003v.003s-.002.003-.002.003v.003s-.002.003-.002.003v.003s-.002.003-.002.003v.003s-.002.003-.002.003v.003s-.002.003-.002.003v.003s-.002.003-.002.003v.003s-.002.003-.002.003v.003s-.002.003-.002.003v.003s-.002.003-.002.003v.003s-.002.003-.002.003v.003s-.002.003-.002.003v.003s-.002.003-.002.003v.003s-.002.003-.002.003v.003s-.002.003-.002.003v.003s-.002.003-.002.003v.003s-.002.003-.002.003v.003s-.002.003-.002.003v.003s-.002.003-.002.003v.003s-.002.003-.002.003v.003s-.002.003-.002.003v.003s-.002.003-.002.003v.003s-.002.003-.002.003v.003s-.002.003-.002.003v.003s-.002.003-.002.003v.003s-.002.003-.002.003v.003s-.002.003-.002.003v.003s-.002.003-.002.003v.003s-.002.003-.002.003v.003s-.002.003-.002.003v.003s-.002.003-.002.003v.003s-.002.003-.002.003v.003s-.002.003-.002.003v.003s-.002.003-.002.003v.003s-.003.005-.003.005v.005s-.003.005-.003.005l-.002.005v.005s-.003.005-.003.005l-.002.005v.005s-.003.005-.003.005v.005s-.003.005-.003.005v.005s-.003.005-.003.005v.005s-.003.005-.003.005l-.002.005v.005s-.003.005-.003.005v.005s-.003.005-.003.005l-.002.005v.005s-.003.005-.003.005v.005s-.003.005-.003.005v.005s-.003.005-.003.005l-.002.005v.005s-.003.005-.003.005v.005s-.003.005-.003.005v.005s-.003.005-.003.005v.005s-.003.005-.003.005v.005s-.003.005-.003.005v.005s-.003.005-.003.005v.005s-.003.005-.003.005v.005s-.003.005-.003.005v.005s-.003.005-.003.005v.005s-.003.005-.003.005v.005s-.003.005-.003.005v.005s-.003.005-.003.005v.005s-.003.005-.003.005v.005s-.003.005-.003.005v.005s-.003.005-.003.005v.005s-.003.005-.003.005v.005s-.003.005-.003.005v.005s-.003.005-.003.005v.005s-.003.005-.003.005v.005s-.003.005-.003.005v.005s-.003.006-.003.006v.005s-.003.005-.003.005v.005s-.003.005-.003.005v.005s-.003.005-.003.005v.005s-.003.005-.003.005v.005s-.003.005-.003.005v.005s-.003.005-.003.005v.005s-.003.005-.003.005v.006s-.003.005-.003.005v.005s-.003.005-.003.005v.005s-.003.005-.003.005v.005s-.003.005-.003.005v.005s-.003.005-.003.005v.006s-.003.005-.003.005v.005s-.003.005-.003.005v.005s-.003.005-.003.005v.005s-.003.005-.003.005v.006s-.002.005-.002.005v.005s-.003.005-.003.005v.005s-.003.005-.003.005v.005s-.003.006-.003.006v.005s-.003.005-.003.005v.005s-.003.005-.003.005v.005s-.002.005-.002.005v.006s-.003.005-.003.005v.005s-.003.005-.003.005v.005s-.002.006-.002.006v.005s-.003.005-.003.005v.005s-.002.005-.002.005v.005s-.003.006-.003.006v.005s-.002.005-.002.005v.005s-.003.005-.003.005v.006s-.002.005-.002.005v.005s-.002.005-.002.005v.006s-.003.005-.003.005v.005s-.002.005-.002.005v.005s-.002.006-.002.006v.005s-.002.005-.002.005v.005s-.002.006-.002.006v.005s-.002.005-.002.005v.005s-.002.006-.002.006v.005s-.002.005-.002.005v.005s-.002.006-.002.006v.005s-.002.005-.002.005v.005s-.002.006-.002.006v.005s-.002.005-.002.005v.005s-.002.006-.002.006v.005s-.002.005-.002.005v.006s-.002.005-.002.005v.005s-.002.005-.002.005v.006s-.002.005-.002.005v.005s-.002.006-.002.006v.005s-.002.005-.002.005v.006s-.002.005-.002.005v.005s-.002.005-.002.005v.006s-.002.005-.002.005v.005s-.002.006-.002.006v.005s-.002.005-.002.005v.006s-.002.005-.002.005v.005s-.002.006-.002.006v.005s-.002.005-.002.005v.006s-.002.005-.002.005v.005s-.002.006-.002.006v.005s-.002.005-.002.005v.006s-.002.005-.002.005v.005s-.002.006-.002.006v.005s-.002.006-.002.006v.005s-.002.005-.002.005v.006s-.002.005-.002.005v.005s-.002.006-.002.006v.005s-.002.006-.002.006v.005s-.002.005-.002.005v.006s-.002.005-.002.005v.005s-.002.006-.002.006v.005s-.002.006-.002.006v.005s-.002.005-.002.005v.006s-.002.005-.002.005v.006s-.002.005-.002.005v.005s-.002.005-.002.005v.007s-.002.005-.002.005v.005s-.002.005-.002.005v.007s-.002.005-.002.005v.005s-.002.005-.002.005v.007s-.002.005-.002.005v.005s-.002.005-.002.005v.007s-.002.005-.002.005v.005s-.002.005-.002.005v.007s-.002.005-.002.005v.005s-.002.005-.002.005v.007s-.002.005-.002.005v.005s-.002.005-.002.005v.007s-.002.005-.002.005v.005s-.002.005-.002.005v.007s-.002.005-.002.005v.005s-.002.005-.002.005v.007s-.002.005-.002.005v.005s-.002.005-.002.005v.007s-.002.005-.002.005v.005s-.002.005-.002.005v.007s-.002.005-.002.005v.005s-.002.005-.002.005v.007s-.002.005-.002.005v.005s-.002.005-.002.005v.007s-.002.005-.002.005v.005s-.002.005-.002.005v.007s-.002.005-.002.005v.005s-.002.005-.002.005v.007s-.002.005-.002.005v.005s-.002.005-.002.005v.007s-.002.005-.002.005v.005s-.002.005-.002.005v.007s-.002.005-.002.005v.005s-.002.005-.002.005v.007s-.002.005-.002.005v.005s-.002.005-.002.005v.007s-.002.005-.002.005v.005s-.002.005-.002.005v.007s-.002.005-.002.005v.005s-.001.005-.001.005v.007s-.002.005-.002.005v.005s-.002.005-.002.005v.007s-.001.005-.001.005v.005s-.002.005-.002.005v.007s-.002.005-.002.005v.005s-.001.005-.001.005v.007s-.002.005-.002.005v.005s-.001.005-.001.005v.007s-.001.005-.001.005v.005s-.002.007-.002.007v.005s-.001.005-.001.005v.005s-.001.007-.001.007v.005s-.001.005-.001.005v.005s-.002.007-.002.007v.005s-.001.005-.001.005v.005s-.001.007-.001.007v.005s-.001.005-.001.005v.005s-.001.007-.001.007v.005s-.001.005-.001.005v.005s-.001.007-.001.007v.005s-.001.005-.001.005v.005s-.001.007-.001.007v.005s-.001.005-.001.005v.007s-.001.005-.001.005v.005s-.001.005-.001.005v.007s-.001.005-.001.005v.005s-.234,1.267-.234,1.267l-.461,2.498-.26,1.408" vector-effect="none" fill="none" stroke="#333" stroke-linecap="square" stroke-linejoin="bevel" stroke-width=".5"/>
    <path id="fortrouge" d="M372.578,248.6l.168.366.864,1.278.789,1.081.787,1.358,1.888,3.582.115.175.53.805.583.807.559,1.205.358,1.121.238,1.159.072,1.517-.118,1.249-.194.985-.276.773-.413.775-.413.653-.384.606-2.191,3.18-1.843,2.486-1.838,2.484-.365.554-.729,1.224-.717,1.029-1.744,2.299-.797,1.207-.643,1.214-.242.566-.444,1.039-.468,1.274-.422,1.329-.278,1.504-.161,1.812-.029,1.339.161,1.308.425,1.375.465,1.111.465.773.314.398.581.451.801.511.876.425,1.154.468.643.118.996.058,1.416-.118,1.272-.204,1.504-.425,1.576-.394,1.476-.307,3.227-.6,1.315-.19,1.416-.161,1.097-.072,1.536.029,1.459.101,1.447.221,1.447.322.358.118,1.101.365,1.14.578.629.485.804.809.629,1.037.461.996.382,1.243.187,1.288-.024,2.205-.06.667-.137.674-.29,1.034-.938,2.644-.655,2.018-.42,1.137-.461.984-1.814,3.246-.552.825-.576.77-.758.854-1.812,1.744-.965.773-2.133,1.454-1.238.792-1.272.657-3.561,1.476-.324.134-1.514.552-1.401.441-1.073.3-1.017.223-1.073.122-1.209.082-1.72.055-1.348-.012-1.5.026-1.363.084-1.293.154-1.305.204-1.156.281-.425.103-1.279.386-1.212.413-.741.345-.729.396-1.334,1.005-.506.569-.098.108-.446.825-.326.89-.134.857.079.801.235.753.413.624.636.509.811.394.513.12.158.022.358.048.425-.007,1.171-.235.9-.293.684-.3.669-.37,3.661-2.452,1.212-.741.962-.442.893-.262.806-.118.811-.046.763.012.756.07.811.137.895.247,1.013.391,1.092.588,1.293.866,1.209.924,2.985,2.392,1.732,1.502,2.951,2.438.547.492.485.535.485.595.43.648.475.787.485.895.475,1.082.242.95.055.989-.084.933-.281.981-.401.854-.477.66-.602.729-.569.501-.672.422-.809.307-.797.125-1.082.012-.739-.103-.924-.166-.974-.31-1.001-.396-.801-.394-1.399-.751-1.216-.741-.914-.408-1.113-.377-1.274-.228-1.32-.125-1.252-.012-.813.101-.547.137-1.531.638-.331.245-.42.307-.595.71-.408.801-.329,1.046-.041.653.007.6.216,1.14.348.9.609.849.965.984,2.678,2.62.989,1.049.66.797.741,1.106.535,1.001.226.422.559,1.252.286.991.067.991-.161,1.389-.288.902-.372.686-.477.667-.957.967-1.147.777-1.13.523-1.262.262-1.159-.022-1.538-.178-1.49-.269-.981-.262-1.466-.477-2.039-.513-1.01-.218-.996-.067-1.255.103-1.257.262-1.046.389-.593.341-.547.456-.477.65-.437.809-.293.912-.25,1.195-.046.933v.672l-1.449.804-1.399.777-.204.113-1.243.689-.329.185.168-2.239.115-.638,1.864-10.181-1.66-8.933-3.006-5.49.022-.605.048-1.483.199-6.001.187-5.636.134-4.069.902-4.6-.113-.561-.631-3.124-.401-.806-.209-.537-.079-.665.036-.573.871-2.433-6.147-11.076-6.13-11.121-.437-.799-.434-.801-2.174-4,2.781-1.5,2.762-1.519,2.8-1.512.408-.223-1.629-.643.17-.276.696-1.121.307-.499-.226-.086-.777-.432-.674-.609-.641-.821-1.075-1.675-.465-.825-.801-1.776-.343-.667-.425-.581-.552-.485-.583-.451.66-1.351.062-2.987.238-11.213.091-4.393,1.896-.845,5.02-2.252,1.44-.651.002,1,.765.055.655.231,1.413.045.139.017.869.182.18.096.175.094,1.205.051.573-.215-1.382-3.008-.415-1.091,14.3-8.67,1.533,4.064,1.874-.709-.329-.873.756-.069,2.57,1.179.072-.485.127-.483.415-.908.216-.338.343-.431.281-.287.403-.332.866-.51.525-.231.607.202,1.744-.322" vector-effect="none" fill="none" stroke="#333" stroke-linecap="square" stroke-linejoin="bevel" stroke-width=".5"/>
    <path id="oldkildonan" d="M239.74,148.716l-.355-15.314-.343-14.762-.007-.276-.365-14.955-.37-15.241,15.459-.353,14.982-.341,29.707-.674,29.99-.724-.439-17.957-.06-2.449-.23-9.493,7.911-.181-.194-7.388,7.913-.189-.005-.158,46.649,30.569.581.38-.079.168.393.258,1.344.883,12.227,8.024,11.21,7.358,3.302,2.167.238.156-20.875,21.054-6.538,6.622.269.126,5.144,2.42.708.334.989.464.331.156,5.562,2.616.552.26.053.025.386.182-2.642,2.769-1.473,1.792-14.284-6.715-6.627,6.692-6.274,6.334-.103.105-22.825,23.049-17.739-8.308.043-.081-.605-.283-.25-.119-.086.165-.252-.118-.545-.255-.05.107-.017.039-.022.047-4.825-2.26.019-.042.07-.15-.127-.059-.377-.177-.379-.177-.127-.059-.756-.353-.883-.412-.401-.191-.77-.36-.605-.283-.518-.242-.127-.059-.377-.177-.809-.378-1.01-.472-.492-.23-.516-.242-1.099-.513-.415-.195-.441-.206-.137-.064-.137-.064-.137-.064-.134-.063-.154-.072-.146-.069-.156-.073-.158-.074-.13-.061-.134-.063-.151-.072-.149-.069-.007-.003-.134-.063-.137-.064-.134-.063-.137-.064-.821-.384-.127-.06-.607-.283-.276-.129-.593-.277-.403-.189-.631-.295-.343-.161-.377-.177-.151-.071-.146-.069-.146-.068-.146-.069-.146-.068-.146-.069-.146-.068-.151-.071-.379-.177-.067-.031-.276-.13-.343-.161-.379-.177-.151-.071-.06-.028-.086-.04-.146-.069-.146-.068-.146-.069-.146-.068-.146-.069-.041-.019-.11-.052-.379-.177-.343-.161-.475-.223-.331-.155-.103-.048-.276-.129h-.002s-.298-.14-.298-.14l-.295-.139-.298-.139-.278-.13-.528-.247-.144-.068-1.034-.484-.187-.089-.185-.085-1.917-.897-.533-.25-.439-.205-.278-.13-.278-.13-.288-.134-.302-.142-.326-.153-.242-.113-.026-.012-.266-.125-.269-.125-.266-.125-.269-.125-.266-.125-.269-.125-.266-.125-.269-.125-.266-.125-.266-.125-.266-.124-.312-.146-.504-.236-.108-.05-.214-.1-.638-.299-.427-.2-.905-.424-.475-.222-.372-.174-.417-.196-.334-.156-.204-.096-.233-.109-.329-.153-.204-.096-.206-.096-.202-.095-.067-.031-.137-.063-.202-.095-.202-.095-.204-.095-.202-.095-.202-.095-.094-.043-.108-.051-.204-.095-.202-.095-.286-.134-.379-.177-.06-.028-.341-.159-.384-18.14-15.27.341.729,30.141-15.013.28-9.674.229-5.761.352" vector-effect="none" fill="none" stroke="#333" stroke-linecap="square" stroke-linejoin="bevel" stroke-width=".5"/>
    <path id="stnorbert" d="M439.989,383.435l.005.122.055.12.214.106.194.19.05.106.026.156-.026.146-.144.218-.573.442-.151.439.108.326.113.031.274-.106.473-.314.312-.108.221-.017.206.062.149.132.389.525.038.158-.041.367-.074.206-.283.444-.106.326-.194.358-.139.47-.249.533-.3.427-.089.245-.54,1.123-.343.444-.077.144-.103.557.101.37.182.276.137.089.182.036.202-.05,1.233-.653.238-.18.271-.096.331.019.293.091.098.089.05.125-.012.156-.187.264-.245.252-.307.42-.578,1.135-.094.571-.144.362-.091.319-.046.166-.089.149-.031.214.05.182.101.094.175.07.156.012,1.353-.463.785-.125.35-.007,1.157-.103.322-.07.338.07.238.137.202.264.055.202-.094.331-.295.521-.055.276.048.125.54.446.48.48.058.163.005.12-.062.106-.307.187-.463.082-.602.175-.271.19-.055.125-.058.59.041.422.149.355.228.206.142-.022.233-.206.094-.518.235-.444.089-.074.168-.048.259.038.264.106.23.175.146.158.031.12-.014.127-.07.084-.122.017-.137-.026-.302.031-.115.053-.19.19-.139.281-.026.36.07.122.11.058.238-.017.29-.211.18-.079.293.065.549.278.084.223-.07.11-.254.074h-.343l-.211.106-.079.096-.029.098.048.374.18.168.317.132.115.209.096.295.053.492-.058.379-.271.518-.058.333-.005.254.017.307-.038.283.07.245.12.242.175.108.264-.043.137-.096.17-.269.132-.362.115-.379.091-.756.12-.29.202-.228.216-.079.271-.031.115.048.096.106.036.122.065.787-.137.396-.444.509v.163l.197.25.18.187.245.214.521.348.413.13.47.086.288.106h.161l.154-.079.074-.091.031-.115-.062-.175-.202-.331-.072-.206-.065-.53.058-.242.233-.29.18-.202.144-.031.154.062.18.185.377.542.367.681.497.394.415.48.295.278.05.206-.156.619.038.42.362.597.151.945-.048.19-.151.084-.161-.005-.218-.25-.326-.142-.35-.022-.18.002-.144.108-.25.453-.214.564-.022.391.084.381.098.535.089.269.079.079.197.022.437-.084.254-.113.739-.458.626-.264.835-.564.602-.334.235-.202.18-.089.216-.007.281.094.66.11.271.154.146.151.031.202-.086.166-.254.12-.348.113-.173.151-.031.238.048.274.026.096.031.098.065.18.046.161.034.144v.154l-.019.13-.06.134-.077.142-.091.122-.134.142-.149.077-.175.098-.103.07-.079.072-.055.096v.091l.062.096.11.043.022.007.146-.007.194-.077.206-.127.214-.156.13-.05h.098l.173.005.161.084.144.118.142.142.089.084.022.122-.022.149-.05.108-.072.091-.096.07-.182.11-.142.065-.082.058-.084.096-.098.115-.082.115-.084.118-.082.115-.084.118-.031.046-.065.166.012.175.046.168.118.122.122.058.156-.05.149-.091.146-.149.163-.187.168-.13.142-.017.07.012.106.019.175.065.137.077.108.103.058.118.005.06.002.029.012.103.014.137.065.146.082.154.113.084.142.115.122.11.139.154.134.24.005.175-.096.264.017.206.05.12.11.113.202.12.398.42.137.192.132.221.005.094.362,1.154,6.21-3.563.242-.139.245-.142,17.885-10.26,22.418-12.666,3.465-1.538,1.833-.499-.29,1.236-.489,2.092-.094.394-.358-.096.053,1.886.01.362.084-.002.782,15.303.346,14.653.103,4.518.245,10.658-16.076.398-7.001,4.955-.59.415-1.73,1.226-1.663,1.176-2.056,1.454-.525.372.218,7.688.199,6.965.029,1.001.06,2.09.058,2.075.18-.002,7.215-.113.379,13.962-.545.3.002.062-5.236,2.872-.485.266-.281.154-2.011,1.104-9.173,5.036-1.36.749-28.097,15.426-.494.271-4.436,2.435.094,2.51.185,5.08.091,2.536.094,2.539.084,2.332.017.41.084,2.325.014.384.041,1.111.425-.01,1.519-.041-.905.499-.542.3-1.485.821-18.281,10.104-10.586,5.852-7.361,4.069-.497.274-11.126,6.152-.996.549-4.796,2.651-1.2.662-2.107,1.166-1.279.705-.026-.307.082-1.336.202-1.42.329-1.56.408-1.276.396-1.219.228-1.017.151-1.08.091-1.111-.014-1.217-.106-1.262-.185-1.142-.257-1.094-.319-1.034-.298-.729-1.14.645-.957.542-.643.365-1.032.585-.645.365-2.287,1.296-4.379,2.481-.933.528-1.197.679-.542.307-2.397,1.358-6.078,3.443-5.778,3.275-1.965,1.113-1.109.629-21.976,12.45-.038.022-.211.12-.187.108-12.05,6.826-.888.504-.477.274-.065.036-52.007,29.88-.547.314-.029-2.956-.137-14.293-.389-32.797-.122-4.909-.017-.629-.643-25.633,7.376-.168-.017-.907-.581-27.646-.024-1.116,34.182-.969,3.311-.185,3.374-.557.518-.173,1.79-.602,2.267-.881,3.755-1.852,3.63-2.083,17.11-9.79,5.139-2.939-1.898-28.958.022-11.196.019-9.338.005-2.534,1.413-4.6.463-.257,1.744-.967,1.761-.979,1.449-.804,1.157-.643,1.017-.564.444-.247,1.66-.919,1.404-.782,1.704-.945,4.96-2.752.11-.062.286-.161-.158-.269-.609-.365-.917-.456-1.135-.756.298-.163,2.575-1.428,1.216-.674,1.207-.672,2.491-1.38,1.408-.818.432.082,1.483.103,1.605.048.972-.077.885-.235,1.267-.501,1.785-.878,1.38-.953,2.445-2.066,2.433-1.934,1.466-1.01.629-.345-.597-1.07-.3-.537-.012-.118-.05-.549-.031-.333-.022-.23,2.951-.274,1.065-.017.938.089,1.332.252.669-.228,8.019-4.564,1.336-.765.638-.317.516-.074.542.05,2.104.578.216.06.449.082.677.002.684-.122.542-.254,8.758-4.981,1.281-.727.773-.18,3.352-.295,1.056-.329,13.828-7.851.132.36.259-.146.984-.559.36-.206.71-.403.861-.489.098-.055.089-.05.317-.18.158-.091" vector-effect="none" fill="none" stroke="#333" stroke-linecap="square" stroke-linejoin="bevel" stroke-width=".5"/>
    <path id="pointdoug" d="M245.501,148.364l9.674-.229,15.013-.28-.729-30.141,15.27-.341.384,18.14.341.159.06.028.379.177.286.134.202.095.204.095.108.051.094.043.202.095.202.095.204.095.202.095.202.095.137.063.067.031.202.095.206.096.204.096.329.153.233.109.204.096.334.156.417.196.372.174.475.222.905.424.427.2.638.299.214.1.108.05.504.236.312.146.266.124.266.125.266.125.269.125.266.125.269.125.266.125.269.125.266.125.269.125.266.125.026.012.242.113.326.153.302.142.288.134.278.13.278.13.439.205.533.25,1.917.897.185.085.187.089,1.034.484.144.068.528.247.278.13.298.139.295.139.298.139h.002s.276.13.276.13l.103.048.331.155.475.223.343.161.379.177.11.052.041.019.146.069.146.068.146.069.146.068.146.069.086.04.06.028.151.071.379.177.343.161.276.13.067.031.379.177.151.071.146.068.146.069.146.068.146.069.146.068.146.069.151.071.377.177.343.161.631.295.403.189.593.277.276.129.607.283.127.06.821.384.137.064.134.063.137.064.134.063.007.003.149.069.151.072.134.063.13.061.158.074.156.073.146.069.154.072.134.063.137.064.137.064.137.064.441.206.415.195,1.099.513.516.242.492.23,1.01.472.809.378.377.177.127.059.518.242.605.283.77.36.401.191.883.412.756.353.127.059.379.177-8.7,18.64,5.12,2.378.175-.327,20.892,9.77-.238.783-1.797,3.829-4.427,9.425-.326.704-13.547-6.279-3.978,3.057-.079,1.916.269.126.247.114,1.884.879,1.01.471.861.402,1.262.589,1.264.589,2.102.98.441.206,2.116.987.166.077.079-.166,3.335,1.555-2.757,5.918,20.858,9.677,4.163,1.884,6.025,2.808.669.312.334.155.631.293.362.052-.029.214.914.128.914.128.365.051.365.051,1.826.262v.011l.36.077,1.442.305.355.125,3.258.629,3.057.645.262.055.264.056,4.806,1.015.269.057,4.197.892,1.512.292,3.47.182,7.081.422,1.269.115-.19.963-.235.709-.362.727-.398.527-.367.41-.446.41-.525.307-.669.238-.969.264-1.087.17-1.075.071-2.577.092-.89-.036-4.684-.328-1.869-.09-3.268-.328-.453.038-.581.108-.583.177-1.003.363-1.91.768-1.879.834-.322.211-.259.172-.78.654-.674.673-.581.708-.473.834-.199.522-.065.279-.06.254-.019.98.017,1.211.098,1.122.374,1.219.381.836-1.744.322-.607-.202-.525.231-.866.51-.403.332-.281.287-.343.431-.216.338-.415.908-.127.483-.072.485-2.57-1.179-.756.069.329.873-1.874.709-1.533-4.064-.19-.5-.461-.214-1.348-.628-3.827-1.784-2.013-.935-.074.167-.307.656-.168-.078-2.272-1.058-3.083-1.436-1.01-.468-.022.048-.283.606-.077.167-.163-.076-1.032-.355.043-2.108-8.105-3.761-2.044-.864-15.586-7.256-2.435-1.135-9.262-4.314-4.624-2.154-3.556-1.656-4.324-2.014-7.409-10.45-.005-.193-5.936.149-9.36.23-14.735.365-9.595.238-.254-.279-2.239-2.454-3.081-3.382-.569-.622-.194-8.138-.343-14.733-.096-4.075-.355-15.05-.439-10.871,5.761-.352" vector-effect="none" fill="none" stroke="#333" stroke-linecap="square" stroke-linejoin="bevel" stroke-width=".5"/>
    <path id="stjames" d="M119.57,265.716l.292-6.968.156-3.716.278-6.637.021-.5.015-.857,1.003-24.088v-.012s.001-.013.001-.013v-.013s0-.013,0-.013v-.013s.001-.012.001-.012v-.013s0-.013,0-.013v-.013s.001-.013.001-.013v-.013s0-.012,0-.012v-.013s.001-.013.001-.013v-.013s.001-.013.001-.013v-.012s0-.013,0-.013v-.013s.001-.013.001-.013v-.013s.001-.013.001-.013v-.012s.001-.013.001-.013v-.013s.001-.013.001-.013v-.013s.001-.012.001-.012v-.013s.001-.013.001-.013v-.013s.001-.013.001-.013v-.012s.001-.013.001-.013v-.013s.001-.013.001-.013v-.013s.001-.012.001-.012v-.013s.001-.013.001-.013v-.013s.001-.013.001-.013v-.012s.001-.013.001-.013v-.013s.001-.013.001-.013v-.013s.001-.012.001-.012v-.013s.001-.013.001-.013v-.013s.001-.013.001-.013v-.012s.001-.013.001-.013v-.013s.001-.013.001-.013v-.013s.001-.012.001-.012v-.013s.001-.013.001-.013v-.013s.001-.013.001-.013v-.012s.001-.013.001-.013v-.013s.001-.013.001-.013v-.013s.001-.012.001-.012v-.013s.001-.013.001-.013v-.013s.001-.012.001-.012v-.013s.001-.013.001-.013v-.013s.001-.013.001-.013v-.012s.001-.013.001-.013v-.013s.001-.013.001-.013v-.012s.001-.013.001-.013v-.013s.002-.013.002-.013v-.013s.001-.012.001-.012v-.013s.001-.013.001-.013v-.013s.001-.012.001-.012v-.013s.001-.013.001-.013v-.013s.002-.013.002-.013v-.012s.001-.013.001-.013v-.013s.002-.013.002-.013v-.012s.001-.013.001-.013v-.013s.001-.013.001-.013v-.012s.002-.013.002-.013v-.013s.002-.013.002-.013v-.013s.001-.012.001-.012v-.013s.002-.013.002-.013v-.013s.002-.012.002-.012v-.013s.001-.013.001-.013v-.013s.002-.012.002-.012v-.013s.002-.013.002-.013v-.013s.002-.012.002-.012v-.013s.002-.013.002-.013v-.013s.002-.012.002-.012v-.013s.002-.013.002-.013v-.013s.002-.012.002-.012v-.013s.002-.013.002-.013v-.013s.002-.012.002-.012v-.013s.002-.013.002-.013v-.013s.002-.012.002-.012v-.013s.002-.013.002-.013v-.013s.002-.012.002-.012v-.013s.002-.013.002-.013v-.013s.002-.012.002-.012v-.013s.002-.013.002-.013v-.013s.002-.012.002-.012v-.013s.002-.013.002-.013v-.012s.002-.013.002-.013v-.013s.002-.013.002-.013v-.012s.002-.013.002-.013v-.013s.002-.013.002-.013v-.012s.002-.013.002-.013v-.013s.002-.013.002-.013v-.012s.002-.013.002-.013v-.013s.002-.012.002-.012v-.013s.002-.013.002-.013v-.013s.002-.012.002-.012v-.013s.002-.013.002-.013v-.012s.002-.013.002-.013v-.013s.002-.013.002-.013v-.012s.002-.013.002-.013v-.013s.002-.012.002-.012v-.013s.002-.013.002-.013v-.013s.002-.012.002-.012v-.013s.002-.013.002-.013v-.012s.002-.013.002-.013v-.013s.002-.013.002-.013v-.012s.002-.013.002-.013v-.013s.002-.012.002-.012v-.013s.002-.013.002-.013v-.012s.002-.013.002-.013v-.013s.002-.012.002-.012v-.013s.002-.013.002-.013v-.013s.002-.012.002-.012v-.013s.002-.013.002-.013v-.012s.002-.013.002-.013v-.013s.002-.012.002-.012v-.013s.002-.013.002-.013v-.012s.002-.013.002-.013v-.013s.002-.013.002-.013v-.012s.002-.013.002-.013v-.013s.002-.012.002-.012v-.013s.002-.013.002-.013v-.012s.002-.013.002-.013v-.013s.002-.012.002-.012v-.013s.002-.013.002-.013v-.012s.002-.013.002-.013v-.013s.002-.012.002-.012v-.013s.002-.013.002-.013v-.012s.002-.013.002-.013v-.013s.002-.012.002-.012v-.013s.002-.013.002-.013v-.012s.002-.013.002-.013v-.013s.002-.012.002-.012v-.013s.002-.013.002-.013v-.012s.002-.013.002-.013v-.013s.002-.012.002-.012v-.013s.002-.012.002-.012v-.013s.002-.013.002-.013v-.012s.002-.013.002-.013v-.013s.002-.012.002-.012v-.013s.002-.013.002-.013v-.012s.002-.013.002-.013v-.013s.002-.012.002-.012v-.013s.002-.012.002-.012v-.013s.002-.013.002-.013v-.012s.002-.013.002-.013v-.013s.002-.012.002-.012v-.013s.002-.012.002-.012v-.013s.003-.013.003-.013v-.012s.002-.013.002-.013v-.013s.002-.012.002-.012v-.013s.002-.012.002-.012v-.013s.002-.013.002-.013v-.012s.003-.013.003-.013v-.013s.002-.012.002-.012v-.013s.002-.012.002-.012v-.013s.003-.013.003-.013v-.012s.002-.013.002-.013v-.012s.003-.013.003-.013v-.013s.002-.012.002-.012v-.013s.003-.012.003-.012v-.013s.002-.013.002-.013v-.012s.003-.013.003-.013v-.012s.003-.013.003-.013v-.013s.002-.012.002-.012v-.013s.003-.012.003-.012v-.013s.003-.013.003-.013v-.012s.003-.013.003-.013v-.012s.003-.013.003-.013v-.013s.002-.012.002-.012v-.013s.003-.012.003-.012v-.013s.003-.012.003-.012v-.013s.003-.013.003-.013v-.012s.003-.013.003-.013v-.012s.003-.013.003-.013v-.012s.003-.013.003-.013v-.013s.003-.012.003-.012v-.013s.003-.012.003-.012v-.013s.003-.012.003-.012v-.013s.003-.013.003-.013v-.012s.003-.013.003-.013v-.012s.003-.013.003-.013v-.012s.003-.013.003-.013v-.012s.003-.013.003-.013v-.013s.003-.012.003-.012v-.013s.003-.012.003-.012v-.013s.003-.012.003-.012v-.013s.003-.012.003-.012v-.013s.003-.012.003-.012v-.013s.003-.013.003-.013v-.012s1.249-11.117,1.249-11.117l.003-.027.003-.027.003-.027.003-.027.003-.027.003-.027.003-.027.003-.027.003-.027.003-.027.003-.027.003-.027.003-.027.003-.027.003-.027.003-.027.003-.027.003-.027.003-.027.002-.027.003-.027.002-.027.003-.027.002-.027.002-.027.002-.027.002-.027.002-.027.002-.027.002-.027.002-.027.002-.027.002-.027.002-.027.002-.027.002-.027.002-.027.002-.027.002-.027.002-.027.002-.027.002-.027.002-.027.002-.027.002-.027.002-.027.002-.027.002-.027.002-.027.002-.027.002-.027.002-.027.002-.027.002-.027.002-.027.002-.027.002-.027.002-.027v-.027s.003-.027.003-.027l.002-.027v-.027s.003-.027.003-.027v-.027s.003-.027.003-.027v-.027s.003-.027.003-.027v-.027s.003-.027.003-.027v-.027s.003-.027.003-.027v-.027s.003-.027.003-.027v-.027s.003-.027.003-.027v-.027s.002-.027.002-.027v-.027s.002-.027.002-.027v-.027s.002-.027.002-.027v-.027s.002-.027.002-.027v-.027s.002-.027.002-.027v-.027s.002-.027.002-.027v-.027s.002-.027.002-.027v-.027s.002-.027.002-.027v-.027s.002-.027.002-.027v-.027s.002-.027.002-.027v-.027s.001-.027.001-.027v-.027s.001-.027.001-.027v-.027s.001-.027.001-.027v-.027s.001-.027.001-.027v-.027s.001-.027.001-.027v-.027s0-.027,0-.027v-.027s0-.027,0-.027v-.027s0-.027,0-.027v-.027s0-.027,0-.027v-.027s0-.027,0-.027v-.027s0-.027,0-.027v-.027s0-.027,0-.027v-.027s0-.027,0-.027v-.027s0-.027,0-.027v-.027s0-.027,0-.027v-.054s0-.027,0-.027v-.027s0-.027,0-.027v-.081s0-.027,0-.027v-.027s0-.027,0-.027v-.027s0-.027,0-.027v-.027s0-.027,0-.027v-.027s0-.027,0-.027v-.027s0-.027,0-.027v-.027s0-.027,0-.027v-.027s0-.027,0-.027v-.027s0-.027,0-.027v-.027s0-.027,0-.027v-.027s-.001-.027-.001-.027v-.027s-.001-.027-.001-.027v-.027s-.001-.027-.001-.027v-.027s-.002-.027-.002-.027v-.027s-.001-.027-.001-.027v-.027s-.002-.027-.002-.027v-.027s-.002-.027-.002-.027v-.027s-.002-.027-.002-.027v-.027s-.002-.027-.002-.027v-.027s-.002-.027-.002-.027v-.027s-.002-.027-.002-.027v-.027s-.002-.027-.002-.027v-.027s-.002-.027-.002-.027v-.027s-.002-.027-.002-.027v-.027s-.002-.027-.002-.027v-.027s-.003-.027-.003-.027v-.027s-.003-.027-.003-.027v-.027s-.003-.027-.003-.027v-.027s-.003-.027-.003-.027v-.027s-.003-.027-.003-.027l-.002-.027v-.027s-.003-.027-.003-.027v-.027s-.003-.027-.003-.027l-.002-.027-.002-.027-.002-.027-.002-.027-.002-.027-.002-.027-.002-.027-.002-.027-.002-.027-.002-.027-.002-.027-.002-.027-.002-.027-.002-.027-.002-.027-.002-.027-.002-.027-.002-.027-.002-.027-.002-.027-.002-.027-.002-.027-.002-.027-.002-.027-.002-.027-.002-.027-.002-.027-.002-.027-.002-.027-.002-.027-.002-.027-.002-.027-.002-.027-.002-.027-.003-.027-.002-.027-.002-.027-.003-.027-.002-.027-.003-.027-.003-.027-.003-.027-.003-.027-.003-.027-.003-.027-.003-.027-.003-.027-.003-.027-.003-.027-.003-.027-.003-.027-.003-.027-.003-.027-.003-.027-.003-.027-.003-.027-.003-.027-.003-.027-.003-.027-.003-.027-.003-.027-.003-.027-.003-.027-.003-.027-.003-.027-.003-.027-.003-.027-.003-.027-.003-.027-.003-.027-.003-.027-.003-.027-.003-.027-.003-.027-.003-.027-.003-.027-.004-.027-.003-.027-.004-.027-.003-.027-.004-.027-.004-.027-.004-.027-.003-.027-.004-.027-.004-.027-.004-.027-.004-.027-.004-.027-.004-.027-.004-.027-.004-.027-.004-.027-.004-.027-.004-.027-.004-.027-.004-.027-.004-.027-.004-.027-.004-.027-.004-.027-.004-.027-.004-.027-.004-.027-.004-.027-.004-.027-.004-.027-.004-.027-.004-.027-.004-.027-.004-.027-.004-.027-.004-.027-.004-.027-.004-.026-.004-.027-.004-.027-.005-.027-.004-.027-.004-.027-.005-.027-.005-.026-.004-.027-.005-.027-.005-.027-.005-.026-.005-.027-.005-.027-.005-.026-.005-.027-.005-.027-.005-.026-.005-.027-.005-.027-.005-.026-.005-.027-.005-.026-.005-.027-.005-.026-.005-.027-.005-.026-.005-.027-.005-.026-.005-.026-.005-.027-.005-.026-.005-.027-.005-.026-.005-.026-.005-.027-.005-.026-.005-.026-.005-.026-.005-.027-.005-.026-.005-.026-.005-.026-.005-.026-.005-.026-.006-.026-.005-.027-.006-.026-.885-4.314-.005-.023-.005-.023-.005-.023-.005-.023-.005-.023-.004-.023-.005-.023-.005-.023-.005-.023-.005-.023-.004-.023-.005-.023-.004-.023-.005-.023-.004-.023-.005-.023-.004-.023-.004-.023-.004-.023-.005-.023-.004-.023-.004-.023-.004-.023-.004-.023-.004-.023-.004-.023-.004-.023-.004-.023-.004-.023-.004-.023-.004-.023-.004-.023-.004-.023-.004-.023-.004-.023-.004-.023-.004-.023-.004-.023-.004-.023-.004-.023-.004-.023-.004-.023-.004-.023-.004-.023-.004-.023-.004-.023-.004-.023-.004-.023-.004-.023-.004-.023-.004-.023-.004-.023-.004-.023-.004-.023-.004-.023-.004-.023-.004-.023-.004-.023-.004-.023-.004-.023-.004-.023-.004-.023-.004-.023-.004-.023-.004-.023-.004-.023-.004-.023-.004-.023-.004-.023-.004-.023-.004-.023-.004-.023-.004-.023-.004-.023-.004-.023-.004-.023-.003-.023-.004-.023-.004-.023-.003-.023-.004-.023-.003-.023-.003-.023-.004-.023-.003-.023-.003-.023-.003-.023-.003-.023-.003-.023-.003-.023-.003-.023-.003-.023-.003-.023-.003-.023-.003-.023-.003-.023-.003-.024-.003-.023-.003-.023-.003-.023-.003-.023-.003-.023-.003-.023-.003-.023-.003-.023-.003-.023-.003-.024-.003-.023-.003-.023-.003-.023-.003-.023-.003-.023-.003-.024-.003-.023-.003-.023-.003-.023-.003-.023-.003-.024-.003-.023-.003-.023-.003-.023-.003-.024-.003-.023-.003-.023-.003-.023-.003-.024-.003-.023-.003-.023-.003-.024-.003-.023-.003-.023-.003-.024-.003-.023-.003-.023-.003-.024-.003-.023-.003-.023-.003-.024-.003-.023-.003-.023-.003-.024-.003-.023-.003-.024-.002-.023-.003-.024-.003-.023-.002-.023-.002-.024-.003-.023-.002-.024-.002-.023-.003-.024-.002-.023-.002-.024-.002-.023-.002-.024-.002-.023-.002-.024-.002-.023-.002-.024-.002-.023-.002-.024-.002-.023-.002-.024-.002-.023-.002-.024-.002-.023-.002-.024-.002-.023-.002-.024-.002-.024-.002-.023-.002-.024-.002-.023-.002-.024-.002-.024-.002-.023-.002-.024-.002-.023-.002-.024-.002-.024-.002-.023-.002-.024-.002-.024-.002-.023-.002-.024-.002-.024-.002-.023-.002-.024-.002-.024-.002-.023-.002-.024-.002-.024-.002-.023-.002-.024-.002-.024-.002-.023-.002-.024-.002-.024-.002-.024-.002-.023-.002-.024-.002-.024-.002-.024-.002-.023-.002-.024-.002-.024v-.024s-.003-.023-.003-.023l-.002-.024v-.024s-.003-.024-.003-.024v-.023s-.003-.024-.003-.024v-.024s-.003-.024-.003-.024v-.024s-.003-.023-.003-.023v-.024s-.003-.024-.003-.024v-.024s-.003-.024-.003-.024v-.023s-.003-.024-.003-.024v-.024s-.003-.024-.003-.024v-.024s-.003-.024-.003-.024v-.023s-.003-.024-.003-.024v-.024s-.002-.024-.002-.024v-.024s-.003-.024-.003-.024v-.023s-.002-.024-.002-.024v-.024s-.002-.024-.002-.024v-.024s-.002-.024-.002-.024v-.024s-.002-.024-.002-.024v-.023s-.002-.024-.002-.024v-.024s-.002-.024-.002-.024v-.024s-.002-.024-.002-.024v-.024s-.002-.024-.002-.024v-.024s-.002-.024-.002-.024v-.023s-.002-.024-.002-.024v-.024s-.002-.024-.002-.024v-.024s-.002-.024-.002-.024v-.024s-.002-.024-.002-.024v-.024s-.002-.024-.002-.024v-.024s-.002-.024-.002-.024v-.024s-.002-.024-.002-.024v-.023s-.001-.024-.001-.024v-.024s-.001-.024-.001-.024v-.024s-.001-.024-.001-.024v-.024s-.001-.024-.001-.024v-.024s-.001-.024-.001-.024v-.024s-.001-.024-.001-.024v-.024s-.001-.024-.001-.024v-.024s-.001-.024-.001-.024v-.024s0-.024,0-.024v-.024s-.001-.024-.001-.024v-.024s0-.024,0-.024v-.024s0-.024,0-.024v-.024s0-.024,0-.024v-.024s0-.023,0-.023v-.024s0-.024,0-.024v-.024s0-.024,0-.024v-.024s0-.024,0-.024v-.024s0-.024,0-.024v-.024s0-.024,0-.024v-.024s0-.024,0-.024v-.024s0-.024,0-.024v-.047s0-.024,0-.024v-.024s0-.024,0-.024v-.024s0-.024,0-.024v-.071s0-.024,0-.024v-.071s0-.024,0-.024v-.071s0-.024,0-.024v-.024s0-.024,0-.024v-.024s0-.024,0-.024v-.024s0-.024,0-.024v-.024s0-.024,0-.024v-.024s0-.024,0-.024v-.024s0-.024,0-.024v-.024s0-.024,0-.024v-.024s0-.024,0-.024v-.024s0-.024,0-.024v-.024s0-.024,0-.024v-.024s0-.024,0-.024v-.024s0-.024,0-.024v-.024s0-.024,0-.024v-.024s0-.024,0-.024v-.024s0-.024,0-.024v-.024s.001-.024.001-.024l29.786-.403-.113-4.228,47.489-1.147-.017.552-.439,14.025-.48,15.49,2.138-.052h.06s.12-.004.12-.004l2.131-.052,2.186-.053,1.989-.048,2.234-.054.185-.004,3.23-.078,3.232-.078.185-.004,2.224-.054,3.304-.08,2.791-.067,2.759-.067.71-.017,14.74-.357-.156-6.594.569.622,3.081,3.382,2.239,2.454.254.279,9.595-.238,14.735-.365,9.36-.23,5.936-.149.005.193,7.409,10.45,4.324,2.014-4.717,10.132-.621,1.367-.381.84-.487,1.146-.461,1.118-.391,1.193-.3,1.241-.18,1.109-.086.981-.029.829-.178,5.688-.182,7.294-.703,25.289-.182,6.522-1.615-.101-.729.084-1.293.338-1.077.353-1.02.518-.581.456-.641.336-.938.345-1.181.379-1.276.394-.981.269-.257.07-.715.07-.885-.026-1.25-.211-.943-.072-.629.014-.638.158-.643.305-.561.521-.336.59-.084.535.194,1.939.043,1.015-.142.449-.252.437-.394.406-.602.31-.593.185-.59.038-.696-.134-2.267-.789-.842-.185-1.082-.182-.715.014-1.053.209-1.576.381-3.172,1.097-.869.324-.108.041-1.236.394-.897.127-1.169.014-1.166-.115-.446-.125-.969-.547-1.516-.789-1.377-.787-.972-.504-.897-.338-1.49-.633-1.432-.547-.046-.012-.756-.185-.984-.07-.981.096-1.476.029-1.672-.084-1.572-.031-1.348.07-1.178.266-2.462.866-1.233.353-1.145.242-.353-.012-2.462-.31-.629-.012-.31.058-.262.127-.194.166-.482.681-.823.969-.422.298-.022.007-.631.202-.765.082-1.075-.07-1.269-.127-.703-.029-.396-.017-.595.101-1.2.358-2.212.518-.453.19-1.238.633-1.142.453-1.324.401-1.533.595-2.769,1.329-.777.286-.744.091-1.497-.101-1.567-.221-1.238-.101-.283-.024-1.488.012-.497.029-.425.024-.322.079-.542.134-.914.377-1.456.763-1.36.837-1.25,1.003-.955.705-1.248.626-1.396.47-.741.137-1.145.024-1.109-.218-1.761-.549-.78-.089-.667-.022-.859.142-.497.228-.298.139-.545.501-.427.626-.984-.389.209-4.105,2.203.106.014-.278.127.007.139.007.355-7.066.036-.307.084-.334.074-.355.041-.348-.139-.007-1.641-.082-.859-.043.362-7.186.019-.377-.645-.218-17.856-3.889-6.63-1.449-5.955-1.298-10.576,2.104-7.769,1.629-12.462,2.596-.5-4.595.26-1.408.461-2.498.234-1.267v-.005s.001-.005.001-.005v-.007s.001-.005.001-.005v-.005s.001-.005.001-.005v-.007s.001-.005.001-.005v-.005s.001-.007.001-.007v-.005s.001-.005.001-.005v-.005s.001-.007.001-.007v-.005s.001-.005.001-.005v-.005s.001-.007.001-.007v-.005s.001-.005.001-.005v-.005s.001-.007.001-.007v-.005s.001-.005.001-.005v-.005s.001-.007.001-.007v-.005s.002-.005.002-.005v-.005s.001-.007.001-.007v-.005s.001-.005.001-.005v-.005s.001-.007.001-.007v-.005s.002-.005.002-.005v-.007s.001-.005.001-.005v-.005s.002-.005.002-.005v-.007s.001-.005.001-.005v-.005s.002-.005.002-.005v-.007s.001-.005.001-.005v-.005s.002-.005.002-.005v-.007s.001-.005.001-.005v-.005s.002-.005.002-.005v-.007s.002-.005.002-.005v-.005s.002-.005.002-.005v-.007s.002-.005.002-.005v-.005s.001-.005.001-.005v-.007s.002-.005.002-.005v-.005s.002-.005.002-.005v-.007s.002-.005.002-.005v-.005s.002-.005.002-.005v-.007s.002-.005.002-.005v-.005s.002-.005.002-.005v-.007s.002-.005.002-.005v-.005s.002-.005.002-.005v-.007s.002-.005.002-.005v-.005s.002-.005.002-.005v-.007s.002-.005.002-.005v-.005s.002-.005.002-.005v-.007s.002-.005.002-.005v-.005s.002-.005.002-.005v-.007s.002-.005.002-.005v-.005s.002-.005.002-.005v-.007s.002-.005.002-.005v-.005s.002-.005.002-.005v-.007s.002-.005.002-.005v-.005s.002-.005.002-.005v-.007s.002-.005.002-.005v-.005s.002-.005.002-.005v-.007s.002-.005.002-.005v-.005s.002-.005.002-.005v-.007s.002-.005.002-.005v-.005s.002-.005.002-.005v-.007s.002-.005.002-.005v-.005s.002-.005.002-.005v-.007s.002-.005.002-.005v-.005s.002-.005.002-.005v-.007s.002-.005.002-.005v-.005s.002-.005.002-.005v-.007s.002-.005.002-.005v-.005s.002-.005.002-.005v-.007s.002-.005.002-.005v-.005s.002-.005.002-.005v-.007s.002-.005.002-.005v-.005s.002-.005.002-.005v-.006s.002-.005.002-.005v-.006s.002-.005.002-.005v-.005s.002-.006.002-.006v-.005s.002-.006.002-.006v-.005s.002-.005.002-.005v-.006s.002-.005.002-.005v-.005s.002-.006.002-.006v-.005s.002-.006.002-.006v-.005s.002-.005.002-.005v-.006s.002-.005.002-.005v-.005s.002-.006.002-.006v-.005s.002-.006.002-.006v-.005s.002-.005.002-.005v-.006s.002-.005.002-.005v-.005s.002-.006.002-.006v-.005s.002-.005.002-.005v-.006s.002-.005.002-.005v-.005s.002-.006.002-.006v-.005s.002-.005.002-.005v-.006s.002-.005.002-.005v-.005s.002-.006.002-.006v-.005s.002-.005.002-.005v-.006s.002-.005.002-.005v-.005s.002-.005.002-.005v-.006s.002-.005.002-.005v-.005s.002-.006.002-.006v-.005s.002-.005.002-.005v-.006s.002-.005.002-.005v-.005s.002-.005.002-.005v-.006s.002-.005.002-.005v-.005s.002-.006.002-.006v-.005s.002-.005.002-.005v-.005s.002-.006.002-.006v-.005s.002-.005.002-.005v-.005s.002-.006.002-.006v-.005s.002-.005.002-.005v-.005s.002-.006.002-.006v-.005s.002-.005.002-.005v-.005s.002-.006.002-.006v-.005s.002-.005.002-.005v-.005s.002-.006.002-.006v-.005s.002-.005.002-.005v-.005s.002-.005.002-.005v-.006s.003-.005.003-.005v-.005s.002-.005.002-.005v-.006s.002-.005.002-.005v-.005s.003-.005.003-.005v-.005s.002-.006.002-.006v-.005s.003-.005.003-.005v-.005s.002-.005.002-.005v-.005s.003-.006.003-.006v-.005s.003-.005.003-.005v-.005s.002-.005.002-.005v-.006s.003-.005.003-.005v-.005s.003-.005.003-.005v-.005s.002-.005.002-.005v-.005s.003-.006.003-.006v-.005s.003-.005.003-.005v-.005s.003-.005.003-.005v-.005s.003-.005.003-.005v-.006s.003-.005.003-.005v-.005s.003-.005.003-.005v-.005s.003-.005.003-.005v-.005s.003-.005.003-.005v-.006s.003-.005.003-.005v-.005s.003-.005.003-.005v-.005s.003-.005.003-.005v-.005s.003-.005.003-.005v-.005s.003-.005.003-.005v-.006s.003-.005.003-.005v-.005s.003-.005.003-.005v-.005s.003-.005.003-.005v-.005s.003-.005.003-.005v-.005s.003-.005.003-.005v-.005s.003-.005.003-.005v-.005s.003-.005.003-.005v-.005s.003-.006.003-.006v-.005s.003-.005.003-.005v-.005s.003-.005.003-.005v-.005s.003-.005.003-.005v-.005s.003-.005.003-.005v-.005s.003-.005.003-.005v-.005s.003-.005.003-.005v-.005s.003-.005.003-.005v-.005s.003-.005.003-.005v-.005s.003-.005.003-.005v-.005s.003-.005.003-.005v-.005s.003-.005.003-.005v-.005s.003-.005.003-.005v-.005s.003-.005.003-.005v-.005s.003-.005.003-.005v-.005s.003-.005.003-.005v-.005s.003-.005.003-.005v-.005s.003-.005.003-.005v-.005s.003-.005.003-.005v-.005s.003-.005.003-.005v-.005s.003-.005.003-.005v-.005s.003-.005.003-.005v-.005s.003-.005.003-.005l.002-.005v-.005s.003-.005.003-.005v-.005s.003-.005.003-.005v-.005s.003-.005.003-.005l.002-.005v-.005s.003-.005.003-.005v-.005s.003-.005.003-.005l.002-.005v-.005s.003-.005.003-.005v-.005s.003-.005.003-.005v-.005s.003-.005.003-.005v-.005s.003-.005.003-.005l.002-.005.002-.005v-.005s.003-.005.003-.005v-.003s.002-.003.002-.003v-.003s.002-.003.002-.003v-.003s.002-.003.002-.003v-.003s.002-.003.002-.003v-.003s.002-.003.002-.003v-.003s.002-.003.002-.003v-.003s.002-.003.002-.003v-.003s.002-.003.002-.003v-.003s.002-.003.002-.003v-.003s.002-.003.002-.003v-.003s.002-.003.002-.003v-.003s.002-.003.002-.003v-.003s.002-.003.002-.003v-.003s.002-.003.002-.003v-.003s.002-.003.002-.003v-.003s.002-.003.002-.003v-.003s.002-.003.002-.003v-.003s.002-.003.002-.003v-.003s.002-.003.002-.003v-.003s.002-.003.002-.003v-.003s.002-.003.002-.003v-.003s.002-.003.002-.003v-.003s.002-.003.002-.003v-.003s.002-.003.002-.003v-.003s.002-.003.002-.003v-.003s.002-.003.002-.003v-.003s.002-.003.002-.003v-.003s.002-.003.002-.003v-.003s.002-.003.002-.003v-.003s.002-.003.002-.003v-.003s.002-.003.002-.003v-.003s.002-.003.002-.003v-.003s.002-.003.002-.003v-.003s.002-.003.002-.003v-.003s.002-.003.002-.003v-.003s.002-.003.002-.003v-.003s.002-.003.002-.003v-.003s.002-.003.002-.003v-.003s.002-.003.002-.003v-.003s.002-.003.002-.003v-.003s.002-.003.002-.003v-.003s.002-.003.002-.003v-.003s.002-.003.002-.003v-.003s.002-.003.002-.003v-.003s.002-.003.002-.003v-.003s.002-.003.002-.003v-.003s.002-.003.002-.003v-.003s.002-.003.002-.003v-.003s.002-.003.002-.003v-.003s.002-.003.002-.003v-.003s.002-.003.002-.003v-.003s.002-.003.002-.003v-.003s.002-.003.002-.003v-.003s.002-.003.002-.003v-.003s.002-.003.002-.003v-.003s.002-.003.002-.003v-.003s.002-.003.002-.003v-.003s.002-.003.002-.003v-.003s.002-.003.002-.003v-.003s.002-.003.002-.003v-.003s.002-.003.002-.003v-.003s.002-.003.002-.003v-.003s.002-.003.002-.003v-.003s.002-.003.002-.003v-.003s.002-.003.002-.003v-.003s.002-.003.002-.003v-.003s.002-.003.002-.003v-.003s.002-.003.002-.003v-.003s.002-.003.002-.003v-.003s.002-.003.002-.003v-.003s.002-.003.002-.003v-.003s.002-.003.002-.003v-.003s.002-.003.002-.003v-.003s.002-.003.002-.003v-.003s.002-.003.002-.003v-.003s.002-.003.002-.003v-.003s.002-.003.002-.003v-.003s.002-.003.002-.003v-.003s.002-.003.002-.003v-.003s.002-.003.002-.003v-.003s.002-.003.002-.003v-.003s.002-.003.002-.003v-.003s.002-.003.002-.003v-.003s.002-.003.002-.003v-.003s.002-.003.002-.003v-.003s.002-.003.002-.003v-.003s.002-.003.002-.003v-.003s.002-.003.002-.003v-.003s.002-.003.002-.003v-.003s.002-.003.002-.003v-.003s.002-.003.002-.003v-.003s.002-.003.002-.003v-.003s.002-.003.002-.003v-.003s.002-.003.002-.003v-.003s.002-.003.002-.003v-.003s.002-.003.002-.003v-.003s.002-.003.002-.003v-.003s.002-.003.002-.003v-.003s.002-.003.002-.003v-.003s.002-.003.002-.003v-.003s.002-.003.002-.003v-.003s.002-.003.002-.003v-.003s.002-.003.002-.003v-.003s.002-.003.002-.003v-.003s.002-.003.002-.003v-.003s.002-.003.002-.003v-.003s.002-.003.002-.003v-.003s.002-.003.002-.003v-.003s.002-.003.002-.003v-.003s.002-.003.002-.003v-.003s.002-.003.002-.003v-.003s.002-.003.002-.003v-.003s.002-.003.002-.003v-.003s.002-.003.002-.003v-.003s.002-.003.002-.003v-.003s.002-.003.002-.003v-.003s.002-.003.002-.003v-.003s.002-.003.002-.003v-.003s.002-.003.002-.003v-.003s.002-.003.002-.003v-.003s.002-.003.002-.003v-.003s.002-.003.002-.003v-.003s.002-.003.002-.003v-.003s.002-.003.002-.003v-.003s.002-.003.002-.003v-.003s.002-.003.002-.003v-.003s.002-.003.002-.003v-.003s.002-.003.002-.003v-.003s.002-.003.002-.003v-.003s.002-.003.002-.003v-.003s.002-.003.002-.003v-.003s.002-.003.002-.003v-.003s.002-.003.002-.003v-.003s.002-.003.002-.003v-.003s.002-.003.002-.003v-.003s.002-.003.002-.003v-.003s.002-.003.002-.003v-.003s.002-.003.002-.003v-.003s.002-.003.002-.003v-.003s.002-.003.002-.003v-.003s.002-.003.002-.003v-.003s.002-.003.002-.003v-.003s.002-.003.002-.003v-.003s.002-.003.002-.003v-.003s.002-.003.002-.003v-.003s.002-.003.002-.003v-.003s.002-.003.002-.003v-.003s.002-.003.002-.003v-.003s.002-.003.002-.003v-.003s.002-.003.002-.003v-.003s.002-.003.002-.003v-.003s.002-.003.002-.003v-.003s.002-.003.002-.003v-.003s.002-.003.002-.003v-.003s.002-.003.002-.003v-.003s.002-.003.002-.003v-.003s.003-.003.003-.003v-.003s.002-.003.002-.003v-.003s.002-.003.002-.003v-.003s.002-.003.002-.003v-.003s.002-.003.002-.003v-.003s.002-.003.002-.003v-.003s.003-.003.003-.003v-.003s.002-.003.002-.003v-.003s.002-.003.002-.003v-.003s.002-.003.002-.003v-.003s.003-.003.003-.003v-.003s.002-.003.002-.003v-.003s.002-.003.002-.003v-.003s.003-.003.003-.003v-.003s.002-.003.002-.003v-.003s.002-.003.002-.003v-.003s.003-.003.003-.003v-.003s.002-.003.002-.003v-.003s.002-.003.002-.003v-.003s.003-.003.003-.003v-.003s.002-.003.002-.003v-.003s.003-.003.003-.003v-.003s.002-.003.002-.003v-.003s1.145-2.77,1.145-2.77l.003-.009.004-.009.004-.009.003-.009.004-.009.004-.009.003-.009.004-.008.003-.009.004-.009.003-.009.004-.009.003-.009.003-.009.004-.009.003-.009.003-.009.003-.009.003-.009.003-.009.004-.009.003-.009.003-.009.003-.009.003-.009.003-.009.003-.009.003-.009.003-.009.003-.009.003-.009.003-.009.003-.009.003-.009.003-.009.003-.009.003-.009.003-.009.003-.009.003-.009.003-.009.003-.009.003-.009.003-.009.003-.009.003-.009.003-.009.003-.009.003-.009.003-.009.003-.009.003-.009.003-.009.003-.009.003-.009.003-.009.003-.009.003-.009.003-.009.003-.009.003-.009.003-.009.003-.009.003-.009.003-.009.003-.009.003-.009.003-.009.003-.009.003-.009.003-.009.003-.009.003-.009.003-.009.003-.009.003-.009.003-.009.003-.009.003-.009.003-.009.003-.009.003-.009.003-.009.003-.009.003-.009.003-.009.003-.009.003-.009.003-.009.003-.009.003-.009.003-.009.003-.009.003-.009.003-.009.003-.009.003-.009.003-.009.003-.009.003-.009.003-.009.003-.009.003-.009.003-.009.003-.009.003-.009.003-.009.003-.009.003-.009.003-.009.003-.009.002-.009.003-.009.003-.009.003-.009.002-.009.003-.009.003-.009.002-.009.003-.009.002-.009.003-.009.002-.009.003-.009.002-.009.002-.009.002-.009.003-.009.002-.009.002-.009.002-.009.002-.009.002-.009.002-.009.002-.009.002-.009.002-.009.002-.009.002-.009.002-.009.002-.009.002-.009.002-.009.002-.009.002-.009.002-.009.002-.009.002-.009.002-.009.002-.009.002-.009.002-.009.002-.009.002-.009.002-.009.002-.009.002-.009.002-.009.002-.009.002-.009.002-.009.002-.009.002-.009.002-.009.002-.009.002-.009.002-.009.002-.009.002-.009.002-.009.002-.009.002-.009.002-.009.002-.009.002-.009.002-.009.002-.009.002-.009.002-.009.002-.009.002-.009.002-.009.002-.009.002-.009.002-.009.002-.009.002-.009.002-.009.002-.009.002-.009.002-.009.002-.009.002-.009.002-.009.002-.009.002-.009.002-.009.002-.009.002-.009.002-.009.002-.009.002-.009.002-.009.002-.009.002-.009.002-.009.002-.009.002-.009.002-.009.002-.009.002-.009.002-.009.002-.009.002-.009.002-.009.002-.009.002-.009.002-.009.002-.009.002-.009.002-.009.002-.009v-.009s.003-.009.003-.009l.002-.009v-.009s.003-.009.003-.009l.002-.009v-.009s.003-.009.003-.009v-.009s.003-.009.003-.009l.002-.009v-.009s.003-.009.003-.009l.002-.009v-.009s.003-.009.003-.009v-.009s.003-.009.003-.009v-.009s.003-.009.003-.009v-.009s.003-.009.003-.009v-.009s.003-.009.003-.009v-.009s.003-.009.003-.009v-.009s.003-.009.003-.009v-.009s.003-.009.003-.009v-.009s.003-.009.003-.009v-.009s.003-.009.003-.009v-.009s.003-.009.003-.009v-.009s.003-.009.003-.009v-.009s.002-.009.002-.009v-.009s.003-.009.003-.009v-.009s.002-.009.002-.009v-.009s.002-.009.002-.009v-.009s.002-.009.002-.009v-.009s.002-.009.002-.009v-.009s.002-.009.002-.009v-.009s.002-.009.002-.009v-.009s.002-.009.002-.009v-.009s.002-.009.002-.009v-.009s.002-.009.002-.009v-.009s.002-.009.002-.009v-.009s.002-.009.002-.009v-.009s.002-.009.002-.009v-.009s.002-.009.002-.009v-.009s.002-.009.002-.009v-.009s.002-.009.002-.009v-.009s.002-.009.002-.009v-.009s.002-.009.002-.009v-.009s.002-.009.002-.009v-.009s.002-.009.002-.009v-.009s.002-.009.002-.009v-.009s.002-.009.002-.009v-.009s.002-.009.002-.009v-.009s.002-.009.002-.009v-.009s.002-.009.002-.009v-.009s.002-.009.002-.009v-.009s.001-.009.001-.009v-.009s.002-.009.002-.009v-.009s.001-.009.001-.009v-.009s.001-.009.001-.009v-.009s.001-.009.001-.009v-.009s.001-.009.001-.009v-.009s.001-.009.001-.009v-.009s.001-.009.001-.009v-.009s.001-.009.001-.009v-.009s.001-.009.001-.009v-.009s.001-.009.001-.009v-.009s.001-.009.001-.009v-.009s0-.009,0-.009v-.009s.001-.009.001-.009v-.009s0-.009,0-.009v-.009s.001-.009.001-.009v-.009s0-.009,0-.009v-.009s0-.009,0-.009v-.009s0-.009,0-.009v-.009s0-.009,0-.009v-.009s0-.009,0-.009v-.009s0-.009,0-.009v-.009" vector-effect="none" fill="none" stroke="#333" stroke-linecap="square" stroke-linejoin="bevel" stroke-width=".5"/>
    <path id="danielmac" d="M298.674,219.997l3.556,1.656,4.624,2.154,9.262,4.314,2.435,1.135,15.586,7.256,2.044.864,8.105,3.761-.043,2.108,1.032.355.163.076.077-.167.283-.606.022-.048,1.01.468,3.083,1.436,2.272,1.058.168.078.307-.656.074-.167,2.013.935,3.827,1.784,1.348.628.461.214.19.5-14.3,8.67.415,1.091,1.382,3.008-.573.215-1.205-.051-.175-.094-.18-.096-.869-.182-.139-.017-1.413-.045-.655-.231-.765-.055-.002-1-1.44.651-5.02,2.252-1.896.845-.091,4.393-.238,11.213-.062,2.987-.66,1.351-.576-.317-.653-.235-.641-.19-.511-.079-.326.01-.693.182-.782.331-.821.417-.696.417-2.565,1.74-1.627,1.041-.835.465-.41.185-1.413.384-.929.11-1.022.038-1.699-.067-.888-.187-.89-.259-.873-.353-.883-.54-.996-.809-.77-.698-1.963-1.876-.585-.487-.669-.417-.773-.358-.744-.228-.909-.154-.674-.036-.662.055-.9.17-.854.228-3.702,1.334-1.013.463-.701.379-.535.197-.645.156-.689.096-1.01.043-2.347-.226-1.14-.18-.9-.041.182-6.522.703-25.289.182-7.294.178-5.688.029-.829.086-.981.18-1.109.3-1.241.391-1.193.461-1.118.487-1.146.381-.84.621-1.367,4.717-10.132" vector-effect="none" fill="none" stroke="#333" stroke-linecap="square" stroke-linejoin="bevel" stroke-width=".5"/>
    <path id="waverly" d="M306.426,388.063l.732-.406,3.381-4.648,1.001,2.231.811,12.772.254,10.493.168,2.284.518,1.332,1.564,2.591.969,1.658,11.445-6.373,7.983-4.444,6.997-.708,5.104-2.563,2.323-.581,5.461-1.797,3.856-1.118,1.461-.425.59,2.207.269,1.464.18,1.533.108,1.37.166,3.146.146,1.19.322,1.327.518,1.281.458.818.828.849,1.2,1.041,1.372.578,1.915.557-1.408.818-2.491,1.38-1.207.672-1.216.674-2.575,1.428-.298.163,1.135.756.917.456.609.365.158.269-.286.161-.11.062-4.96,2.752-1.704.945-1.404.782-1.66.919-.444.247-1.017.564-1.157.643-1.449.804-1.761.979-1.744.967-.463.257-1.413,4.6-.005,2.534-.019,9.338-.022,11.196,1.898,28.958-5.139,2.939-17.11,9.79-3.63,2.083-3.755,1.852-2.267.881-1.79.602-.518.173-3.374.557-3.311.185-34.182.969-.024-1.113-.417-17.998-.245-10.622-.334-11.637-.142-4.849-.396-13.492-7.369.11-.098-4.609-.13-5.485-.022-.948-.096-4.175-.062-2.735-.031-1.272-.257-10.797-.079-4.218-1.876.038,2.008-1.358,11.208-6.207,1.711-.948,3.275-1.783,7.69-4.285,6.296-3.709,16.462-9.288" vector-effect="none" fill="none" stroke="#333" stroke-linecap="square" stroke-linejoin="bevel" stroke-width=".5"/>
  </g>
<style>
#g-transit-access-single-Artboard_1-wards-img rect, #g-transit-access-single-Artboard_1-wards-img circle, #g-transit-access-single-Artboard_1-wards-img path, #g-transit-access-single-Artboard_1-wards-img line, #g-transit-access-single-Artboard_1-wards-img polyline, #g-transit-access-single-Artboard_1-wards-img polygon { vector-effect: non-scaling-stroke; }
</style>
</svg>
