<?xml version="1.0" encoding="UTF-8"?>
<svg id="g-transit-access-single-Artboard_2-wards-img" xmlns="http://www.w3.org/2000/svg" baseProfile="tiny" version="1.2" viewBox="0 0 300 300">
  <!-- Generator: Adobe Illustrator 29.7.0, SVG Export Plug-In . SVG Version: 2.1.1 Build 138)  -->
  <g id="wards">
    <path id="riverheights" d="M140.186,133.162l.408.018.516.082,1.063.102.458-.02.312-.043.292-.071.242-.089.317-.172.459-.21,1.677-.604.387-.103.408-.077.3-.025.305.016.412.07.337.103.35.162.303.189.265.221.889.85.349.316.451.366.4.245.396.16.403.117.402.085.769.03.463-.017.421-.05.64-.174.186-.084.378-.211.737-.472,1.162-.788.315-.189.372-.189.354-.15.314-.083.148-.004.231.036.29.086.296.106.261.143.264.204.25.22.192.263.155.302.363.804.211.374.487.759.29.372.305.276.352.196.102.039-.139.226-.315.507-.077.125.738.291-.185.101-1.268.685-1.251.688-1.259.679.985,1.812.197.363.198.362,2.777,5.037,2.784,5.016-.394,1.102-.016.26.036.301.095.243.181.365.286,1.415.051.254-.409,2.083-.061,1.843-.085,2.553-.09,2.718-.022.672-.01.274,1.362,2.486.752,4.046-.844,4.611-.052.289-.076,1.014.149-.084.563-.312.092-.051.634-.352.656-.364v.145l.083.418.154.496.248.588.582.954.819,1.223.861,1.213.394.579.247.447.155.376.079.276-.662.192-1.746.506-2.473.814-1.052.263-2.311,1.161-3.169.321-3.615,2.013-5.184,2.886-.439-.751-.709-1.174-.235-.603-.076-1.035-.115-4.752-.367-5.785-.453-1.011-1.531,2.105-.331.184-7.456,4.207-2.852,1.68-1.852-3.349-.5-.774-1.275-1.314.142-.464,4.213-13.783,1.007-3.298.136-.58.024-.123.025-.127.057-.446.03-.45.015-.559-1.596.272-4.83.816.213-5.726.115-3.148.238-6.383.185-4.985.112-3.025,1.593-2.782-.301-.664-.118-.262.444-.122.578-.178.535-.172.425-.156.29-.152.263-.206.462-.235.488-.16.586-.153.33-.038.731.046" vector-effect="none" fill="none" stroke="#333" stroke-linecap="square" stroke-linejoin="bevel" stroke-width=".5"/>
    <path id="stboniface" d="M190.633,109.514l.627.04.552.036.286-.021-.68,2.773.125.35.089-.011,2.283-.275.262-.015.459-.007.476.02.459.045.361.054,17.162,4.279-.397,2.971-.139,1.607.118,3.023.078,2.754.008.273-.009.663.16,4.821.009.3.008.297.035,2.231.386-.011.062,2.247.138.159,5.473,6.33,3.547,3.379,2.138.405.368.15.415.239.404.275.455.41.239.4.146.421.087.947.029.486-.125.003.205,7.34.163,5.795-.049.798.003.21.366,14.366-.496-.132-.084-.023-.251-.066-.259-.068-.155-.041-.098-.026-.098-.026-.098-.026-.097-.026-.12-.032-.174-.046-.636.309-.131-.305-.128-.241-.002-.003v-.003s-.003-.003-.003-.003l-.002-.003-.002-.004-.002-.003-.002-.003-.002-.003-.002-.003-.002-.004-.002-.003-.003-.003-.002-.003-.002-.003-.002-.004-.002-.003-.002-.003-.002-.003-.002-.003-.002-.003-.002-.004-.002-.003-.002-.003-.002-.003-.002-.003-.002-.003-.002-.003-.003-.004-.002-.003-.002-.003-.002-.003-.002-.003-.002-.003-.002-.004-.002-.003-.003-.003-.002-.003-.002-.003-.002-.003-.002-.003-.002-.003-.003-.004-.002-.003-.002-.003-.002-.003-.002-.003-.003-.003-.002-.003-.002-.003-.002-.003-.002-.003-.003-.003-.002-.004-.002-.003-.002-.003-.002-.003-.003-.003-.002-.003-.002-.003-.002-.003-.003-.003-.002-.003-.002-.003-.003-.003-.002-.003-.002-.003-.002-.003-.003-.003-.002-.003-.002-.003-.003-.003-.002-.003-.002-.003-.003-.003-.002-.004-.002-.003-.003-.003-.002-.003-.002-.003-.003-.003-.002-.003-.002-.003-.003-.003-.002-.003-.003-.003-.002-.003-.002-.003-.003-.003-.002-.003-.003-.003-.002-.003-.002-.002-.003-.003-.002-.003-.003-.003-.002-.003-.002-.003-.003-.003-.002-.003-.003-.003-.002-.003-.003-.003-.002-.003-.003-.003-.002-.003-.002-.003-.003-.002-.002-.003-.003-.003-.002-.003-.003-.003-.002-.003-.003-.003-.002-.003-.003-.002-.002-.003-.003-.003-.002-.003-.003-.003-.002-.003-.003-.003-.002-.002-.003-.003-.002-.003-.003-.003-.002-.003-.003-.003-.003-.002-.002-.003-.003-.003-.002-.003-.003-.003-.002-.002-.003-.003-.003-.003-.002-.003-.003-.003-.002-.002-.003-.003-.002-.003-.003-.003-.003-.002-.002-.003-.003-.003-.003-.003-.002-.003-.003-.002-.002-.003-.003-.003-.003-.002-.002-.003-.003-.003-.003-.003-.002-.002-.003-.003-.002-.003-.003-.002-.003-.003-.002-.003-.003-.002-.003-.003-.002-.003-.003-.002-.003-.003-.002-.003-.003-.002-.003-.003-.002-.003-.003-.002-.003-.003-.002-.003-.003-.002-.003-.003-.003-.002-.002-.003-.003-.003-.003-.002-.002-.003-.003-.002-.003-.003-.003-.003-.002-.002-.003-.003-.003-.002-.003-.003-.002-.003-.003-.002-.003-.003-.003-.002-.002-.003-.003-.002-.003-.003-.003-.003-.003-.002-.002-.003-.003-.002-.003-.003-.003-.002-.003-.003-.002-.002-.003-.003-.003-.002-.003-.003-.003-.002-.002-.003-.003-.002-.083-.06-.358.291-.619-.621-.11.104-.07.074-.092.103-.096.114-.077.097-.046-.012-.151-.04-.141-.037-.129-.035-.122-.033-.112-.029-.098-.026-.102-.027-.098-.026-.092-.024-.098-.026-.102-.027-.098-.026-.092-.025-.098-.025-.102-.027-.098-.026-.092-.025-.098-.026-.11-.028-.203-.054-.188-.05-.191-.051-.189-.05-.189-.05-.191-.051-.336-.089-.176-.047-.336-.089-.21-.055-.199-.052-.102-.028-.098-.025-.098-.026-.102-.027-.102-.027-.098-.026-.098-.026-.092-.024-.092-.025-.098-.026-.098-.026-.102-.027-.102-.027-.098-.026-.098-.025-.098-.026-.102-.027-.098-.026-.097-.026-.103-.027-.102-.027-.098-.026-.097-.026-.093-.024-.092-.025-.098-.026-.087-.023-.149-.039-.142-.038-.838-2.331-3-8.337-5.025.21-2.324,1.164.067-.429.086-.339.258-.433.043-.1-.037-.197-.053-.075-.035-.112-.329-.385-.01-.103.024-.078.111-.12.154-.041.229.02.302.095.049.003.051-.02.103-.129.047-.189.054-.127.076-.112.079-.048.04.014.079.068.076.173v.059l.022.086.067.035.046-.022.033-.049.025-.181v-.264l-.073-.218-.074-.478-.084-.176-.04-.129-.064-.077-.078-.005-.427.149-.091.065-.199.272-.147.076-.093.003-.1-.041-.103-.106-.074-.195v-.054s.026-.084.026-.084l.205-.309.083-.195.077-.4-.017-.141-.061-.084-.095-.07-.074-.007-.093.035-.201.172-.137.164-.075.121-.087.088-.08.053-.14.033h-.061l-.121-.042-.146-.175-.039-.148.026-.13.096-.126.188-.289.025-.103-.013-.05-.09-.072-.061-.024-.211-.14-.116-.092-.028-.058v-.146l.045-.057.072-.039.041-.068v-.039l-.017-.035-.109-.026-.148.008-.042.015-.092.057-.159.15-.098.055-.045-.01-.1-.122-.089-.168-.029-.028-.028-.124.074-.147.1-.095.137-.092.072-.09-.028-.071-.06-.003-.135.045-.273.146-.088.08-.13.07-.051-.008-.151-.125-.278-.138-.125-.103-.305-.375-.007-.071.011-.078.098-.175.218-.114.286-.095.082-.059.008-.063-.066-.108-.149-.078-.18-.064-.321.052-.137-.061-.058-.053-.339-.213-.09-.029-.16-.01-.171.097-.05-.005-.089-.077-.017-.048-.038-.73.026-.201v-.018s-.013-.128-.013-.128l-.078-.224-.071-.289-.066-.362-.164-.258-.203-.23-.183-.325-.105-.049-.088.023-.134.189-.116.268-.072.13-.166.138-.24.098-.161.025-.087-.039-.046-.07v-.093s-.065-.379-.065-.379l.015-.272.065-.116.223-.187.352-.337.136-.087.183-.07.071-.017.066.008.195.076.104.085.101.058h.05s.047-.018.047-.018l.034-.036.117-.343-.064-.254-.051-.109.034-.1.045-.028.271.004.092-.049.014-.041-.041-.053-.271-.148-.098-.067-.106-.129-.041-.016-.08.024-.304.335-.037.073-.095.092-.085.037-.049-.008-.046-.045-.073-.114-.039-.128-.014-.155.023-.112-.002-.235.056-.481.026-.075.172-.249.201-.12.262-.089.122-.09.097-.104.039-.08.023-.153-.046-.136-.045-.057-.043-.055-.113-.238-.059-.065-.105-.168-.026-.114-.06-.055-.021-.02-.141-.184-.111-.173.004-.161.053-.03.276-.03.329.034.272.068.17-.017.158-.1.091-.111.049-.124-.091-.293-.097-.142-.142-.053-.25.013-.158-.088-.191-.075-.189-.026-.063.014-.13-.01-.059-.041-.032-.061.011-.129.266-.228.09-.046.378-.126.308-.23.122-.177.007-.073-.029-.056-.088-.061-.143-.02-.225-.112-.203-.082-.175-.035-.247-.004-.104-.025-.062-.08-.034-.131-.034-.05-.029-.159.065-.25.055-.072.146-.088.154-.047.111-.109.083-.362.073-.124.061-.046.143-.052.199-.041.051-.037.09-.266-.003-.104-.075-.222-.06-.082-.334-.041-.271.041-.465-.003-.156-.038-.087-.066-.09-.133.003-.079.111-.201.136-.066.174-.111.44-.184.275-.049.323-.035.093-.09-.021-.146-.066-.066-.126-.043-.49-.08h-.392l-.361.066-.125-.027-.041-.049.021-.136.134-.175.122-.122.131-.055.093-.007.08-.032.131-.024.164.013.201-.038.235-.111.118-.167-.007-.121-.035-.059-.117-.06-.122-.007-.191.021-.218-.021-.253.076-.105.046-.128.021-.059-.028-.125-.153-.027-.131.013-.041.028-.359-.003-.193.073-.418-.008-.14-.021-.042-.072-.046-.055-.005-.496.175-.174.106-.064.008-.228-.124-.02-.151.059-.17-.002-.034-.009-.165.024-.202.098-.164.035-.133-.035-.156-.058-.112-.083-.089-.114-.077-.061-.016-.085.009-.064.058-.236.151-.138.123-.021.092.047.146.086.106.013.114-.018.052-.162.066-.1-.018-.165-.074-.098-.096-.023-.113.035-.256-.114-.35-.11-.667.004-.347-.011-.161-.029-.053-.037-.026-.197-.025-.584.005-.063-.032-.04-.149.07-.223.063-.43.078-.276.003-.098-.084-.362.055-.12.059-.042.442-.175.109-.002.156.095.066.096.12.331.053.059.071.029.133-.064.04-.061.022-.083-.066-.299-.011-.167-.078-.298-.053-.34-.096-.061-.677-.115-.116.005-.075.046-.058.111-.058.037-.075-.002-.072-.053-.037-.066-.016-.178.016-.204-.008-.055-.059-.092-.092-.022-.101.053-.101.133-.313.289-.095.029-.103-.048-.048-.098.014-.097.17-.486.101-.133.138-.071.293-.102.479-.048.053-.027.017-.059-.01-.058-.159-.156-.272-.212-.314-.193-.048.027-.548.298-.4.216-.795.433-.101-.035-3.914,2.126-.926.515-.894.478-.162-.053-.655-.146-.655-.1-.661-.046-.695-.013-.497.033-.641.073-.596.086-1.462.272-.668.139-.714.178-.681.192-.576.092-.641.053-.451-.026-.291-.053-.523-.212-.397-.192-.363-.231-.263-.204-.142-.18-.211-.35-.211-.503-.192-.623-.073-.592.013-.606.073-.82.126-.681.191-.602.212-.577.201-.471.11-.256.291-.55.361-.547.79-1.041.325-.466.33-.554.165-.251.832-1.125.835-1.126.992-1.44.174-.275.187-.296.187-.351.125-.35.088-.446.053-.566-.033-.687-.108-.525-.162-.508-.253-.546-.264-.365-.24-.365-.052-.079-.855-1.622-.356-.615-.358-.49-.391-.579-.076-.166-.173-.379-.17-.552-.045-.508-.008-.549.009-.444.027-.115.029-.126.09-.236.214-.378.263-.321.305-.305.353-.296.117-.078.146-.096.851-.378.865-.348.454-.165.264-.08.263-.049.205-.017,1.48.149.847.041,2.121.149.403.016,1.167-.042.487-.032.492-.077.439-.12.303-.108.238-.139.202-.186.166-.186.18-.239.164-.329.106-.321.086-.436" vector-effect="none" fill="none" stroke="#333" stroke-linecap="square" stroke-linejoin="bevel" stroke-width=".5"/>
    <path id="elmwood" d="M192.778,86.531l2.794-4.854.118-.145,4.513,2.178.16-.33.075.036,2.696,1.303-.314.65.075.036.147.071.058.028.102.049.123.059.127.062.125.06.147.071.08.039.067.032.136.066.137.066.136.066.137.066.136.066.137.066.136.066.136.066.137.066.136.066.137.066.139.067.138.067.136.066.137.066.136.066.137.066.136.066.137.066.136.066.137.066.136.066.136.066.137.066.136.066.137.066.136.066.137.066.045.022.125.06.125.06.125.06.125.06.125.06.125.06.125.06.125.06.193.093.152.074.117.056,3.153-4.068,5.437,2.628,5.601,2.707,3.108-5.311.409.17-.225.682-.18.516-.148.56-.108.607-.042.452-.016.424.042,3.551-.046.608-.099.601-.151.591-.203.575-.252.555-.301.53-.346.502-.389.47-.428.433-.465.394-1.049,2.191-1.124,2.392-.047.099-.071.152-.06.147-.743,1.813-.491.664-1.437.802-.995.932-1.68,3.154-.536,1.005-.25.55-.25.6-.174.688-.335,1.096-.049.162-.16.636-.333,1.039-.449,1.063-.226.973-17.162-4.279-.361-.054-.459-.045-.476-.02-.459.007-.262.015-2.283.275-.089.011-.125-.35.68-2.773-.286.021-.552-.036-.627-.04.021-.148-.015-.288-.065-.222-.256-.403-.139-.164-.148-.14-.197-.132-.206-.116-.632-.329-.255-.114-.296-.107-.691-.198-.403-.14-.337-.156-.789-.386-.293-.171-.274-.183-1.637-1.218-.493-.352-.54-.386-1.753-1.433-.93-.947-.155-.23-.23-.486-.172-.535-.248-.947-.032-.24.013-.919.047-.497.053-.262.033-.094.062-.181.201-.468.228-.423.247-.422.363-.536.388-.375.556-.416.428-.228.59-.208.602-.182.703-.173.634-.13.903.436.954.461.023.011.136.066.023.011.114.055.113.055.058.027.057.027.113.055.114.055.114.055.113.055.114.055.136.066.113.054.623-1.257,1.158-2.022,3.185-5.564" vector-effect="none" fill="none" stroke="#333" stroke-linecap="square" stroke-linejoin="bevel" stroke-width=".5"/>
    <path id="mynarski" d="M168.165,79.612l10.338-10.439.047-.048,2.842-2.869,3.001-3.031,6.469,3.041.667-.812,1.196-1.254.386-.407,2.569,1.165.578.262-.387.837-.116.401-.053.402v.666l.074.647.096.328.137.357.286.562.317.689.264.625.127.487.074.593.012.385-.007.215-.14.556-.148.295-.261.328-.65.596-.529.335-.883.49-.068.031-.729.33-1.279.443-.596.248-1.213.542-.409.275-.442.349-.381.396-.328.435-.308.563-.148.335-.154.523-.107.503-.066.73v.704l.187,1.32.086.402.275.985.262.872.174.751.053.476.014.743-.047.818-.106.628-.021.123-.101.476-.236.689-.655,1.374-.243.429-.333.489-.302.328-.441.383-.69.503-.319.18-.311.175-.261.107-.228.074-.385.085-.634.13-.703.173-.602.182-.59.208-.428.228-.556.416-.388.375-.363.536-.247.422-.228.423-.201.468-.062.181-.033.094-.053.262-.047.497-.013.919.032.24.248.947.172.535.23.486.155.23.93.947,1.753,1.433.54.386.493.352,1.637,1.218.274.183.293.171.789.386.337.156.403.14.691.198.296.107.255.114.632.329.206.116.197.132.148.14.139.164.256.403.065.222.015.288-.021.148-.575-.052-3.207-.191-1.571-.082-.685-.132-1.901-.404-.122-.026-2.177-.46-.12-.025-.118-.025-1.384-.292-1.476-.285-.161-.056-.653-.138-.163-.035v-.005l-.827-.119-.165-.023-.165-.023-.414-.058-.414-.058.013-.097-.164-.024-.286-.133-.151-.07-.303-.141-2.729-1.272-1.885-.853-9.447-4.383,1.249-2.68-1.511-.704-.036.075-.075-.035-.958-.447-.2-.093-.952-.444-.573-.267-.572-.267-.39-.182-.457-.213-.853-.398-.112-.052-.122-.057.036-.868,1.802-1.384,6.136,2.844.148-.319,2.005-4.269.814-1.734.108-.355-9.462-4.425-.079.148-2.319-1.077,3.94-8.442.171.08.058.027-.032.068-.009.019,2.185,1.023.01-.021.008-.018.023-.049.247.115.114.053.039-.075.113.054.274.128-.02.037,8.034,3.763" vector-effect="none" fill="none" stroke="#333" stroke-linecap="square" stroke-linejoin="bevel" stroke-width=".5"/>
    <path id="stvital" d="M186.596,139.143l.894-.478.926-.515,3.914-2.126.101.035.795-.433.4-.216.548-.298.048-.027.314.193.272.212.159.156.01.058-.017.059-.053.027-.479.048-.293.102-.138.071-.101.133-.17.486-.014.097.048.098.103.048.095-.029.313-.289.101-.133.101-.053.092.022.059.092.008.055-.016.204.016.178.037.066.072.053.075.002.058-.037.058-.111.075-.046.116-.005.677.115.096.061.053.34.078.298.011.167.066.299-.022.083-.04.061-.133.064-.071-.029-.053-.059-.12-.331-.066-.096-.156-.095-.109.002-.442.175-.059.042-.055.12.084.362-.003.098-.078.276-.063.43-.07.223.04.149.063.032.584-.005.197.025.037.026.029.053.011.161-.004.347.11.667.114.35-.035.256.023.113.098.096.165.074.1.018.162-.066.018-.052-.013-.114-.086-.106-.047-.146.021-.092.138-.123.236-.151.064-.058.085-.009.061.016.114.077.083.089.058.112.035.156-.035.133-.098.164-.024.202.009.165.002.034-.059.17.02.151.228.124.064-.008.174-.106.496-.175.055.005.072.046.021.042.008.14-.073.418.003.193-.028.359-.013.041.027.131.125.153.059.028.128-.021.105-.046.253-.076.218.021.191-.021.122.007.117.06.035.059.007.121-.118.167-.235.111-.201.038-.164-.013-.131.024-.08.032-.093.007-.131.055-.122.122-.134.175-.021.136.041.049.125.027.361-.066h.392l.49.08.126.043.066.066.021.146-.093.09-.323.035-.275.049-.44.184-.174.111-.136.066-.111.201-.003.079.09.133.087.066.156.038.465.003.271-.041.334.041.06.082.075.222.003.104-.09.266-.051.037-.199.041-.143.052-.061.046-.073.124-.083.362-.111.109-.154.047-.146.088-.055.072-.065.25.029.159.034.05.034.131.062.08.104.025.247.004.175.035.203.082.225.112.143.02.088.061.029.056-.007.073-.122.177-.308.23-.378.126-.09.046-.266.228-.011.129.032.061.059.041.13.01.063-.014.189.026.191.075.158.088.25-.013.142.053.097.142.091.293-.049.124-.091.111-.158.1-.17.017-.272-.068-.329-.034-.276.03-.053.03-.004.161.111.173.141.184.021.02.06.055.026.114.105.168.059.065.113.238.043.055.045.057.046.136-.023.153-.039.08-.097.104-.122.09-.262.089-.201.12-.172.249-.026.075-.056.481.002.235-.023.112.014.155.039.128.073.114.046.045.049.008.085-.037.095-.092.037-.073.304-.335.08-.024.041.016.106.129.098.067.271.148.041.053-.014.041-.092.049-.271-.004-.045.028-.034.1.051.109.064.254-.117.343-.034.036-.047.02h-.05s-.101-.059-.101-.059l-.104-.085-.195-.076-.066-.008-.071.017-.183.07-.136.087-.352.337-.223.187-.065.116-.015.272.064.379v.093s.047.07.047.07l.087.039.161-.025.24-.098.166-.138.072-.13.116-.268.134-.189.088-.023.105.049.183.325.203.23.164.258.066.362.071.289.078.224.012.128v.018s-.025.201-.025.201l.038.73.017.048.089.077.05.005.171-.097.16.01.09.029.339.213.058.053.137.061.321-.052.18.064.149.078.066.108-.008.063-.082.059-.286.095-.218.114-.098.175-.011.078.007.071.305.375.125.103.278.138.151.125.051.008.13-.07.088-.08.273-.146.135-.045.06.003.028.071-.072.09-.137.092-.1.095-.074.147.028.124.029.028.089.168.1.122.045.01.098-.055.159-.15.092-.057.042-.015.148-.008.109.026.017.035v.039l-.041.068-.072.039-.045.057v.146l.028.058.116.092.211.14.061.024.09.072.013.05-.025.103-.188.289-.096.126-.026.13.039.148.146.175.121.042h.061l.14-.033.08-.053.087-.088.075-.121.137-.164.201-.172.093-.035.074.007.095.07.061.084.017.141-.077.4-.083.195-.205.309-.025.084v.054s.073.195.073.195l.103.106.1.041.093-.003.147-.076.199-.272.091-.065.427-.149.078.005.064.077.04.129.084.176.074.478.073.218v.264l-.025.181-.033.049-.046.022-.067-.035-.022-.086v-.059l-.076-.173-.079-.068-.04-.014-.079.048-.076.112-.054.127-.047.189-.103.129-.051.02-.049-.003-.302-.095-.229-.02-.154.041-.111.12-.024.078.01.103.329.385.035.112.053.075.037.197-.043.1-.258.433-.086.339-.067.429,2.324-1.164,5.025-.21,3,8.337.838,2.331.142.038.149.039.087.023.098.026.092.025.093.024.097.026.098.026.102.027.103.027.097.026.098.026.102.027.098.026.098.025.098.026.102.027.102.027.098.026.098.026.092.025.092.024.098.026.098.026.102.027.102.027.098.026.098.025.102.028.199.052.21.055.336.089.176.047.336.089.191.051.189.05.189.05.191.051.188.05.203.054.11.028.098.026.092.025.098.026.102.027.098.025.092.025.098.026.102.027.098.026.092.024.098.026.102.027.098.026.112.029.122.033.129.035.141.037.151.04.046.012.077-.097.096-.114.092-.103.07-.074.11-.104.619.621.358-.291.083.06.003.002.002.003.003.002.003.003.003.002.003.003.002.002.003.003.003.002.003.003.003.002.002.003.003.002.003.003.003.003.003.002.002.003.003.002.003.003.003.002.002.003.003.003.003.002.003.003.002.002.003.003.003.003.003.002.002.003.003.002.003.003.002.003.003.002.003.003.003.002.002.003.003.003.003.002.002.003.003.003.003.002.002.003.003.003.003.002.002.003.003.003.003.002.002.003.003.003.003.002.002.003.003.003.002.002.003.003.003.003.002.003.003.002.003.003.002.003.003.002.002.003.003.003.003.003.002.003.003.002.003.003.002.003.003.003.002.002.003.003.002.003.003.003.003.003.002.002.003.003.002.003.003.003.002.003.003.002.003.003.002.003.003.003.002.003.003.003.002.002.003.003.002.003.003.003.002.003.003.003.002.003.003.002.002.003.003.003.002.003.003.003.002.003.003.003.002.003.003.002.002.003.002.003.003.003.002.003.003.003.002.003.003.003.002.003.003.003.002.003.002.003.003.003.002.003.003.003.002.002.002.003.003.003.002.003.003.003.002.003.002.003.003.003.002.003.003.003.002.003.002.003.003.003.002.003.002.003.003.003.002.003.002.004.003.003.002.003.002.003.003.003.002.003.002.003.003.003.002.003.002.003.002.003.003.003.002.003.002.003.003.003.002.003.002.003.002.003.003.003.002.003.002.003.002.003.002.004.003.003.002.003.002.003.002.003.002.003.003.003.002.003.002.003.002.003.002.003.003.004.002.003.002.003.002.003.002.003.002.003.003.003.002.003.002.004.002.003.002.003.002.003.002.003.002.003.003.004.002.003.002.003.002.003.002.003.002.003.002.003.002.004.002.003.002.003.002.003.002.003.002.003.002.004.002.003.002.003.003.003.002.003.002.004.002.003.002.003.002.003.002.003.002.004.002.003.002.003v.003s.003.003.003.003l.128.241.131.305.636-.309.174.046.12.032.097.026.098.026.098.026.098.026.155.041.259.068.251.066.084.023.496.132-.366-14.366-.003-.21.28-.008,1.465-.038,1.864-.049,2.194-.057,1.135-.03,3.33-.087,3.329-.087.166-.004.363,12.888.101,3.646.172.046.506.134-.063.271-.83.226-1.569.697-10.153,5.737-8.1,4.647-.111.064-.11.063-2.812,1.614-.164-.523-.002-.042-.06-.1-.062-.087-.18-.19-.091-.054-.05-.051-.023-.054-.008-.093.043-.12-.002-.079-.061-.109-.063-.07-.055-.05-.064-.052-.051-.038-.037-.07-.029-.066-.007-.062-.005-.047v-.013s-.003-.027-.003-.027l-.026-.053-.049-.047-.062-.035-.079-.029-.048-.009-.032-.005-.064.008-.076.059-.074.085-.066.067-.067.041-.071.023-.055-.026-.053-.055-.021-.076-.005-.079.029-.075.014-.021.038-.053.037-.052.038-.053.037-.052.045-.052.038-.043.037-.026.064-.029.083-.05.043-.032.033-.041.023-.049.01-.067-.01-.055-.04-.038-.064-.064-.065-.053-.073-.038-.078-.002h-.045l-.059.023-.097.071-.093.058-.088.035-.066.003-.01-.003-.05-.02-.028-.043v-.041l.025-.043.036-.033.047-.032.079-.045.067-.035.061-.064.041-.055.035-.064.027-.061.009-.059v-.07l-.015-.065-.021-.073-.029-.082-.014-.045-.012-.043-.022-.124.014-.108.078-.068.158-.051.115-.054.039-.075-.014-.091-.066-.068-.123-.07-.299-.05-.127-.042-.098.003-.082.04-.106.091-.273.151-.378.255-.284.12-.335.208-.115.051-.198.038-.089-.01-.036-.036-.04-.122-.045-.242-.038-.173.01-.177.097-.255.113-.205.065-.049h.082s.159.009.159.009l.148.064.099.113.073.002.068-.038.022-.086-.068-.428-.164-.271-.017-.19.071-.28-.023-.093-.134-.126-.188-.217-.225-.178-.166-.309-.171-.246-.082-.084-.07-.028-.065.014-.082.091-.105.131-.026.11.029.24.033.093.091.15.028.079-.014.052-.034.041-.07.036h-.073l-.13-.048-.213-.039-.187-.059-.236-.158-.111-.097-.082-.085-.089-.113v-.074l.201-.23.062-.179-.029-.356-.016-.055-.043-.048-.052-.022-.123.014-.098.036-.091.103-.054.131-.041.342-.052.172-.06.164-.077.122-.062.043-.12.02-.079-.049-.054-.11-.032-.111.017-.128-.008-.139.002-.115.026-.151.123-.235.026-.172-.024-.223-.043-.134-.052-.095-.143-.06-.082-.076-.022-.17.013-.045.036-.043.096-.048h.155l.115-.034.032-.05-.038-.101-.249-.126-.133-.029-.082.036-.131.096-.108.008-.05-.026-.032-.055.012-.163.063-.127.086-.086.052-.024.137-.014.062.012.055-.008.031-.038.007-.058-.014-.054-.066-.072-.104-.079-.12-.048-.117-.017-.076.022-.04.034-.106.201-.042.235-.105.093-.064.01-.103-.093-.067-.161-.018-.191.026-.267.025-.057.123-.086.273-.079.21-.037.139-.085.028-.048-.002-.054-.026-.074-.217-.217-.245-.202-.022-.057.025-.125.134-.236.042-.15-.025-.091-.091-.12-.108-.062-.153-.032-.146.032-.524.047-.159.003-.355.057-.613.21-.071-.005-.079-.032-.046-.042-.023-.083.014-.097.04-.067.021-.075.041-.145.065-.164.042-.259.262-.514.139-.19.111-.114.085-.12.005-.071-.023-.057-.045-.04-.133-.041-.15-.009-.123.043-.108.082-.559.296-.091.023-.083-.016-.062-.04-.083-.125-.046-.167.047-.252.035-.065.155-.201.245-.509.04-.111.136-.193.113-.241.063-.213.088-.162.048-.148.128-.201.034-.093.018-.166-.017-.072-.176-.238-.067-.06-.093-.028-.1.008-.141.049-.214.142-.124.048-.051-.014-.049-.148.068-.199.26-.2.065-.099.012-.066-.012-.071-.023-.048-.088-.086-.097-.048-.025-.054-.002-.055-.072.041-.143.082-.04.023-.045.025-.39.222-.322.183-.163.093-.446.253-.117.066-.06-.163-6.263,3.556-.478.149-1.518.134-.35.082-.58.329-3.966,2.256-.246.115-.31.055h-.306s-.203-.038-.203-.038l-.098-.027-.953-.262-.246-.023-.234.034-.289.143-.605.347-3.632,2.067-.303.103-.603-.114-.425-.04-.482.008-1.337.124.01.104.014.151.023.249.005.053.136.243.271.485-.285.156-.664.457-1.102.876-1.107.936-.625.431-.809.398-.574.227-.401.106-.44.035-.727-.022-.672-.047-.196-.037-.867-.252-.622-.262-.543-.472-.375-.385-.208-.371-.235-.58-.146-.601-.066-.539-.075-1.425-.049-.621-.082-.694-.122-.663-.267-1-.079-.276-.155-.376-.247-.447-.394-.579-.861-1.213-.819-1.223-.582-.954-.248-.588-.154-.496-.083-.418v-.449l.021-.423.113-.541.133-.413.198-.366.216-.294.248-.206.268-.154.474-.176.569-.118.568-.047.451.03.457.099.924.233.664.216.444.118.675.122.697.08.525.01.572-.118.512-.237.519-.352.434-.438.216-.302.168-.311.13-.409.073-.629-.03-.449-.129-.449-.253-.567-.102-.191-.242-.453-.336-.501-.299-.361-.448-.475-1.213-1.187-.437-.446-.276-.385-.158-.408-.098-.516-.003-.272.018-.296.149-.474.185-.363.27-.322.19-.139.15-.111.693-.289.248-.062.368-.046.567.005.598.057.577.103.504.171.414.185.551.336.634.34.363.178.453.179.441.14.418.075.335.047.49-.005.361-.057.366-.139.304-.191.258-.227.273-.33.216-.299.181-.387.127-.444.038-.423-.025-.448-.11-.43-.215-.49-.22-.405-.215-.356-.195-.293-.22-.27-.22-.242-.248-.223-1.337-1.104-.785-.68-1.352-1.083-.548-.418-.586-.392-.494-.266-.459-.177-.405-.112-.367-.062-.342-.032-.346-.005-.367.021-.365.053-.404.118-.436.2-.549.336-1.658,1.111-.303.167-.31.136-.408.133-.53.106-.192.003-.162-.022-.072-.01-.233-.054-.367-.178-.288-.23-.187-.283-.107-.341-.036-.363.061-.388.148-.403.202-.374.045-.049.229-.258.604-.455.33-.179.336-.156.549-.187.579-.175.192-.047.524-.127.591-.092.586-.07.617-.038.679-.012.611.005.779-.025.548-.037.486-.055.461-.101.486-.136.635-.2.686-.25.147-.061,1.613-.668.576-.298.561-.359.966-.659.437-.35.82-.79.343-.387.261-.349.25-.374.822-1.47.209-.446.19-.515.297-.914.425-1.198.131-.468.062-.305.027-.302.011-.999-.085-.584-.173-.563-.209-.451-.285-.469-.364-.366-.285-.22-.516-.262-.499-.165" vector-effect="none" fill="none" stroke="#333" stroke-linecap="square" stroke-linejoin="bevel" stroke-width=".5"/>
    <path id="transcona" d="M226.907,84.574l1.107-1.981,11.789-.065.003.155.03,1.836.005.328.011.666.003.166.023,1.332.002.166.023,1.332.002.166.013.728.005.314.002.165v.089s.011.537.011.537l.024,1.451.016.917.013.791.002.126.015.925.023,1.331.188-.003,1.006-.017,5.464-.095.297-.005.296-.005.297-.005.297-.005,2.985-.051,1.765-.03.721-.012.251-.005.205-.004.55-.01,1.382-.026.126-.002.691-.013.272-.005.167-.003.126-.002.126-.002.126-.002.126-.002.126-.002.126-.002.126-.002.126-.002.126-.002.126-.002.126-.002.126-.002.126-.002.127-.002.126-.002.126-.002.126-.002.126-.002.126-.002.126-.002.166-.003.58-.011h.064s.171-.004.171-.004l6.425-.118.249-.004,1.301-.019,5.406-.08.988-.015,2.572,6.855,2.483,6.617.093.248.191.512.564,1.503.279.744.4,10.157.023.581-6.797.182-.124.003-.125.003-7.554.199.052,1.9.135,4.931.187,6.873-6.911.18-6.88.178-13.42.361.185,6.584.117,4.2.041,1.474.002.09.009.297.038,1.378.024.78.343,12.18.004.165.013.504-.166.004-3.329.087-3.33.087-1.135.03-2.194.057-1.864.049-1.465.038-.28.008.049-.798-.163-5.795-.205-7.34.125-.003-.029-.486-.087-.947-.146-.421-.239-.4-.455-.41-.404-.275-.415-.239-.368-.15-2.138-.405-3.547-3.379-5.473-6.33-.138-.159-.062-2.247-.386.011-.035-2.231-.008-.297-.009-.3-.16-4.821.009-.663-.008-.273-.078-2.754-.118-3.023.139-1.607.397-2.971.226-.973.449-1.063.333-1.039.16-.636.049-.162.335-1.096.174-.688.25-.6.25-.55.536-1.005,1.68-3.154.995-.932,1.437-.802.491-.664.743-1.813.06-.147.071-.152.047-.099,1.124-2.392,1.049-2.191.465-.394.428-.433.389-.47.346-.502.301-.53.252-.555.203-.575.151-.591.099-.601.046-.608-.042-3.551.016-.424.042-.452.108-.607.148-.56.18-.516.225-.682" vector-effect="none" fill="none" stroke="#333" stroke-linecap="square" stroke-linejoin="bevel" stroke-width=".5"/>
    <path id="northkildonan" d="M198.803,48.685l.108.071.004-.005.054.035,3.554,2.341,2.289,1.502.143.094.143.094,1.892,1.242,2.81,1.844.634.416.234-.373.25-.475.481-.852.585-.968.662.432.605.395.063.041.159.103.577.375.105.07.105.07.278.181.124.08.148.096.213.139.213.139.296.193,12.41,8.093.104.068.105.068.141.092.578.378.621.404.621.404.042.028.208.135.135.088.221.144.014.009.198.129.212.138.211.138.621.404.621.404.621.404.619.405.588.383.406.265.405.265.581.379.529.344,3.876,2.525.238.155.246.16.242.158.243.158.246.16.245.16.243.158.243.158.243.159.245.159.243.159.211.138.212.138.309.201.243.159.245.159.243.159.243.158.243.158.245.16.731.477,3.477,2.265.422.275.46.3.51.331.835.544,2.038,1.327,2.107,1.373.467.304-.552.009-.566.009-1.65.027-.25.004-1.766.027-2.725.042-2.165.033h-.084s-.086.003-.086.003h-.063s-.063.002-.063.002h-.063s-.063.002-.063.002h-.063s-.063.002-.063.002h-.063s-.063.002-.063.002h-.063s-.063.002-.063.002h-.063s-.064.002-.064.002h-.063s-.063.002-.063.002h-.063s-.166.003-.166.003h-.063s-.063.002-.063.002h-.063s-.063.002-.063.002h-.063s-.063.002-.063.002h-.063s-.063.002-.063.002h-.063s-.063.002-.063.002h-.063s-.063.002-.063.002h-.063s-.063.002-.063.002h-.063s-.063.002-.063.002h-.063s-.063.002-.063.002h-.064s-.063.002-.063.002h-.063s-.063.002-.063.002h-.063s-.063.002-.063.002h-.063s-.063.002-.063.002h-.063s-.063.002-.063.002h-.063s-.063.002-.063.002h-.055s-.159.003-.159.003h-.084s-.083.003-.083.003h-.084s-.084.003-.084.003h-.083s-.084.003-.084.003h-.084s-.083.003-.083.003h-.089s-1.338.022-1.338.022l-.463.007-.714.011-.003-.155-11.789.065-1.107,1.981-.409-.17-3.108,5.311-5.601-2.707-5.437-2.628-3.153,4.068-.117-.056-.152-.074-.193-.093-.125-.06-.125-.06-.125-.06-.125-.06-.125-.06-.125-.06-.125-.06-.125-.06-.045-.022-.137-.066-.136-.066-.137-.066-.136-.066-.137-.066-.136-.066-.136-.066-.137-.066-.136-.066-.137-.066-.136-.066-.137-.066-.136-.066-.137-.066-.136-.066-.138-.067-.139-.067-.137-.066-.136-.066-.137-.066-.136-.066-.136-.066-.137-.066-.136-.066-.137-.066-.136-.066-.137-.066-.136-.066-.067-.032-.08-.039-.147-.071-.125-.06-.127-.062-.123-.059-.102-.049-.058-.028-.147-.071-.075-.036.314-.65-2.696-1.303-.075-.036-.16.33-4.513-2.178-.118.145-2.794,4.854-3.185,5.564-1.158,2.022-.623,1.257-.113-.054-.136-.066-.114-.055-.113-.055-.114-.055-.114-.055-.113-.055-.057-.027-.058-.027-.113-.055-.114-.055-.023-.011-.136-.066-.023-.011-.954-.461-.903-.436.385-.085.228-.074.261-.107.311-.175.319-.18.69-.503.441-.383.302-.328.333-.489.243-.429.655-1.374.236-.689.101-.476.021-.123.106-.628.047-.818-.014-.743-.053-.476-.174-.751-.262-.872-.275-.985-.086-.402-.187-1.32v-.704l.066-.73.107-.503.154-.523.148-.335.308-.563.328-.435.381-.396.442-.349.409-.275,1.213-.542.596-.248,1.279-.443.729-.33.068-.031.883-.49.529-.335.65-.596.261-.328.148-.295.14-.556.007-.215-.012-.385-.074-.593-.127-.487-.264-.625-.317-.689-.286-.562-.137-.357-.096-.328-.074-.647v-.666l.053-.402.116-.401.387-.837-.578-.262-2.569-1.165-.386.407-.175-.082-.024-.011-.25-.118-2.519-1.185-.15-.071-.448-.21-.321-.151-2.33-1.096-.122-.057,2.961-2.999,9.454-9.536" vector-effect="none" fill="none" stroke="#333" stroke-linecap="square" stroke-linejoin="bevel" stroke-width=".5"/>
    <path id="charleswood" d="M61.464,130.983l.227,2.081,5.644-1.176,3.519-.738,4.79-.953,2.697.588,3.003.656,8.087,1.762.292.099-.009.171-.164,3.255.389.02.743.037.063.003-.018.158-.034.161-.038.151-.016.139-.161,3.2-.063-.003-.058-.003-.007.126-.998-.048-.095,1.859.446.176.193-.284.247-.227.135-.063.225-.103.389-.064.302.01.353.04.798.249.502.099.518-.011.336-.062.632-.213.565-.284.433-.319.566-.454.616-.379.66-.346.414-.171.246-.061.146-.036.192-.011.225-.013.674-.005.128.011.561.046.71.1.678.046.337-.041.352-.129,1.254-.602.694-.27.6-.181.517-.205.561-.287.205-.086,1.002-.235.543-.162.27-.046.179.008.318.013.575.058.487.032.347-.037.286-.091.01-.003.191-.135.373-.439.218-.309.088-.075.118-.058.14-.026.285.005,1.115.14.16.005.518-.11.559-.16,1.115-.392.534-.121.611-.032.712.014.757.038.668-.013.444-.043.446.032.342.084.021.005.649.248.675.287.406.153.44.228.624.356.687.358.439.248.202.057.528.052.529-.007.406-.058.56-.178.049-.018.393-.147,1.437-.497.714-.173.477-.095.324-.007.49.083.381.084,1.027.358.315.061.267-.017.268-.084.273-.14.178-.184.114-.198.064-.203-.02-.46-.088-.878.038-.242.152-.267.254-.236.291-.138.289-.072.285-.007.427.033.566.096.401.012.324-.032.116-.032.118.262.301.664-1.593,2.782-.112,3.025-.185,4.985-.238,6.383-.115,3.148-.213,5.726,4.83-.816,1.596-.272-.015.559-.03.45-.057.446-.025.127-.024.123-.136.58-1.007,3.298-4.213,13.783-.142.464,1.275,1.314.5.774,1.852,3.349-3.483,1.941-1.483.807-.775.429-5.076,2.811-.91.615-.556.012-.538.011-.785.015-.229.005-.376.008-.907.018h-.074s-.156.004-.156.004l-.15.003-.537.011-1.078.022-.441.009-2.089.042-11.514.229.046,1.878-13.606.258.04,1.666-13.609.263.047,1.659-8.233.162-9.06.17-12.368.223.009-.25.077-2.197.29-8.28.29-8.28.243-6.936.495-.045.445-.04.556-.05.918-.083.084-.008.084-.008.918-.083,1.003-.09,1.003-.091,1.003-.09,1.003-.09,1-.09.711-.064.29-.026,1-.09.514-.046.438-.039,1.195-.108.037-.823.006-.126.006-.126.337-7.488.006-.126.006-.126.298-6.577.005-.476-.029-.475-.063-.471-1.49-8.831-.005-.03-.351-2.079-.062-.367-.762.312-.456.23-.642.252-1.005.306-.563.205-.637.258-.569.252-.559.291-.507.284-.513.234-.491.168-.628.185.015-.35.026-.634.01-.247.013-.317.028-.663.017-.404.003-.066.006-.149.005-.124.013-.305.006-.136.005-.121.005-.121.008-.196.008-.201.017-.409.017-.409.017-.409.024-.574.005-.126.017-.409.017-.409.017-.409.017-.408.017-.409.017-.409.024-.575.005-.126.017-.409.017-.408.017-.409.017-.409.017-.409.017-.408.011-.276.002-.042.016-.378.014-.346-3.505.736.766-18.306,4.07-.23,2.034-.115,1.019-.057.448-.025,3.639-.205-.007.388-.01.227-.329,7.845v.004s0,.004,0,.004v.004s0,.004,0,.004v.004s0,.004,0,.004v.004s0,.004,0,.004v.004s0,.004,0,.004v.004s0,.004,0,.004v.004s0,.004,0,.004v.004s0,.004,0,.004v.004s0,.004,0,.004v.004s0,.004,0,.004v.004s0,.004,0,.004v.004s0,.004,0,.004v.004s0,.004,0,.004v.004s0,.004,0,.004v.004s0,.004,0,.004v.004s0,.004,0,.004v.004s0,.004,0,.004v.004s0,.004,0,.004v.004s0,.004,0,.004v.004s0,.004,0,.004v.004s0,.004,0,.004v.004s0,.004,0,.004v.004s0,.004,0,.004v.004s0,.004,0,.004v.004s0,.004,0,.004v.004s0,.004,0,.004v.004s0,.004,0,.004v.004s0,.004,0,.004v.004s0,.004,0,.004v.004s0,.004,0,.004v.004s0,.004,0,.004v.004s0,.004,0,.004v.004s0,.004,0,.004v.004s0,.004,0,.004v.004s0,.004,0,.004v.004s0,.004,0,.004v.004s0,.004,0,.004v.004s0,.004,0,.004v.004s0,.004,0,.004v.004s0,.004,0,.004v.004s-.001.004-.001.004v.004s0,.004,0,.004v.004s-.001.004-.001.004v.004s-.001.004-.001.004v.004s-.001.004-.001.004v.004s-.001.004-.001.004v.004s-.001.004-.001.004v.004s-.001.004-.001.004v.004s-.001.004-.001.004v.004s-.001.004-.001.004v.004s-.001.004-.001.004v.004s-.001.004-.001.004v.004s-.001.004-.001.004v.004s-.001.004-.001.004v.004s-.001.004-.001.004v.004s-.001.004-.001.004v.004s-.001.004-.001.004v.004s-.001.004-.001.004v.004s-.001.004-.001.004v.004s-.001.004-.001.004v.004s-.001.004-.001.004v.004s-.001.004-.001.004v.004s-.001.004-.001.004v.004s-.001.004-.001.004v.004s-.001.004-.001.004v.004s-.001.004-.001.004v.004s-.001.004-.001.004v.004s-.002.004-.002.004v.004s-.001.004-.001.004v.004s-.002.004-.002.004v.004s-.002.004-.002.004v.004s-.002.004-.002.004v.004s-.002.004-.002.004v.004s-.002.004-.002.004v.004s-.002.004-.002.004v.004s-.002.004-.002.004v.004s-.002.004-.002.004v.004s-.002.004-.002.004v.004s-.002.004-.002.004v.004s-.002.004-.002.004v.004s-.002.004-.002.004v.004s-.002.004-.002.004v.004s-.002.004-.002.004v.004s-.002.004-.002.004v.004s-.002.004-.002.004v.004s-.002.004-.002.004v.004s-.002.004-.002.004v.004s-.002.004-.002.004v.004s-.002.004-.002.004v.004s-.002.004-.002.004v.004s-.002.004-.002.004v.004s-.002.004-.002.004v.004s-.002.004-.002.004v.004s-.002.004-.002.004v.004s-.002.004-.002.004v.004s-.002.004-.002.004v.004s-.002.004-.002.004v.004s-.002.004-.002.004v.004s-.002.004-.002.004v.004s-.002.004-.002.004v.004s-.002.004-.002.004v.004s-.002.004-.002.004v.004s-.002.004-.002.004v.004s-.002.004-.002.004v.004s-.002.004-.002.004v.004s-.002.004-.002.004v.004s-.002.004-.002.004v.004s-.002.004-.002.004v.004s-.002.004-.002.004v.004s-.002.004-.002.004v.004s-.002.004-.002.004v.004s-.002.004-.002.004v.004s-.002.004-.002.004v.004s-.002.004-.002.004v.004s-.002.004-.002.004v.004s-.002.004-.002.004v.004s-.002.004-.002.004v.004s-.002.004-.002.004v.004s-.002.004-.002.004v.004s-.002.004-.002.004v.004s-.002.004-.002.004v.004s-.002.004-.002.004v.004s-.002.004-.002.004v.004s-.002.004-.002.004v.004s-.002.004-.002.004v.004s-.002.004-.002.004v.004s-.002.004-.002.004v.004s-.002.004-.002.004v.004s-.003.004-.003.004v.004s-.002.004-.002.004v.004s-.002.004-.002.004v.004s-.002.004-.002.004v.004s-.003.004-.003.004v.004s-.003.004-.003.004v.004s-.003.004-.003.004v.004s-.003.004-.003.004v.004s-.002.004-.002.004v.004s-.003.004-.003.004v.004s-.003.004-.003.004v.004s-.003.004-.003.004v.004s-.003.004-.003.004v.004s-.003.004-.003.004v.004s-.003.004-.003.004v.004s-.003.004-.003.004v.004s-.003.004-.003.004v.004s-.003.004-.003.004v.004s-.003.004-.003.004v.004s-.003.004-.003.004v.004s-.003.004-.003.004v.004s-.003.004-.003.004v.004s-.003.004-.003.004v.004s-.003.004-.003.004v.004s-.003.004-.003.004v.004s-.003.004-.003.004v.004s-.003.004-.003.004v.004s-.003.004-.003.004v.004s-.003.004-.003.004v.004s-.003.004-.003.004v.004s-.003.004-.003.004l-.002.004v.004s-.003.004-.003.004v.004s-.003.004-.003.004v.004s-.003.004-.003.004v.004s-.003.004-.003.004l-.002.004v.004s-.003.004-.003.004l-.002.004-.002.004-.002.004-.002.004v.004s-.003.004-.003.004l-.002.004-.002.004-.002.004-.002.004-.002.004-.002.004-.002.004-.002.004-.002.004-.002.004-.002.004-.002.004-.002.004-.002.004-.002.004-.002.004-.002.004-.002.004-.002.004-.002.004-.002.004-.002.004-.002.004-.518,1.254h0s0,.003,0,.003h0s0,.003,0,.003h0s0,.003,0,.003h0s0,.003,0,.003h0s0,.003,0,.003h0s0,.003,0,.003h0s0,.003,0,.003h0s0,.003,0,.003h0s0,.003,0,.003h0s0,.003,0,.003h0s0,.003,0,.003h0s0,.003,0,.003h0s0,.003,0,.003h0s0,.003,0,.003h0s0,.003,0,.003h0s0,.003,0,.003h0s0,.003,0,.003h0s0,.003,0,.003h0s0,.003,0,.003h0s0,.003,0,.003h0s0,.003,0,.003h0s0,.003,0,.003h0s0,.003,0,.003h0s0,.003,0,.003h0s0,.003,0,.003h0s0,.003,0,.003h0s0,.003,0,.003h0s0,.003,0,.003h0s0,.003,0,.003h0s0,.003,0,.003h0s0,.003,0,.003h0s0,.003,0,.003h0s0,.003,0,.003h0s0,.003,0,.003h0s0,.003,0,.003h0s0,.003,0,.003h0s0,.003,0,.003h0s0,.003,0,.003h0s0,.003,0,.003h0s0,.003,0,.003h0s0,.003,0,.003h0s0,.003,0,.003h0s0,.003,0,.003h0s0,.003,0,.003h0s0,.003,0,.003h0s0,.003,0,.003h0s0,.003,0,.003h0s0,.003,0,.003h0s0,.003,0,.003h0s0,.003,0,.003h0s0,.003,0,.003h0s0,.003,0,.003h0s0,.003,0,.003h0s0,.003,0,.003h0s0,.003,0,.003h0s0,.003,0,.003h0s0,.003,0,.003h0s0,.003,0,.003h0s0,.003,0,.003h0s0,.003,0,.003h0s0,.003,0,.003h0s0,.003,0,.003h0s0,.003,0,.003h0s0,.003,0,.003h0s0,.003,0,.003h0s0,.003,0,.003h0s0,.003,0,.003h0s0,.003,0,.003h0s0,.003,0,.003h0s0,.003,0,.003h0s0,.003,0,.003h0s0,.003,0,.003h0s0,.003,0,.003h0s0,.003,0,.003h0s0,.003,0,.003h0s0,.003,0,.003h0s0,.003,0,.003h0s0,.003,0,.003h0s0,.003,0,.003h0s0,.003,0,.003h0s0,.003,0,.003h0s0,.003,0,.003h0s0,.003,0,.003h0s0,.003,0,.003h0s0,.003,0,.003h0s0,.003,0,.003h0s0,.003,0,.003h0s0,.003,0,.003h0s0,.003,0,.003h0s0,.003,0,.003h0s0,.003,0,.003h0s0,.003,0,.003h0s0,.003,0,.003h0s0,.003,0,.003h0s0,.003,0,.003h0s0,.003,0,.003h0s0,.003,0,.003h0s0,.003,0,.003h0s0,.003,0,.003h0s0,.003,0,.003h0s0,.003,0,.003h0s0,.003,0,.003h0s0,.003,0,.003h0s0,.003,0,.003h0s0,.003,0,.003h0s0,.003,0,.003h0s0,.003,0,.003h0s0,.003,0,.003h0s0,.003,0,.003h0s0,.003,0,.003h0s0,.003,0,.003h0s0,.003,0,.003h0s0,.003,0,.003h0s0,.003,0,.003h0s0,.003,0,.003h0s0,.003,0,.003h0s0,.003,0,.003h0s0,.003,0,.003h0s0,.003,0,.003h0s0,.003,0,.003h0s0,.003,0,.003h0s0,.003,0,.003h0s0,.003,0,.003h0s0,.003,0,.003h0s0,.003,0,.003h0s0,.003,0,.003h0s0,.003,0,.003h0s0,.003,0,.003h0s0,.003,0,.003h0s0,.003,0,.003h0s0,.003,0,.003h0s0,.003,0,.003h0s0,.003,0,.003h0s0,.003,0,.003h0s0,.003,0,.003h0s0,.003,0,.003v.002s0,.001,0,.001h0s0,.003,0,.003h0s0,.003,0,.003h0s0,.003,0,.003h0s0,.003,0,.003h0s0,.003,0,.003h0s0,.003,0,.003h0s0,.003,0,.003h0s0,.003,0,.003h0s0,.003,0,.003h0s0,.003,0,.003h0s0,.003,0,.003v.002s0,.001,0,.001h0s0,.003,0,.003h0s0,.003,0,.003h0s0,.003,0,.003h0s0,.003,0,.003h0s0,.003,0,.003h0s0,.003,0,.003h0s0,.003,0,.003v.002s0,.001,0,.001h0s0,.003,0,.003h0s0,.003,0,.003h0s0,.003,0,.003h0s0,.003,0,.003h0s0,.003,0,.003v.002s0,.001,0,.001h0s0,.003,0,.003h0s0,.003,0,.003h0s0,.003,0,.003h0s0,.003,0,.003h0s0,.003,0,.003h0s0,.003,0,.003h0s0,.003,0,.003h0s0,.003,0,.003h0s0,.003,0,.003v.002s0,.001,0,.001h0s0,.003,0,.003h0s0,.003,0,.003h0s0,.003,0,.003h0s0,.003,0,.003h0s0,.003,0,.003h0s0,.003,0,.003h0s0,.004,0,.004v.002s-.001.002-.001.002v.002s-.001.002-.001.002v.002s-.001.002-.001.002v.002s-.001.002-.001.002v.002s-.001.002-.001.002v.002s-.001.002-.001.002v.002s-.001.002-.001.002v.002s-.001.002-.001.002v.002s-.001.002-.001.002v.002s-.001.002-.001.002v.002s-.001.002-.001.002v.002s-.001.002-.001.002v.002s-.001.002-.001.002v.002s-.001.002-.001.002v.002s-.001.002-.001.002v.002s-.001.002-.001.002v.002s-.001.002-.001.002v.002s-.001.002-.001.002v.002s-.001.002-.001.002v.002s-.001.002-.001.002v.002s-.001.002-.001.002v.002s-.001.002-.001.002v.002s-.001.002-.001.002v.002s-.001.002-.001.002v.002s-.001.002-.001.002v.002s-.001.002-.001.002v.002s-.001.002-.001.002v.002s-.001.002-.001.002v.002s-.001.002-.001.002v.002s-.001.002-.001.002v.002s-.001.002-.001.002v.002s-.001.002-.001.002v.002s-.001.002-.001.002v.002s-.001.002-.001.002v.003s-.001.002-.001.002v.002s-.001.002-.001.002v.002s-.001.002-.001.002v.002s-.001.002-.001.002v.002s-.001.002-.001.002v.002s-.001.002-.001.002v.002s-.001.002-.001.002v.002s-.001.003-.001.003v.002s-.001.002-.001.002v.002s-.001.002-.001.002v.002s-.001.002-.001.002v.002s-.001.002-.001.002v.002s-.001.003-.001.003v.002s-.001.002-.001.002v.002s-.001.002-.001.002v.002s-.001.002-.001.002v.002s-.001.003-.001.003v.002s-.001.002-.001.002v.002s-.001.002-.001.002v.002s-.001.002-.001.002v.002s-.001.002-.001.002v.002s-.001.002-.001.002v.002s-.001.002-.001.002v.002s-.001.003-.001.003v.002s-.001.002-.001.002v.002s-.001.002-.001.002v.003s-.001.002-.001.002v.002s-.001.002-.001.002v.002s-.001.002-.001.002v.003s-.001.002-.001.002v.002s-.001.002-.001.002v.002s-.001.003-.001.003v.002s-.001.002-.001.002v.002s-.001.002-.001.002v.002s-.001.002-.001.002v.002s-.001.002-.001.002v.003s-.001.002-.001.002v.002s-.001.002-.001.002v.003s-.001.002-.001.002v.002s-.001.002-.001.002v.002s-.001.002-.001.002v.002s-.001.002-.001.002v.003s-.001.002-.001.002v.002s-.001.002-.001.002v.003s-.001.002-.001.002v.002s-.001.002-.001.002v.003s-.001.002-.001.002v.002s0,.003,0,.003v.002s-.001.002-.001.002v.002s-.001.003-.001.003v.002s0,.002,0,.002v.003s-.001.002-.001.002v.002s0,.002,0,.002v.002s-.001.002-.001.002v.002s0,.003,0,.003v.002s0,.002,0,.002v.003s-.001.002-.001.002v.002s0,.003,0,.003v.002s0,.002,0,.002v.003s0,.002,0,.002v.002s-.001.002-.001.002v.002s0,.002,0,.002v.003s0,.002,0,.002v.002s0,.003,0,.003v.002s0,.002,0,.002v.003s0,.002,0,.002v.003s0,.002,0,.002v.002s0,.003,0,.003v.002s0,.002,0,.002v.002s0,.002,0,.002v.003s0,.002,0,.002v.002s0,.002,0,.002v.002s0,.002,0,.002v.003s0,.002,0,.002v.002s0,.002,0,.002v.002s0,.003,0,.003v.002s0,.002,0,.002v.002s0,.002,0,.002v.002s0,.003,0,.003v.002s0,.002,0,.002v.002s0,.003,0,.003v.002s0,.002,0,.002v.002s0,.003,0,.003v.002s0,.002,0,.002v.002s0,.003,0,.003v.002s0,.002,0,.002v.002s0,.003,0,.003v.002s0,.002,0,.002v.002s0,.003,0,.003v.002s0,.002,0,.002v.002s0,.003,0,.003v.002s0,.002,0,.002v.002s0,.003,0,.003v.002s0,.002,0,.002v.002s0,.003,0,.003v.002s0,.002,0,.002v.002s0,.003,0,.003v.002s0,.002,0,.002v.002s0,.003,0,.003v.002s0,.002,0,.002v.002s0,.003,0,.003v.002s0,.002,0,.002v.002s0,.003,0,.003v.002s0,.002,0,.002v.002s0,.003,0,.003v.002s0,.002,0,.002v.002s0,.003,0,.003v.002s0,.002,0,.002v.002s0,.003,0,.003v.002s0,.002,0,.002v.002s0,.003,0,.003v.002s0,.002,0,.002v.002s0,.003,0,.003v.002s0,.002,0,.002v.002s0,.003,0,.003v.002s0,.002,0,.002v.002s0,.003,0,.003v.002s0,.002,0,.002v.002s0,.003,0,.003v.002s0,.002,0,.002v.002s0,.003,0,.003v.002s0,.002,0,.002v.002s0,.003,0,.003v.002s0,.002,0,.002v.002s0,.003,0,.003v.002s0,.002,0,.002v.002s0,.003,0,.003v.002s0,.002,0,.002v.003s0,.002,0,.002v.002s0,.002,0,.002v.003s0,.002,0,.002v.002s0,.002,0,.002v.003s0,.002,0,.002v.002s0,.002,0,.002v.003s0,.002,0,.002v.002s0,.002,0,.002v.003s0,.002,0,.002v.002s0,.002,0,.002v.003s0,.002,0,.002v.002s0,.002,0,.002v.003s0,.002,0,.002v.002s0,.003,0,.003v.002s0,.002,0,.002v.002s0,.003,0,.003v.002s0,.002,0,.002l-.106.574-.209,1.131-.118.638" vector-effect="none" fill="none" stroke="#333" stroke-linecap="square" stroke-linejoin="bevel" stroke-width=".5"/>
    <path id="fortrouge" d="M177.689,116.792l.076.166.391.579.358.49.356.615.855,1.622.052.079.24.365.264.365.253.546.162.508.108.525.033.687-.053.566-.088.446-.125.35-.187.351-.187.296-.174.275-.992,1.44-.835,1.126-.832,1.125-.165.251-.33.554-.325.466-.79,1.041-.361.547-.291.55-.11.256-.201.471-.212.577-.191.602-.126.681-.073.82-.013.606.073.592.192.623.211.503.211.35.142.18.263.204.363.231.397.192.523.212.291.053.451.026.641-.053.576-.092.681-.192.714-.178.668-.139,1.462-.272.596-.086.641-.073.497-.033.695.013.661.046.655.1.655.146.162.053.499.165.516.262.285.22.364.366.285.469.209.451.173.563.085.584-.011.999-.027.302-.062.305-.131.468-.425,1.198-.297.914-.19.515-.209.446-.822,1.47-.25.374-.261.349-.343.387-.82.79-.437.35-.966.659-.561.359-.576.298-1.613.668-.147.061-.686.25-.635.2-.486.136-.461.101-.486.055-.548.037-.779.025-.611-.005-.679.012-.617.038-.586.07-.591.092-.524.127-.192.047-.579.175-.549.187-.336.156-.33.179-.604.455-.229.258-.045.049-.202.374-.148.403-.061.388.036.363.107.341.187.283.288.23.367.178.233.054.072.01.162.022.192-.003.53-.106.408-.133.31-.136.303-.167,1.658-1.111.549-.336.436-.2.404-.118.365-.053.367-.021.346.005.342.032.367.062.405.112.459.177.494.266.586.392.548.418,1.352,1.083.785.68,1.337,1.104.248.223.22.242.22.27.195.293.215.356.22.405.215.49.11.43.025.448-.038.423-.127.444-.181.387-.216.299-.273.33-.258.227-.304.191-.366.139-.361.057-.49.005-.335-.047-.418-.075-.441-.14-.453-.179-.363-.178-.634-.34-.551-.336-.414-.185-.504-.171-.577-.103-.598-.057-.567-.005-.368.046-.248.062-.693.289-.15.111-.19.139-.27.322-.185.363-.149.474-.018.296.003.272.098.516.158.408.276.385.437.446,1.213,1.187.448.475.299.361.336.501.242.453.102.191.253.567.129.449.03.449-.073.629-.13.409-.168.311-.216.302-.434.438-.519.352-.512.237-.572.118-.525-.01-.697-.08-.675-.122-.444-.118-.664-.216-.924-.233-.457-.099-.451-.03-.568.047-.569.118-.474.176-.268.154-.248.206-.216.294-.198.366-.133.413-.113.541-.021.423v.304l-.656.364-.634.352-.092.051-.563.312-.149.084.076-1.014.052-.289.844-4.611-.752-4.046-1.362-2.486.01-.274.022-.672.09-2.718.085-2.553.061-1.843.409-2.083-.051-.254-.286-1.415-.181-.365-.095-.243-.036-.301.016-.26.394-1.102-2.784-5.016-2.777-5.037-.198-.362-.197-.363-.985-1.812,1.259-.679,1.251-.688,1.268-.685.185-.101-.738-.291.077-.125.315-.507.139-.226-.102-.039-.352-.196-.305-.276-.29-.372-.487-.759-.211-.374-.363-.804-.155-.302-.192-.263-.25-.22-.264-.204.299-.612.028-1.353.108-5.078.041-1.99.859-.383,2.273-1.02.652-.295v.453s.348.025.348.025l.297.105.64.02.063.008.393.082.082.044.079.043.546.023.26-.098-.626-1.363-.188-.494,6.477-3.927.694,1.841.849-.321-.149-.395.342-.031,1.164.534.033-.22.058-.219.188-.411.098-.153.155-.195.127-.13.183-.15.392-.231.238-.104.275.092.79-.146" vector-effect="none" fill="none" stroke="#333" stroke-linecap="square" stroke-linejoin="bevel" stroke-width=".5"/>
    <path id="oldkildonan" d="M117.525,71.553l-.161-6.936-.155-6.686-.003-.125-.165-6.773-.167-6.903,7.002-.16,6.785-.154,13.455-.305,13.583-.328-.199-8.133-.027-1.109-.104-4.3,3.583-.082-.088-3.346,3.584-.086-.002-.071,21.128,13.845.263.172-.036.076.178.117.609.4,5.538,3.634,5.077,3.332,1.495.981.108.071-9.454,9.536-2.961,2.999.122.057,2.33,1.096.321.151.448.21.15.071,2.519,1.185.25.118.024.011.175.082-1.196,1.254-.667.812-6.469-3.041-3.001,3.031-2.842,2.869-.047.048-10.338,10.439-8.034-3.763.02-.037-.274-.128-.113-.054-.039.075-.114-.053-.247-.115-.023.049-.008.018-.01.021-2.185-1.023.009-.019.032-.068-.058-.027-.171-.08-.172-.08-.058-.027-.342-.16-.4-.187-.181-.086-.349-.163-.274-.128-.235-.11-.058-.027-.171-.08-.366-.171-.457-.214-.223-.104-.234-.11-.498-.233-.188-.088-.2-.093-.062-.029-.062-.029-.062-.029-.061-.028-.07-.033-.066-.031-.071-.033-.072-.034-.059-.028-.061-.028-.068-.032-.067-.031h-.003s-.061-.03-.061-.03l-.062-.029-.061-.029-.062-.029-.372-.174-.058-.027-.275-.128-.125-.058-.268-.126-.183-.086-.286-.134-.155-.073-.171-.08-.068-.032-.066-.031-.066-.031-.066-.031-.066-.031-.066-.031-.066-.031-.068-.032-.172-.08-.03-.014-.125-.059-.155-.073-.172-.08-.068-.032-.027-.013-.039-.018-.066-.031-.066-.031-.066-.031-.066-.031-.066-.031-.018-.008-.05-.024-.172-.08-.155-.073-.215-.101-.15-.07-.047-.022-.125-.058h-.001s-.135-.063-.135-.063l-.134-.063-.135-.063-.126-.059-.239-.112-.065-.031-.468-.219-.085-.04-.084-.039-.868-.406-.241-.113-.199-.093-.126-.059-.126-.059-.13-.061-.137-.064-.148-.069-.11-.051-.012-.005-.121-.057-.122-.057-.121-.057-.122-.057-.121-.057-.122-.057-.121-.057-.122-.057-.121-.057-.121-.057-.121-.056-.141-.066-.228-.107-.049-.023-.097-.045-.289-.135-.193-.091-.41-.192-.215-.1-.168-.079-.189-.089-.151-.071-.092-.044-.105-.049-.149-.069-.092-.044-.093-.044-.091-.043-.03-.014-.062-.029-.091-.043-.091-.043-.092-.043-.091-.043-.091-.043-.042-.02-.049-.023-.092-.043-.091-.043-.129-.061-.172-.08-.027-.013-.154-.072-.174-8.216-6.916.155.33,13.651-6.8.127-4.382.104-2.609.159" vector-effect="none" fill="none" stroke="#333" stroke-linecap="square" stroke-linejoin="bevel" stroke-width=".5"/>
    <path id="stnorbert" d="M208.22,177.859l.002.055.025.054.097.048.088.086.023.048.012.071-.012.066-.065.099-.26.2-.068.199.049.148.051.014.124-.048.214-.142.141-.049.1-.008.093.028.067.06.176.238.017.072-.018.166-.034.093-.128.201-.048.148-.088.162-.063.213-.113.241-.136.193-.04.111-.245.509-.155.201-.035.065-.047.252.046.167.083.125.062.04.083.016.091-.023.559-.296.108-.082.123-.043.15.009.133.041.045.04.023.057-.005.071-.085.12-.111.114-.139.19-.262.514-.042.259-.065.164-.041.145-.021.075-.04.067-.014.097.023.083.046.042.079.032.071.005.613-.21.355-.057.159-.003.524-.047.146-.032.153.032.108.062.091.12.025.091-.042.15-.134.236-.025.125.022.057.245.202.217.217.026.074.002.054-.028.048-.139.085-.21.037-.273.079-.123.086-.025.057-.026.267.018.191.067.161.103.093.064-.01.105-.093.042-.235.106-.201.04-.034.076-.022.117.017.12.048.104.079.066.072.014.054-.007.058-.031.038-.055.008-.062-.012-.137.014-.052.024-.086.086-.063.127-.012.163.032.055.05.026.108-.008.131-.096.082-.036.133.029.249.126.038.101-.032.05-.115.034h-.155l-.096.048-.036.043-.013.045.022.17.082.076.143.06.052.095.043.134.024.223-.026.172-.123.235-.026.151-.002.115.008.139-.017.128.032.111.054.11.079.049.12-.02.062-.043.077-.122.06-.164.052-.172.041-.342.054-.131.091-.103.098-.036.123-.014.052.022.043.048.016.055.029.356-.062.179-.201.23v.074l.089.113.082.085.111.097.236.158.187.059.213.039.13.048h.073l.07-.036.034-.041.014-.052-.028-.079-.091-.15-.033-.093-.029-.24.026-.11.105-.131.082-.091.065-.014.07.028.082.084.171.246.166.309.225.178.188.217.134.126.023.093-.071.28.017.19.164.271.068.428-.022.086-.068.038-.073-.002-.099-.113-.148-.064-.159-.01h-.082s-.065.05-.065.05l-.113.205-.097.255-.01.177.038.173.045.242.04.122.036.036.089.01.198-.038.115-.051.335-.208.284-.12.378-.255.273-.151.106-.091.082-.04.098-.003.127.042.299.05.123.07.066.068.014.091-.039.075-.115.054-.158.051-.078.068-.014.108.022.124.012.043.014.045.029.082.021.073.015.065v.07l-.009.059-.027.061-.035.064-.041.055-.061.064-.067.035-.079.045-.047.032-.036.033-.025.043v.041l.028.043.05.02.01.003.066-.003.088-.035.093-.058.097-.071.059-.023h.045l.078.002.073.038.065.053.064.064.04.038.01.055-.01.067-.023.049-.033.041-.043.032-.083.05-.064.029-.037.026-.038.043-.045.052-.037.052-.038.053-.037.052-.038.053-.014.021-.029.075.005.079.021.076.053.055.055.026.071-.023.067-.041.066-.067.074-.085.076-.059.064-.008.032.005.048.009.079.029.062.035.049.047.026.053.002.027v.013s.007.047.007.047l.007.062.029.066.037.07.051.038.064.052.055.05.063.07.061.109.002.079-.043.12.008.093.023.054.05.051.091.054.18.19.062.087.06.1.002.042.164.523,2.812-1.614.11-.063.111-.064,8.1-4.647,10.153-5.737,1.569-.697.83-.226-.131.56-.222.948-.042.178-.162-.043.024.854.004.164h.038s.354,6.93.354,6.93l.157,6.637.047,2.046.111,4.827-7.281.18-3.171,2.244-.267.188-.784.555-.753.532-.931.659-.238.168.099,3.482.09,3.155.013.453.027.947.026.94h.082s3.268-.052,3.268-.052l.172,6.324-.247.136v.028s-2.37,1.301-2.37,1.301l-.22.121-.127.07-.911.5-4.154,2.281-.616.339-12.725,6.986-.224.123-2.009,1.103.042,1.137.084,2.301.041,1.149.042,1.15.038,1.056.008.186.038,1.053.007.174.018.503.192-.004.688-.018-.41.226-.246.136-.673.372-8.28,4.576-4.795,2.65-3.334,1.843-.225.124-5.039,2.786-.451.249-2.172,1.201-.543.3-.954.528-.579.319-.012-.139.037-.605.091-.643.149-.706.185-.578.179-.552.103-.461.068-.489.041-.503-.007-.551-.048-.572-.084-.517-.116-.496-.145-.468-.135-.33-.516.292-.434.246-.291.165-.467.265-.292.165-1.036.587-1.983,1.124-.423.239-.542.308-.246.139-1.086.615-2.753,1.559-2.617,1.483-.89.504-.502.285-9.953,5.639-.017.01-.096.054-.085.049-5.457,3.092-.402.228-.216.124-.029.016-23.554,13.533-.248.142-.013-1.339-.062-6.474-.176-14.854-.055-2.223-.008-.285-.291-11.609,3.341-.076-.008-.411-.263-12.521-.011-.505,15.481-.439,1.5-.084,1.528-.252.235-.078.811-.273,1.027-.399,1.701-.839,1.644-.943,7.749-4.434,2.328-1.331-.86-13.115.01-5.071.009-4.229.002-1.148.64-2.083.21-.116.79-.438.798-.443.656-.364.524-.291.461-.255.201-.112.752-.416.636-.354.772-.428,2.246-1.246.05-.028.129-.073-.072-.122-.276-.165-.415-.206-.514-.342.135-.074,1.166-.647.551-.305.547-.304,1.128-.625.638-.371.196.037.672.047.727.022.44-.035.401-.106.574-.227.809-.398.625-.431,1.107-.936,1.102-.876.664-.457.285-.156-.271-.485-.136-.243-.005-.053-.023-.249-.014-.151-.01-.104,1.337-.124.482-.008.425.04.603.114.303-.103,3.632-2.067.605-.347.289-.143.234-.034.246.023.953.262.098.027.203.037h.306s.31-.054.31-.054l.246-.115,3.966-2.256.58-.329.35-.082,1.518-.134.478-.149,6.263-3.556.06.163.117-.066.446-.253.163-.093.322-.183.39-.222.045-.025.04-.023.143-.082.072-.041" vector-effect="none" fill="none" stroke="#333" stroke-linecap="square" stroke-linejoin="bevel" stroke-width=".5"/>
    <path id="pointdoug" d="M120.134,71.394l4.382-.104,6.8-.127-.33-13.651,6.916-.155.174,8.216.154.072.027.013.172.08.129.061.091.043.092.043.049.023.042.02.091.043.091.043.092.043.091.043.091.043.062.029.03.014.091.043.093.044.092.044.149.069.105.049.092.044.151.071.189.089.168.079.215.1.41.192.193.091.289.135.097.045.049.023.228.107.141.066.121.056.121.057.121.057.122.057.121.057.122.057.121.057.122.057.121.057.122.057.121.057.012.005.11.051.148.069.137.064.13.061.126.059.126.059.199.093.241.113.868.406.084.039.085.04.468.219.065.031.239.112.126.059.135.063.134.063.135.063h.001s.125.059.125.059l.047.022.15.07.215.101.155.073.172.08.05.024.018.008.066.031.066.031.066.031.066.031.066.031.039.018.027.013.068.032.172.08.155.073.125.059.03.014.172.08.068.032.066.031.066.031.066.031.066.031.066.031.066.031.068.032.171.08.155.073.286.134.183.086.268.126.125.058.275.128.058.027.372.174.062.029.061.029.062.029.061.029h.003s.067.033.067.033l.068.032.061.028.059.028.072.034.071.033.066.031.07.033.061.028.062.029.062.029.062.029.2.093.188.088.498.233.234.11.223.104.457.214.366.171.171.08.058.027.235.11.274.128.349.163.181.086.4.187.342.16.058.027.172.08-3.94,8.442,2.319,1.077.079-.148,9.462,4.425-.108.355-.814,1.734-2.005,4.269-.148.319-6.136-2.844-1.802,1.384-.036.868.122.057.112.052.853.398.457.213.39.182.572.267.573.267.952.444.2.093.958.447.075.035.036-.075,1.511.704-1.249,2.68,9.447,4.383,1.885.853,2.729,1.272.303.141.151.07.286.133.164.024-.013.097.414.058.414.058.165.023.165.023.827.119v.005l.163.035.653.138.161.056,1.476.285,1.384.292.118.025.12.025,2.177.46.122.026,1.901.404.685.132,1.571.082,3.207.191.575.052-.086.436-.106.321-.164.329-.18.239-.166.186-.202.186-.238.139-.303.108-.439.12-.492.077-.487.032-1.167.042-.403-.016-2.121-.149-.847-.041-1.48-.149-.205.017-.263.049-.264.08-.454.165-.865.348-.851.378-.146.096-.117.078-.353.296-.305.305-.263.321-.214.378-.09.236-.029.126-.027.115-.009.444.008.549.045.508.17.552.173.379-.79.146-.275-.092-.238.104-.392.231-.183.15-.127.13-.155.195-.098.153-.188.411-.058.219-.033.22-1.164-.534-.342.031.149.395-.849.321-.694-1.841-.086-.227-.209-.097-.611-.285-1.733-.808-.912-.424-.034.076-.139.297-.076-.035-1.029-.479-1.396-.65-.457-.212-.01.022-.128.274-.035.076-.074-.034-.467-.161.02-.955-3.671-1.704-.926-.391-7.059-3.286-1.103-.514-4.195-1.954-2.094-.976-1.61-.75-1.958-.912-3.356-4.733-.002-.088-2.689.067-4.239.104-6.673.165-4.346.108-.115-.126-1.014-1.112-1.395-1.532-.258-.282-.088-3.686-.155-6.673-.043-1.845-.161-6.816-.199-4.924,2.609-.159" vector-effect="none" fill="none" stroke="#333" stroke-linecap="square" stroke-linejoin="bevel" stroke-width=".5"/>
    <path id="stjames" d="M63.099,124.544l.132-3.156.071-1.683.126-3.006.01-.227.007-.388.454-10.91v-.006s0-.006,0-.006v-.006s0-.006,0-.006v-.006s0-.006,0-.006v-.006s0-.006,0-.006v-.006s0-.006,0-.006v-.006s0-.006,0-.006v-.006s0-.006,0-.006v-.006s0-.006,0-.006v-.006s0-.006,0-.006v-.006s0-.006,0-.006v-.006s0-.006,0-.006v-.006s0-.006,0-.006v-.006s0-.006,0-.006v-.006s0-.006,0-.006v-.006s0-.006,0-.006v-.006s0-.006,0-.006v-.006s0-.006,0-.006v-.006s0-.006,0-.006v-.006s0-.006,0-.006v-.006s0-.006,0-.006v-.006s0-.006,0-.006v-.006s0-.006,0-.006v-.006s0-.006,0-.006v-.006s0-.006,0-.006v-.006s0-.006,0-.006v-.006s0-.006,0-.006v-.006s0-.006,0-.006v-.006s0-.006,0-.006v-.006s0-.006,0-.006v-.006s0-.006,0-.006v-.006s0-.006,0-.006v-.006s0-.006,0-.006v-.006s0-.006,0-.006v-.006s0-.006,0-.006v-.006s0-.006,0-.006v-.006s0-.006,0-.006v-.006s0-.006,0-.006v-.006s0-.006,0-.006v-.006s0-.006,0-.006v-.006s0-.006,0-.006v-.006s0-.006,0-.006v-.006s0-.006,0-.006v-.006s0-.006,0-.006v-.006s0-.006,0-.006v-.006s0-.006,0-.006v-.006s0-.006,0-.006v-.006s0-.006,0-.006v-.006s0-.006,0-.006v-.006s0-.006,0-.006v-.006s0-.006,0-.006v-.006s0-.006,0-.006v-.006s0-.006,0-.006v-.006s0-.006,0-.006v-.006s0-.006,0-.006v-.006s0-.006,0-.006v-.006s0-.006,0-.006v-.006s0-.006,0-.006v-.006s0-.006,0-.006v-.006s0-.006,0-.006v-.006s0-.006,0-.006v-.006s0-.006,0-.006v-.006s0-.006,0-.006v-.006s0-.006,0-.006v-.006s0-.006,0-.006v-.006s0-.006,0-.006v-.006s0-.006,0-.006v-.006s0-.006,0-.006v-.006s0-.006,0-.006v-.006s0-.006,0-.006v-.006s0-.006,0-.006v-.006s0-.006,0-.006v-.006s0-.006,0-.006v-.006s0-.006,0-.006v-.006s0-.006,0-.006v-.006s0-.006,0-.006v-.006s0-.006,0-.006v-.006s0-.006,0-.006v-.006s0-.006,0-.006v-.006s0-.006,0-.006v-.006s0-.006,0-.006v-.006s0-.006,0-.006v-.006s0-.006,0-.006v-.006s0-.006,0-.006v-.006s0-.006,0-.006v-.006s0-.006,0-.006v-.006s0-.006,0-.006v-.006s0-.006,0-.006v-.006s0-.006,0-.006v-.006s0-.006,0-.006v-.006s0-.006,0-.006v-.006s0-.006,0-.006v-.006s0-.006,0-.006v-.006s0-.006,0-.006v-.006s0-.006,0-.006v-.006s0-.006,0-.006v-.006s0-.006,0-.006v-.006s0-.006,0-.006v-.006s0-.006,0-.006v-.006s0-.006,0-.006v-.006s0-.006,0-.006v-.006s0-.006,0-.006v-.006s0-.006,0-.006v-.006s0-.006,0-.006v-.006s0-.006,0-.006v-.006s0-.006,0-.006v-.006s0-.006,0-.006v-.006s0-.006,0-.006v-.006s0-.006,0-.006v-.006s0-.006,0-.006v-.006s0-.006,0-.006v-.006s0-.006,0-.006v-.006s0-.006,0-.006v-.006s0-.006,0-.006v-.006s0-.006,0-.006v-.006s0-.006,0-.006v-.006s.001-.006.001-.006v-.006s0-.006,0-.006v-.006s0-.006,0-.006v-.006s0-.006,0-.006v-.006s.001-.006.001-.006v-.006s0-.006,0-.006v-.006s0-.006,0-.006v-.006s.001-.006.001-.006v-.006s0-.006,0-.006v-.006s.001-.006.001-.006v-.006s0-.006,0-.006v-.006s.001-.006.001-.006v-.006s.001-.006.001-.006v-.006s0-.006,0-.006v-.006s.001-.006.001-.006v-.006s.001-.006.001-.006v-.006s.001-.006.001-.006v-.006s.001-.006.001-.006v-.006s.001-.006.001-.006v-.006s0-.006,0-.006v-.006s.001-.006.001-.006v-.006s.001-.006.001-.006v-.006s.001-.006.001-.006v-.006s.001-.006.001-.006v-.006s.001-.006.001-.006v-.006s.001-.006.001-.006v-.006s.001-.006.001-.006v-.006s.001-.006.001-.006v-.006s.001-.006.001-.006v-.006s.001-.006.001-.006v-.006s.001-.006.001-.006v-.006s.001-.006.001-.006v-.006s.001-.006.001-.006v-.006s.001-.006.001-.006v-.006s.001-.006.001-.006v-.006s.001-.006.001-.006v-.006s.001-.006.001-.006v-.006s.001-.006.001-.006v-.006s.001-.006.001-.006v-.006s.001-.006.001-.006v-.006s.001-.006.001-.006v-.006s.001-.006.001-.006v-.006s.001-.006.001-.006v-.006s.001-.006.001-.006v-.006s.001-.006.001-.006v-.006s.001-.006.001-.006v-.006s.001-.006.001-.006v-.006s.001-.006.001-.006v-.006s.001-.006.001-.006v-.006s.001-.006.001-.006v-.006s.001-.006.001-.006v-.006s.001-.006.001-.006v-.006s.001-.006.001-.006v-.006s.001-.006.001-.006v-.006s.001-.006.001-.006v-.006s.001-.006.001-.006v-.006s.001-.006.001-.006v-.006s.001-.006.001-.006v-.006s.001-.006.001-.006v-.006s.001-.006.001-.006v-.006s.001-.006.001-.006v-.006s.001-.006.001-.006v-.006s.001-.006.001-.006v-.006s.001-.006.001-.006v-.006s.566-5.035.566-5.035v-.012s.003-.012.003-.012v-.012s.003-.012.003-.012v-.012s.003-.012.003-.012v-.012s.002-.012.002-.012v-.012s.003-.012.003-.012v-.012s.002-.012.002-.012v-.012s.002-.012.002-.012v-.012s.002-.012.002-.012v-.012s.002-.012.002-.012v-.012s.002-.012.002-.012v-.012s.002-.012.002-.012v-.012s.002-.012.002-.012v-.012s.002-.012.002-.012v-.012s.002-.012.002-.012v-.012s.002-.012.002-.012v-.012s.002-.012.002-.012v-.012s.002-.012.002-.012v-.012s.002-.012.002-.012v-.012s.002-.012.002-.012v-.012s.002-.012.002-.012v-.012s.002-.012.002-.012v-.012s.002-.012.002-.012v-.012s.002-.012.002-.012v-.012s.002-.012.002-.012v-.012s.002-.012.002-.012v-.012s.002-.012.002-.012v-.012s.002-.012.002-.012v-.012s.002-.012.002-.012v-.012s.002-.012.002-.012v-.012s.001-.012.001-.012v-.012s.001-.012.001-.012v-.012s.001-.012.001-.012v-.012s.001-.012.001-.012v-.012s.001-.012.001-.012v-.012s.001-.012.001-.012v-.012s.001-.012.001-.012v-.012s.001-.012.001-.012v-.012s.001-.012.001-.012v-.012s.001-.012.001-.012v-.012s.001-.012.001-.012v-.012s0-.012,0-.012v-.012s0-.012,0-.012v-.012s0-.012,0-.012v-.012s0-.012,0-.012v-.012s0-.012,0-.012v-.012s0-.012,0-.012v-.012s0-.012,0-.012v-.012s0-.012,0-.012v-.012s0-.012,0-.012v-.012s0-.012,0-.012v-.012s0-.012,0-.012v-.012s0-.012,0-.012v-.012s0-.012,0-.012v-.012s0-.012,0-.012v-.012s0-.012,0-.012v-.012s0-.012,0-.012v-.012s0-.012,0-.012v-.012s0-.012,0-.012v-.012s0-.012,0-.012v-.012s0-.012,0-.012v-.024s0-.012,0-.012v-.012s0-.012,0-.012v-.024s0-.012,0-.012v-.012s0-.012,0-.012v-.037s0-.012,0-.012v-.012s0-.012,0-.012v-.012s0-.012,0-.012v-.012s0-.012,0-.012v-.012s0-.012,0-.012v-.012s0-.012,0-.012v-.012s0-.012,0-.012v-.012s0-.012,0-.012v-.012s0-.012,0-.012v-.012s0-.012,0-.012v-.012s0-.012,0-.012v-.012s0-.012,0-.012v-.012s0-.012,0-.012v-.012s0-.012,0-.012v-.012s0-.012,0-.012v-.012s0-.012,0-.012v-.012s0-.012,0-.012v-.012s0-.012,0-.012v-.012s0-.012,0-.012v-.012s0-.012,0-.012v-.012s0-.012,0-.012v-.012s0-.012,0-.012v-.012s-.001-.012-.001-.012v-.012s-.001-.012-.001-.012v-.012s-.001-.012-.001-.012v-.012s-.001-.012-.001-.012v-.012s-.001-.012-.001-.012v-.012s-.001-.012-.001-.012v-.012s-.001-.012-.001-.012v-.012s-.001-.012-.001-.012v-.012s-.001-.012-.001-.012v-.012s-.001-.012-.001-.012v-.012s-.002-.012-.002-.012v-.012s-.002-.012-.002-.012v-.012s-.002-.012-.002-.012v-.012s-.002-.012-.002-.012v-.012s-.002-.012-.002-.012v-.012s-.002-.012-.002-.012v-.012s-.002-.012-.002-.012v-.012s-.002-.012-.002-.012v-.012s-.002-.012-.002-.012v-.012s-.002-.012-.002-.012v-.012s-.002-.012-.002-.012v-.012s-.002-.012-.002-.012v-.012s-.002-.012-.002-.012v-.012s-.002-.012-.002-.012v-.012s-.002-.012-.002-.012v-.012s-.002-.012-.002-.012v-.012s-.002-.012-.002-.012v-.012s-.002-.012-.002-.012v-.012s-.002-.012-.002-.012v-.012s-.002-.012-.002-.012v-.012s-.002-.012-.002-.012v-.012s-.002-.012-.002-.012v-.012s-.002-.012-.002-.012v-.012s-.002-.012-.002-.012v-.012s-.003-.012-.003-.012v-.012s-.003-.012-.003-.012v-.012s-.003-.012-.003-.012v-.012s-.003-.012-.003-.012v-.012s-.003-.012-.003-.012v-.012s-.003-.012-.003-.012v-.012s-.003-.012-.003-.012v-.012s-.003-.012-.003-.012l-.002-.012v-.012s-.003-.012-.003-.012v-.012s-.003-.012-.003-.012v-.012s-.003-.012-.003-.012v-.012s-.003-.012-.003-.012l-.002-.012-.002-.012-.002-.012-.002-.012-.002-.012-.002-.012-.002-.012-.002-.012-.002-.012-.002-.012-.002-.012-.002-.012-.002-.012-.002-.012-.002-.012-.002-.012-.002-.012-.002-.012-.002-.012-.002-.012-.002-.012-.002-.012-.002-.012-.002-.012-.002-.012-.002-.012-.002-.012-.002-.012-.002-.012-.002-.012-.002-.012-.002-.012-.002-.012-.002-.012-.002-.012-.002-.012-.002-.012-.002-.012-.002-.012-.002-.012-.002-.012-.002-.012-.002-.012-.002-.012-.002-.012-.002-.012-.002-.012-.002-.012-.002-.012-.002-.012-.002-.012-.002-.012-.002-.012-.002-.012-.002-.012-.002-.012-.002-.012-.002-.012-.002-.012-.002-.012-.002-.012-.002-.012-.002-.012-.002-.012-.002-.012-.002-.012-.002-.012-.002-.012-.002-.012-.002-.012-.002-.012-.002-.012-.002-.012-.002-.012-.002-.012-.002-.012-.002-.012-.002-.012-.002-.012-.002-.012-.002-.012-.002-.012-.002-.012-.002-.012-.002-.012-.002-.012-.002-.012-.003-.012-.002-.012-.003-.012-.401-1.954-.002-.01-.002-.01-.002-.011-.002-.01-.002-.01-.002-.01-.002-.01-.002-.01-.002-.01-.002-.011-.002-.01-.002-.01-.002-.01-.002-.011-.002-.01-.002-.01-.002-.01-.002-.011-.002-.01-.002-.01-.002-.01-.002-.011-.002-.01-.002-.011-.002-.01-.002-.01-.002-.011-.002-.01-.002-.01-.002-.011-.002-.01-.002-.011-.002-.01-.002-.011-.002-.01-.002-.011-.002-.01-.002-.011-.002-.01-.002-.011-.002-.01-.002-.011-.002-.01-.002-.011-.002-.01-.002-.011-.002-.011-.002-.01-.002-.011-.002-.01-.002-.011-.002-.011-.002-.01-.002-.011-.002-.011-.002-.01-.002-.011-.002-.011-.002-.01-.002-.011-.002-.011-.002-.011-.002-.01-.002-.011-.002-.011-.002-.011-.002-.011-.002-.01-.002-.011-.002-.011-.002-.011-.002-.011-.002-.01-.002-.011-.002-.011-.002-.011-.002-.011-.002-.011-.002-.011-.002-.011-.002-.011-.002-.011-.002-.01-.002-.011-.002-.011-.002-.011-.002-.011-.002-.011-.002-.011-.002-.011-.002-.011-.002-.011v-.011s-.003-.011-.003-.011l-.002-.011v-.011s-.003-.011-.003-.011v-.011s-.003-.011-.003-.011v-.011s-.003-.011-.003-.011v-.011s-.003-.011-.003-.011v-.011s-.003-.011-.003-.011v-.011s-.003-.011-.003-.011v-.011s-.003-.011-.003-.011v-.011s-.003-.011-.003-.011v-.011s-.003-.011-.003-.011v-.011s-.003-.011-.003-.011v-.011s-.003-.011-.003-.011v-.011s-.003-.011-.003-.011v-.011s-.003-.011-.003-.011v-.011s-.003-.011-.003-.011v-.011s-.003-.011-.003-.011v-.011s-.003-.011-.003-.011v-.011s-.003-.011-.003-.011v-.011s-.002-.011-.002-.011v-.011s-.003-.011-.003-.011v-.011s-.002-.011-.002-.011v-.011s-.002-.011-.002-.011v-.011s-.002-.011-.002-.011v-.011s-.002-.011-.002-.011v-.011s-.002-.011-.002-.011v-.011s-.002-.011-.002-.011v-.011s-.002-.011-.002-.011v-.011s-.002-.011-.002-.011v-.011s-.002-.011-.002-.011v-.011s-.002-.011-.002-.011v-.011s-.002-.011-.002-.011v-.011s-.002-.011-.002-.011v-.011s-.002-.011-.002-.011v-.011s-.002-.011-.002-.011v-.011s-.002-.011-.002-.011v-.011s-.002-.011-.002-.011v-.011s-.002-.011-.002-.011v-.011s-.002-.011-.002-.011v-.011s-.002-.011-.002-.011v-.011s-.002-.011-.002-.011v-.011s-.002-.011-.002-.011v-.011s-.002-.011-.002-.011v-.011s-.002-.011-.002-.011v-.011s-.002-.011-.002-.011v-.011s-.002-.011-.002-.011v-.011s-.002-.011-.002-.011v-.011s-.002-.011-.002-.011v-.011s-.002-.011-.002-.011v-.011s-.002-.011-.002-.011v-.011s-.002-.011-.002-.011v-.011s-.002-.011-.002-.011v-.011s-.002-.011-.002-.011v-.011s-.002-.011-.002-.011v-.011s-.002-.011-.002-.011v-.011s-.002-.011-.002-.011v-.011s-.002-.011-.002-.011v-.011s-.002-.011-.002-.011v-.011s-.001-.011-.001-.011v-.011s-.001-.011-.001-.011v-.011s-.001-.011-.001-.011v-.011s-.001-.011-.001-.011v-.011s-.001-.011-.001-.011v-.011s-.001-.011-.001-.011v-.011s-.001-.011-.001-.011v-.011s-.001-.011-.001-.011v-.011s-.001-.011-.001-.011v-.011s-.001-.011-.001-.011v-.011s-.001-.011-.001-.011v-.011s-.001-.011-.001-.011v-.011s-.001-.011-.001-.011v-.011s-.001-.011-.001-.011v-.011s-.001-.011-.001-.011v-.011s-.001-.011-.001-.011v-.011s-.001-.011-.001-.011v-.011s0-.011,0-.011v-.011s0-.011,0-.011v-.011s0-.011,0-.011v-.011s0-.011,0-.011v-.011s0-.011,0-.011v-.011s0-.011,0-.011v-.011s0-.011,0-.011v-.011s0-.011,0-.011v-.011s0-.011,0-.011v-.011s0-.011,0-.011v-.011s0-.011,0-.011v-.011s0-.011,0-.011v-.011s0-.011,0-.011v-.011s0-.011,0-.011v-.011s0-.011,0-.011v-.011s0-.011,0-.011v-.011s0-.011,0-.011v-.011s0-.011,0-.011v-.011s0-.011,0-.011v-.011s0-.011,0-.011v-.011s0-.011,0-.011v-.011s0-.011,0-.011v-.011s0-.011,0-.011v-.011s0-.011,0-.011v-.011s0-.011,0-.011v-.011s0-.011,0-.011v-.011s0-.011,0-.011v-.011s0-.011,0-.011v-.011s0-.011,0-.011v-.011s0-.011,0-.011v-.011s0-.011,0-.011v-.011s0-.011,0-.011v-.011s0-.011,0-.011v-.011s0-.011,0-.011v-.011s0-.011,0-.011v-.011s0-.011,0-.011v-.011s0-.011,0-.011v-.032s0-.011,0-.011v-.032s0-.011,0-.011v-.032s0-.011,0-.011v-.011s0-.011,0-.011v-.011s0-.011,0-.011v-.011s0-.011,0-.011v-.011s0-.011,0-.011v-.011s0-.011,0-.011v-.011s0-.011,0-.011v-.011s0-.011,0-.011v-.011s0-.011,0-.011v-.011s0-.011,0-.011v-.011s0-.011,0-.011v-.011s0-.011,0-.011v-.011s0-.011,0-.011v-.011s0-.011,0-.011v-.011s0-.011,0-.011v-.011s0-.011,0-.011v-.011s0-.011,0-.011l13.49-.182-.051-1.915,21.508-.519-.008.25-.199,6.352-.217,7.015.968-.023h.027s.054-.002.054-.002l.965-.023.99-.024.901-.022,1.012-.024.084-.002,1.463-.036,1.464-.035.084-.002,1.007-.024,1.496-.036,1.264-.031,1.25-.03.322-.008,6.676-.162-.071-2.986.258.282,1.395,1.532,1.014,1.112.115.126,4.346-.108,6.673-.165,4.239-.104,2.689-.067.002.088,3.356,4.733,1.958.912-2.136,4.589-.281.619-.173.38-.221.519-.209.506-.177.54-.136.562-.082.502-.039.444-.013.376-.08,2.576-.083,3.303-.318,11.454-.083,2.954-.731-.046-.33.038-.586.153-.488.16-.462.235-.263.206-.29.152-.425.156-.535.172-.578.178-.444.122-.116.032-.324.032-.401-.012-.566-.096-.427-.033-.285.007-.289.072-.291.138-.254.236-.152.267-.038.242.088.878.02.46-.064.203-.114.198-.178.184-.273.14-.268.084-.267.017-.315-.061-1.027-.358-.381-.084-.49-.083-.324.007-.477.095-.714.173-1.437.497-.393.147-.049.018-.56.178-.406.058-.529.007-.528-.052-.202-.057-.439-.248-.687-.358-.624-.356-.44-.228-.406-.153-.675-.287-.649-.248-.021-.005-.342-.084-.446-.032-.444.043-.668.013-.757-.038-.712-.014-.611.032-.534.121-1.115.392-.559.16-.518.11-.16-.005-1.115-.14-.285-.005-.14.026-.118.058-.088.075-.218.309-.373.439-.191.135-.01.003-.286.091-.347.037-.487-.032-.575-.058-.318-.013-.179-.008-.27.046-.543.162-1.002.235-.205.086-.561.287-.517.205-.6.181-.694.27-1.254.602-.352.129-.337.041-.678-.046-.71-.1-.561-.046-.128-.011-.674.005-.225.013-.192.011-.146.036-.246.061-.414.171-.66.346-.616.379-.566.454-.433.319-.565.284-.632.213-.336.062-.518.011-.502-.099-.798-.249-.353-.04-.302-.01-.389.064-.225.103-.135.063-.247.227-.193.284-.446-.176.095-1.859.998.048.007-.126.058.003.063.003.161-3.2.016-.139.038-.151.034-.161.018-.158-.063-.003-.743-.037-.389-.02.164-3.255.009-.171-.292-.099-8.087-1.762-3.003-.656-2.697-.588-4.79.953-3.519.738-5.644,1.176-.227-2.081.118-.638.209-1.131.106-.574v-.002s0-.002,0-.002v-.003s0-.002,0-.002v-.002s0-.002,0-.002v-.003s0-.002,0-.002v-.002s0-.003,0-.003v-.002s0-.002,0-.002v-.002s0-.003,0-.003v-.002s0-.002,0-.002v-.002s0-.003,0-.003v-.002s0-.002,0-.002v-.002s0-.003,0-.003v-.002s0-.002,0-.002v-.002s0-.003,0-.003v-.002s0-.002,0-.002v-.002s0-.003,0-.003v-.002s0-.002,0-.002v-.002s0-.003,0-.003v-.002s0-.002,0-.002v-.003s0-.002,0-.002v-.002s0-.002,0-.002v-.003s0-.002,0-.002v-.002s0-.002,0-.002v-.003s0-.002,0-.002v-.002s0-.002,0-.002v-.003s0-.002,0-.002v-.002s0-.002,0-.002v-.003s0-.002,0-.002v-.002s0-.002,0-.002v-.003s0-.002,0-.002v-.002s0-.002,0-.002v-.003s0-.002,0-.002v-.002s0-.002,0-.002v-.003s0-.002,0-.002v-.002s0-.002,0-.002v-.003s0-.002,0-.002v-.002s0-.002,0-.002v-.003s0-.002,0-.002v-.002s0-.002,0-.002v-.003s0-.002,0-.002v-.002s0-.002,0-.002v-.003s0-.002,0-.002v-.002s0-.002,0-.002v-.003s0-.002,0-.002v-.002s0-.002,0-.002v-.003s0-.002,0-.002v-.002s0-.002,0-.002v-.003s0-.002,0-.002v-.002s0-.002,0-.002v-.003s0-.002,0-.002v-.002s0-.002,0-.002v-.003s0-.002,0-.002v-.002s0-.002,0-.002v-.003s0-.002,0-.002v-.002s0-.002,0-.002v-.003s0-.002,0-.002v-.002s0-.002,0-.002v-.003s0-.002,0-.002v-.002s0-.002,0-.002v-.003s0-.002,0-.002v-.002s0-.002,0-.002v-.003s0-.002,0-.002v-.002s0-.002,0-.002v-.003s0-.002,0-.002v-.002s0-.002,0-.002v-.003s0-.002,0-.002v-.002s0-.002,0-.002v-.003s0-.002,0-.002v-.002s0-.002,0-.002v-.002s0-.002,0-.002v-.003s0-.002,0-.002v-.002s0-.002,0-.002v-.002s0-.003,0-.003v-.002s0-.002,0-.002v-.002s0-.002,0-.002v-.002s0-.003,0-.003v-.002s0-.002,0-.002v-.002s0-.002,0-.002v-.003s0-.002,0-.002v-.002s0-.003,0-.003v-.002s0-.003,0-.003v-.002s0-.002,0-.002v-.003s0-.002,0-.002v-.002s0-.003,0-.003v-.002s0-.002,0-.002v-.002s.001-.002.001-.002v-.002s0-.003,0-.003v-.002s0-.002,0-.002v-.003s0-.002,0-.002v-.002s.001-.003.001-.003v-.002s0-.002,0-.002v-.003s0-.002,0-.002v-.002s.001-.002.001-.002v-.002s0-.002,0-.002v-.002s.001-.003.001-.003v-.002s0-.002,0-.002v-.003s.001-.002.001-.002v-.002s.001-.002.001-.002v-.003s0-.002,0-.002v-.002s.001-.003.001-.003v-.002s.001-.002.001-.002v-.002s.001-.003.001-.003v-.002s.001-.002.001-.002v-.002s.001-.003.001-.003v-.002s.001-.002.001-.002v-.002s.001-.002.001-.002v-.002s.001-.002.001-.002v-.002s.001-.003.001-.003v-.002s.001-.002.001-.002v-.002s.001-.003.001-.003v-.002s.001-.002.001-.002v-.002s.001-.002.001-.002v-.002s.001-.002.001-.002v-.002s.001-.002.001-.002v-.003s.001-.002.001-.002v-.002s.001-.002.001-.002v-.002s.001-.003.001-.003v-.002s.001-.002.001-.002v-.002s.001-.002.001-.002v-.002s.001-.003.001-.003v-.002s.001-.002.001-.002v-.002s.001-.002.001-.002v-.003s.001-.002.001-.002v-.002s.001-.002.001-.002v-.002s.001-.002.001-.002v-.002s.001-.002.001-.002v-.002s.001-.002.001-.002v-.002s.001-.002.001-.002v-.002s.001-.002.001-.002v-.003s.001-.002.001-.002v-.002s.001-.002.001-.002v-.002s.001-.002.001-.002v-.002s.001-.002.001-.002v-.003s.001-.002.001-.002v-.002s.001-.002.001-.002v-.002s.001-.002.001-.002v-.002s.001-.002.001-.002v-.002s.001-.002.001-.002v-.003s.001-.002.001-.002v-.002s.001-.002.001-.002v-.002s.001-.002.001-.002v-.002s.001-.002.001-.002v-.002s.001-.002.001-.002v-.002s.001-.002.001-.002v-.002s.001-.002.001-.002v-.002s.001-.003.001-.003v-.002s.001-.002.001-.002v-.002s.001-.002.001-.002v-.002s.001-.002.001-.002v-.002s.001-.002.001-.002v-.002s.001-.002.001-.002v-.002s.001-.002.001-.002v-.002s.001-.002.001-.002v-.002s.001-.002.001-.002v-.002s.001-.002.001-.002v-.002s.001-.002.001-.002v-.002s.001-.002.001-.002v-.002s.001-.002.001-.002v-.002s.001-.002.001-.002v-.002s.001-.002.001-.002v-.002s.001-.002.001-.002v-.002s.001-.002.001-.002v-.002s.001-.002.001-.002v-.002s.001-.002.001-.002v-.002s.001-.002.001-.002v-.002s.001-.002.001-.002v-.002s.001-.002.001-.002v-.002s.001-.002.001-.002v-.002s.001-.002.001-.002v-.002s.001-.002.001-.002v-.002s.001-.002.001-.002v-.002s.001-.002.001-.002v-.002s.001-.002.001-.002v-.002s.001-.002.001-.002v-.002s.001-.002.001-.002v-.002s.001-.002.001-.002v-.002s.001-.002.001-.002v-.002s.001-.002.001-.002v-.002s.001-.002.001-.002v-.002s.001-.002.001-.002v-.002s.001-.001.001-.001h0s0-.003,0-.003h0s0-.003,0-.003v-.002s0-.001,0-.001h0s0-.003,0-.003h0s0-.003,0-.003h0s0-.003,0-.003h0s0-.003,0-.003h0s0-.003,0-.003h0s0-.003,0-.003h0s0-.003,0-.003h0s0-.003,0-.003v-.002s0-.001,0-.001h0s0-.003,0-.003h0s0-.003,0-.003h0s0-.003,0-.003h0s0-.003,0-.003h0s0-.003,0-.003h0s0-.003,0-.003h0s0-.003,0-.003h0s0-.003,0-.003h0s0-.003,0-.003h0s0-.003,0-.003h0s0-.003,0-.003h0s0-.003,0-.003h0s0-.003,0-.003h0s0-.003,0-.003h0s0-.003,0-.003h0s0-.003,0-.003h0s0-.003,0-.003h0s0-.003,0-.003h0s0-.003,0-.003h0s0-.003,0-.003h0s0-.003,0-.003h0s0-.003,0-.003h0s0-.003,0-.003h0s0-.003,0-.003h0s0-.003,0-.003h0s0-.003,0-.003h0s0-.003,0-.003h0s0-.003,0-.003h0s0-.003,0-.003h0s0-.003,0-.003h0s0-.003,0-.003h0s0-.003,0-.003h0s0-.003,0-.003h0s0-.003,0-.003h0s0-.003,0-.003h0s0-.003,0-.003h0s0-.003,0-.003h0s0-.003,0-.003h0s0-.003,0-.003h0s0-.003,0-.003h0s0-.003,0-.003h0s0-.003,0-.003h0s0-.003,0-.003h0s0-.003,0-.003h0s0-.003,0-.003h0s0-.003,0-.003h0s0-.003,0-.003h0s0-.003,0-.003h0s0-.003,0-.003h0s0-.003,0-.003h0s0-.003,0-.003h0s0-.003,0-.003h0s0-.003,0-.003h0s0-.003,0-.003h0s0-.003,0-.003h0s0-.003,0-.003h0s0-.003,0-.003h0s0-.003,0-.003h0s0-.003,0-.003h0s0-.003,0-.003h0s0-.003,0-.003h0s0-.003,0-.003h0s0-.003,0-.003h0s0-.003,0-.003h0s0-.003,0-.003h0s0-.003,0-.003h0s0-.003,0-.003h0s0-.003,0-.003h0s0-.003,0-.003h0s0-.003,0-.003h0s0-.003,0-.003h0s0-.003,0-.003h0s0-.003,0-.003h0s0-.003,0-.003h0s0-.003,0-.003h0s0-.003,0-.003h0s0-.003,0-.003h0s0-.003,0-.003h0s0-.003,0-.003h0s0-.003,0-.003h0s0-.003,0-.003h0s0-.003,0-.003h0s0-.003,0-.003h0s0-.003,0-.003h0s0-.003,0-.003h0s0-.003,0-.003h0s0-.003,0-.003h0s0-.003,0-.003h0s0-.003,0-.003h0s0-.003,0-.003h0s0-.003,0-.003h0s0-.003,0-.003h0s0-.003,0-.003h0s0-.003,0-.003h0s0-.003,0-.003h0s0-.003,0-.003h0s0-.003,0-.003h0s0-.003,0-.003h0s0-.003,0-.003h0s0-.003,0-.003h0s0-.003,0-.003h0s0-.003,0-.003h0s0-.003,0-.003h0s0-.003,0-.003h0s0-.003,0-.003h0s0-.003,0-.003h0s0-.003,0-.003h0s0-.003,0-.003h0s0-.003,0-.003h0s0-.003,0-.003h0s0-.003,0-.003h0s0-.003,0-.003h0s0-.003,0-.003h0s0-.003,0-.003h0s0-.003,0-.003h0s0-.003,0-.003h0s0-.003,0-.003h0s0-.003,0-.003h0s0-.003,0-.003h0s0-.003,0-.003h0s0-.003,0-.003h0s0-.003,0-.003h0s0-.003,0-.003h0s0-.003,0-.003h0s0-.003,0-.003h0s0-.003,0-.003h0s0-.003,0-.003h0s0-.003,0-.003h0s0-.003,0-.003h0s0-.003,0-.003h0s0-.003,0-.003h0s0-.003,0-.003h0s0-.003,0-.003h0s0-.003,0-.003h0s0-.003,0-.003h0s0-.003,0-.003h0s0-.003,0-.003h0s0-.003,0-.003h0s0-.003,0-.003h0s0-.003,0-.003h0s0-.003,0-.003h0s0-.003,0-.003h0s0-.003,0-.003h0s0-.003,0-.003h0s0-.003,0-.003h0s0-.003,0-.003h0s0-.003,0-.003h0s0-.003,0-.003h0s0-.003,0-.003h0s0-.003,0-.003h0s0-.003,0-.003h0s0-.003,0-.003h0s0-.003,0-.003h0s0-.003,0-.003h0s0-.003,0-.003h0s0-.003,0-.003h0s0-.003,0-.003h0s0-.003,0-.003h0s0-.003,0-.003h0s0-.003,0-.003h0s0-.003,0-.003h0s0-.003,0-.003h0s0-.003,0-.003h0s0-.003,0-.003h0s0-.003,0-.003h0s0-.003,0-.003h0s0-.003,0-.003l.518-1.254.002-.004.002-.004.002-.004.002-.004.002-.004.002-.004.002-.004.002-.004.002-.004.002-.004.002-.004.002-.004.002-.004.002-.004.002-.004.002-.004.002-.004.002-.004.002-.004.002-.004.002-.004.002-.004.002-.004.002-.004v-.004s.003-.004.003-.004l.002-.004.002-.004.002-.004.002-.004v-.004s.003-.004.003-.004l.002-.004v-.004s.003-.004.003-.004v-.004s.003-.004.003-.004v-.004s.003-.004.003-.004v-.004s.003-.004.003-.004v-.004s.003-.004.003-.004l.002-.004v-.004s.003-.004.003-.004v-.004s.003-.004.003-.004v-.004s.003-.004.003-.004v-.004s.003-.004.003-.004v-.004s.003-.004.003-.004v-.004s.003-.004.003-.004v-.004s.003-.004.003-.004v-.004s.003-.004.003-.004v-.004s.003-.004.003-.004v-.004s.003-.004.003-.004v-.004s.003-.004.003-.004v-.004s.003-.004.003-.004v-.004s.003-.004.003-.004v-.004s.003-.004.003-.004v-.004s.003-.004.003-.004v-.004s.003-.004.003-.004v-.004s.003-.004.003-.004v-.004s.003-.004.003-.004v-.004s.003-.004.003-.004v-.004s.003-.004.003-.004v-.004s.003-.004.003-.004v-.004s.003-.004.003-.004v-.004s.003-.004.003-.004v-.004s.003-.004.003-.004v-.004s.002-.004.002-.004v-.004s.003-.004.003-.004v-.004s.003-.004.003-.004v-.004s.002-.004.002-.004v-.004s.002-.004.002-.004v-.004s.002-.004.002-.004v-.004s.002-.004.002-.004v-.004s.002-.004.002-.004v-.004s.002-.004.002-.004v-.004s.002-.004.002-.004v-.004s.002-.004.002-.004v-.004s.002-.004.002-.004v-.004s.002-.004.002-.004v-.004s.002-.004.002-.004v-.004s.002-.004.002-.004v-.004s.002-.004.002-.004v-.004s.002-.004.002-.004v-.004s.002-.004.002-.004v-.004s.002-.004.002-.004v-.004s.002-.004.002-.004v-.004s.002-.004.002-.004v-.004s.002-.004.002-.004v-.004s.002-.004.002-.004v-.004s.002-.004.002-.004v-.004s.002-.004.002-.004v-.004s.002-.004.002-.004v-.004s.002-.004.002-.004v-.004s.002-.004.002-.004v-.004s.002-.004.002-.004v-.004s.002-.004.002-.004v-.004s.002-.004.002-.004v-.004s.002-.004.002-.004v-.004s.002-.004.002-.004v-.004s.002-.004.002-.004v-.004s.002-.004.002-.004v-.004s.002-.004.002-.004v-.004s.002-.004.002-.004v-.004s.002-.004.002-.004v-.004s.002-.004.002-.004v-.004s.002-.004.002-.004v-.004s.002-.004.002-.004v-.004s.002-.004.002-.004v-.004s.002-.004.002-.004v-.004s.002-.004.002-.004v-.004s.002-.004.002-.004v-.004s.002-.004.002-.004v-.004s.002-.004.002-.004v-.004s.002-.004.002-.004v-.004s.002-.004.002-.004v-.004s.002-.004.002-.004v-.004s.002-.004.002-.004v-.004s.002-.004.002-.004v-.004s.002-.004.002-.004v-.004s.002-.004.002-.004v-.004s.002-.004.002-.004v-.004s.002-.004.002-.004v-.004s.002-.004.002-.004v-.004s.002-.004.002-.004v-.004s.002-.004.002-.004v-.004s.002-.004.002-.004v-.004s.002-.004.002-.004v-.004s.002-.004.002-.004v-.004s.002-.004.002-.004v-.004s.002-.004.002-.004v-.004s.002-.004.002-.004v-.004s.001-.004.001-.004v-.004s.001-.004.001-.004v-.004s.002-.004.002-.004v-.004s.001-.004.001-.004v-.004s.001-.004.001-.004v-.004s.001-.004.001-.004v-.004s.001-.004.001-.004v-.004s.001-.004.001-.004v-.004s.001-.004.001-.004v-.004s.001-.004.001-.004v-.004s.001-.004.001-.004v-.004s.001-.004.001-.004v-.004s.001-.004.001-.004v-.004s.001-.004.001-.004v-.004s.001-.004.001-.004v-.004s.001-.004.001-.004v-.004s.001-.004.001-.004v-.004s.001-.004.001-.004v-.004s.001-.004.001-.004v-.004s.001-.004.001-.004v-.004s.001-.004.001-.004v-.004s.001-.004.001-.004v-.004s.001-.004.001-.004v-.004s.001-.004.001-.004v-.004s.001-.004.001-.004v-.004s.001-.004.001-.004v-.004s0-.004,0-.004v-.004s.001-.004.001-.004v-.004s0-.004,0-.004v-.004s0-.004,0-.004v-.004s0-.004,0-.004v-.004s0-.004,0-.004v-.004s0-.004,0-.004v-.004s0-.004,0-.004v-.004s0-.004,0-.004v-.004s0-.004,0-.004v-.004s0-.004,0-.004v-.004s0-.004,0-.004v-.004s0-.004,0-.004v-.004s0-.004,0-.004v-.004s0-.004,0-.004v-.004s0-.004,0-.004v-.004s0-.004,0-.004v-.004s0-.004,0-.004v-.004s0-.004,0-.004v-.004s0-.004,0-.004v-.004s0-.004,0-.004v-.004s0-.004,0-.004v-.004s0-.004,0-.004v-.004s0-.004,0-.004v-.004s0-.004,0-.004v-.004s0-.004,0-.004v-.004s0-.004,0-.004v-.004s0-.004,0-.004v-.004s0-.004,0-.004v-.004s0-.004,0-.004v-.004s0-.004,0-.004v-.004s0-.004,0-.004v-.004s0-.004,0-.004v-.004s0-.004,0-.004v-.004s0-.004,0-.004v-.004s0-.004,0-.004v-.004s0-.004,0-.004v-.004s0-.004,0-.004v-.004s0-.004,0-.004v-.004s0-.004,0-.004v-.004s0-.004,0-.004v-.004s0-.004,0-.004v-.004" vector-effect="none" fill="none" stroke="#333" stroke-linecap="square" stroke-linejoin="bevel" stroke-width=".5"/>
    <path id="danielmac" d="M144.217,103.837l1.61.75,2.094.976,4.195,1.954,1.103.514,7.059,3.286.926.391,3.671,1.704-.02.955.467.161.074.034.035-.076.128-.274.01-.022.457.212,1.396.65,1.029.479.076.035.139-.297.034-.076.912.424,1.733.808.611.285.209.097.086.227-6.477,3.927.188.494.626,1.363-.26.098-.546-.023-.079-.043-.082-.044-.393-.082-.063-.008-.64-.02-.297-.105-.347-.025v-.453s-.653.295-.653.295l-2.273,1.02-.859.383-.041,1.99-.108,5.078-.028,1.353-.299.612-.261-.143-.296-.106-.29-.086-.231-.036-.148.004-.314.083-.354.15-.372.189-.315.189-1.162.788-.737.472-.378.211-.186.084-.64.174-.421.05-.463.017-.769-.03-.402-.085-.403-.117-.396-.16-.4-.245-.451-.366-.349-.316-.889-.85-.265-.221-.303-.189-.35-.162-.337-.103-.412-.07-.305-.016-.3.025-.408.077-.387.103-1.677.604-.459.21-.317.172-.242.089-.292.071-.312.043-.458.02-1.063-.102-.516-.082-.408-.018.083-2.954.318-11.454.083-3.303.08-2.576.013-.376.039-.444.082-.502.136-.562.177-.54.209-.506.221-.519.173-.38.281-.619,2.136-4.589" vector-effect="none" fill="none" stroke="#333" stroke-linecap="square" stroke-linejoin="bevel" stroke-width=".5"/>
    <path id="waverly" d="M147.728,179.956l.331-.184,1.531-2.105.453,1.011.367,5.785.115,4.752.076,1.035.235.603.709,1.174.439.751,5.184-2.886,3.615-2.013,3.169-.321,2.311-1.161,1.052-.263,2.473-.814,1.746-.506.662-.192.267,1,.122.663.082.694.049.621.075,1.425.066.539.146.601.235.58.208.371.375.385.543.472.622.262.867.252-.638.371-1.128.625-.547.304-.551.305-1.166.647-.135.074.514.342.415.206.276.165.072.122-.129.073-.05.028-2.246,1.246-.772.428-.636.354-.752.416-.201.112-.461.255-.524.291-.656.364-.798.443-.79.438-.21.116-.64,2.083-.002,1.148-.009,4.229-.01,5.071.86,13.115-2.328,1.331-7.749,4.434-1.644.943-1.701.839-1.027.399-.811.273-.235.078-1.528.252-1.5.084-15.481.439-.011-.504-.189-8.151-.111-4.811-.151-5.271-.064-2.196-.179-6.111-3.337.05-.045-2.088-.059-2.484-.01-.429-.043-1.891-.028-1.239-.014-.576-.116-4.89-.036-1.91-.85.017.91-.615,5.076-2.811.775-.429,1.483-.807,3.483-1.941,2.852-1.68,7.456-4.207" vector-effect="none" fill="none" stroke="#333" stroke-linecap="square" stroke-linejoin="bevel" stroke-width=".5"/>
  </g>
<style>
#g-transit-access-single-Artboard_2-wards-img rect, #g-transit-access-single-Artboard_2-wards-img circle, #g-transit-access-single-Artboard_2-wards-img path, #g-transit-access-single-Artboard_2-wards-img line, #g-transit-access-single-Artboard_2-wards-img polyline, #g-transit-access-single-Artboard_2-wards-img polygon { vector-effect: non-scaling-stroke; }
</style>
</svg>
